<?xml version="1.0" standalone="no"?>
<!DOCTYPE svg PUBLIC "-//W3C//DTD SVG 1.1//EN" "http://www.w3.org/Graphics/SVG/1.1/DTD/svg11.dtd">
<svg style="stroke-linejoin:miter; stroke:black; stroke-width:2.5; text-anchor:middle; fill:none" xmlns="http://www.w3.org/2000/svg" font-family="Helvetica, Arial, FreeSans, Sans, sans, sans-serif" width="1500px" height="1000px" version="1.1" xmlns:xlink="http://www.w3.org/1999/xlink" viewBox="0 0 1500 1000">
<defs>
    <clipPath id="Histogram_0_clip">
        <rect x="60" y="25" width="415" height="400" />
    </clipPath>
    <clipPath id="Histogram_10_clip">
        <rect x="60" y="525" width="415" height="400" />
    </clipPath>
    <clipPath id="Histogram_11_clip">
        <rect x="60" y="525" width="415" height="400" />
    </clipPath>
    <clipPath id="Histogram_12_clip">
        <rect x="560" y="525" width="415" height="400" />
    </clipPath>
    <clipPath id="Histogram_13_clip">
        <rect x="560" y="525" width="415" height="400" />
    </clipPath>
    <clipPath id="Histogram_14_clip">
        <rect x="560" y="525" width="415" height="400" />
    </clipPath>
    <clipPath id="Histogram_15_clip">
        <rect x="1060" y="525" width="415" height="400" />
    </clipPath>
    <clipPath id="Histogram_16_clip">
        <rect x="1060" y="525" width="415" height="400" />
    </clipPath>
    <clipPath id="Histogram_17_clip">
        <rect x="1060" y="525" width="415" height="400" />
    </clipPath>
    <clipPath id="Histogram_1_clip">
        <rect x="60" y="25" width="415" height="400" />
    </clipPath>
    <clipPath id="Histogram_2_clip">
        <rect x="60" y="25" width="415" height="400" />
    </clipPath>
    <clipPath id="Histogram_3_clip">
        <rect x="560" y="25" width="415" height="400" />
    </clipPath>
    <clipPath id="Histogram_4_clip">
        <rect x="560" y="25" width="415" height="400" />
    </clipPath>
    <clipPath id="Histogram_5_clip">
        <rect x="560" y="25" width="415" height="400" />
    </clipPath>
    <clipPath id="Histogram_6_clip">
        <rect x="1060" y="25" width="415" height="400" />
    </clipPath>
    <clipPath id="Histogram_7_clip">
        <rect x="1060" y="25" width="415" height="400" />
    </clipPath>
    <clipPath id="Histogram_8_clip">
        <rect x="1060" y="25" width="415" height="400" />
    </clipPath>
    <clipPath id="Histogram_9_clip">
        <rect x="60" y="525" width="415" height="400" />
    </clipPath>
    <clipPath id="Legend_0_clip">
        <rect x="560" y="525" width="415" height="115" />
    </clipPath>
</defs>
<g id="whole_document">
<rect id="background" x="0" y="0" width="1500" height="1000" stroke="none" fill="white" />
<g id="Histogram_0" clip-path="url(#Histogram_0_clip)">
    <path d="M 60 425 L 60 425 L 64.15 425 L 64.15 425 L 68.3 425 L 68.3 421 L 72.45 421 L 72.45 425 L 76.6 425 L 76.6 425 L 80.75 425 L 80.75 425 L 84.9 425 L 84.9 425 L 89.05 425 L 89.05 425 L 93.2 425 L 93.2 421 L 97.35 421 L 97.35 425 L 101.5 425 L 101.5 425 L 105.65 425 L 105.65 425 L 109.8 425 L 109.8 421 L 113.95 421 L 113.95 413 L 118.1 413 L 118.1 425 L 122.25 425 L 122.25 425 L 126.4 425 L 126.4 425 L 130.55 425 L 130.55 425 L 134.7 425 L 134.7 421 L 138.85 421 L 138.85 425 L 143 425 L 143 421 L 147.15 421 L 147.15 421 L 151.3 421 L 151.3 425 L 155.45 425 L 155.45 421 L 159.6 421 L 159.6 421 L 163.75 421 L 163.75 421 L 167.9 421 L 167.9 421 L 172.05 421 L 172.05 417 L 176.2 417 L 176.2 425 L 180.35 425 L 180.35 421 L 184.5 421 L 184.5 421 L 188.65 421 L 188.65 425 L 192.8 425 L 192.8 421 L 196.95 421 L 196.95 413 L 201.1 413 L 201.1 421 L 205.25 421 L 205.25 421 L 209.4 421 L 209.4 425 L 213.55 425 L 213.55 417 L 217.7 417 L 217.7 417 L 221.85 417 L 221.85 409 L 226 409 L 226 409 L 230.15 409 L 230.15 385 L 234.3 385 L 234.3 269 L 238.45 269 L 238.45 81 L 242.6 81 L 242.6 -175 L 246.75 -175 L 246.75 -671 L 250.9 -671 L 250.9 -1451 L 255.05 -1451 L 255.05 -3611 L 259.2 -3611 L 259.2 -10343 L 263.35 -10343 L 263.35 -209647 L 267.5 -209647 L 267.5 -143867 L 271.65 -143867 L 271.65 -4779 L 275.8 -4779 L 275.8 -2895 L 279.95 -2895 L 279.95 -1611 L 284.1 -1611 L 284.1 -779 L 288.25 -779 L 288.25 -171 L 292.4 -171 L 292.4 85 L 296.55 85 L 296.55 237 L 300.7 237 L 300.7 357 L 304.85 357 L 304.85 413 L 309 413 L 309 417 L 313.15 417 L 313.15 425 L 317.3 425 L 317.3 425 L 321.45 425 L 321.45 425 L 325.6 425 L 325.6 425 L 329.75 425 L 329.75 425 L 333.9 425 L 333.9 425 L 338.05 425 L 338.05 425 L 342.2 425 L 342.2 425 L 346.35 425 L 346.35 425 L 350.5 425 L 350.5 425 L 354.65 425 L 354.65 425 L 358.8 425 L 358.8 425 L 362.95 425 L 362.95 425 L 367.1 425 L 367.1 425 L 371.25 425 L 371.25 425 L 375.4 425 L 375.4 425 L 379.55 425 L 379.55 425 L 383.7 425 L 383.7 425 L 387.85 425 L 387.85 425 L 392 425 L 392 425 L 396.15 425 L 396.15 425 L 400.3 425 L 400.3 425 L 404.45 425 L 404.45 425 L 408.6 425 L 408.6 425 L 412.75 425 L 412.75 425 L 416.9 425 L 416.9 425 L 421.05 425 L 421.05 425 L 425.2 425 L 425.2 425 L 429.35 425 L 429.35 425 L 433.5 425 L 433.5 425 L 437.65 425 L 437.65 425 L 441.8 425 L 441.8 425 L 445.95 425 L 445.95 425 L 450.1 425 L 450.1 425 L 454.25 425 L 454.25 425 L 458.4 425 L 458.4 425 L 462.55 425 L 462.55 425 L 466.7 425 L 466.7 425 L 470.85 425 L 470.85 425 L 475 425 L 475 425" stroke-width="3" stroke-dasharray="" stroke="black" stroke-opacity="1" fill="lightgray" fill-opacity="1" />
</g>
<g id="Histogram_1" clip-path="url(#Histogram_1_clip)">
    <path d="M 60 425 L 60 425 L 64.15 425 L 64.15 425 L 68.3 425 L 68.3 421 L 72.45 421 L 72.45 425 L 76.6 425 L 76.6 425 L 80.75 425 L 80.75 425 L 84.9 425 L 84.9 425 L 89.05 425 L 89.05 425 L 93.2 425 L 93.2 421 L 97.35 421 L 97.35 425 L 101.5 425 L 101.5 425 L 105.65 425 L 105.65 425 L 109.8 425 L 109.8 421 L 113.95 421 L 113.95 413 L 118.1 413 L 118.1 425 L 122.25 425 L 122.25 425 L 126.4 425 L 126.4 425 L 130.55 425 L 130.55 425 L 134.7 425 L 134.7 421 L 138.85 421 L 138.85 425 L 143 425 L 143 421 L 147.15 421 L 147.15 421 L 151.3 421 L 151.3 425 L 155.45 425 L 155.45 421 L 159.6 421 L 159.6 421 L 163.75 421 L 163.75 421 L 167.9 421 L 167.9 421 L 172.05 421 L 172.05 417 L 176.2 417 L 176.2 425 L 180.35 425 L 180.35 421 L 184.5 421 L 184.5 421 L 188.65 421 L 188.65 425 L 192.8 425 L 192.8 421 L 196.95 421 L 196.95 413 L 201.1 413 L 201.1 421 L 205.25 421 L 205.25 421 L 209.4 421 L 209.4 425 L 213.55 425 L 213.55 417 L 217.7 417 L 217.7 417 L 221.85 417 L 221.85 413 L 226 413 L 226 417 L 230.15 417 L 230.15 417 L 234.3 417 L 234.3 417 L 238.45 417 L 238.45 405 L 242.6 405 L 242.6 393 L 246.75 393 L 246.75 401 L 250.9 401 L 250.9 381 L 255.05 381 L 255.05 321 L 259.2 321 L 259.2 37 L 263.35 37 L 263.35 -999 L 267.5 -999 L 267.5 41 L 271.65 41 L 271.65 425 L 275.8 425 L 275.8 425 L 279.95 425 L 279.95 425 L 284.1 425 L 284.1 425 L 288.25 425 L 288.25 425 L 292.4 425 L 292.4 425 L 296.55 425 L 296.55 425 L 300.7 425 L 300.7 425 L 304.85 425 L 304.85 425 L 309 425 L 309 425 L 313.15 425 L 313.15 425 L 317.3 425 L 317.3 425 L 321.45 425 L 321.45 425 L 325.6 425 L 325.6 425 L 329.75 425 L 329.75 425 L 333.9 425 L 333.9 425 L 338.05 425 L 338.05 425 L 342.2 425 L 342.2 425 L 346.35 425 L 346.35 425 L 350.5 425 L 350.5 425 L 354.65 425 L 354.65 425 L 358.8 425 L 358.8 425 L 362.95 425 L 362.95 425 L 367.1 425 L 367.1 425 L 371.25 425 L 371.25 425 L 375.4 425 L 375.4 425 L 379.55 425 L 379.55 425 L 383.7 425 L 383.7 425 L 387.85 425 L 387.85 425 L 392 425 L 392 425 L 396.15 425 L 396.15 425 L 400.3 425 L 400.3 425 L 404.45 425 L 404.45 425 L 408.6 425 L 408.6 425 L 412.75 425 L 412.75 425 L 416.9 425 L 416.9 425 L 421.05 425 L 421.05 425 L 425.2 425 L 425.2 425 L 429.35 425 L 429.35 425 L 433.5 425 L 433.5 425 L 437.65 425 L 437.65 425 L 441.8 425 L 441.8 425 L 445.95 425 L 445.95 425 L 450.1 425 L 450.1 425 L 454.25 425 L 454.25 425 L 458.4 425 L 458.4 425 L 462.55 425 L 462.55 425 L 466.7 425 L 466.7 425 L 470.85 425 L 470.85 425 L 475 425 L 475 425" stroke-width="3" stroke-dasharray="" stroke="black" stroke-opacity="1" fill="pink" fill-opacity="1" />
</g>
<g id="Histogram_2" clip-path="url(#Histogram_2_clip)">
    <path d="M 60 425 L 60 425 L 64.15 425 L 64.15 425 L 68.3 425 L 68.3 421 L 72.45 421 L 72.45 425 L 76.6 425 L 76.6 425 L 80.75 425 L 80.75 425 L 84.9 425 L 84.9 425 L 89.05 425 L 89.05 425 L 93.2 425 L 93.2 421 L 97.35 421 L 97.35 425 L 101.5 425 L 101.5 425 L 105.65 425 L 105.65 425 L 109.8 425 L 109.8 421 L 113.95 421 L 113.95 413 L 118.1 413 L 118.1 425 L 122.25 425 L 122.25 425 L 126.4 425 L 126.4 425 L 130.55 425 L 130.55 425 L 134.7 425 L 134.7 421 L 138.85 421 L 138.85 425 L 143 425 L 143 421 L 147.15 421 L 147.15 421 L 151.3 421 L 151.3 425 L 155.45 425 L 155.45 421 L 159.6 421 L 159.6 421 L 163.75 421 L 163.75 421 L 167.9 421 L 167.9 421 L 172.05 421 L 172.05 417 L 176.2 417 L 176.2 425 L 180.35 425 L 180.35 421 L 184.5 421 L 184.5 421 L 188.65 421 L 188.65 425 L 192.8 425 L 192.8 421 L 196.95 421 L 196.95 413 L 201.1 413 L 201.1 421 L 205.25 421 L 205.25 421 L 209.4 421 L 209.4 425 L 213.55 425 L 213.55 417 L 217.7 417 L 217.7 417 L 221.85 417 L 221.85 413 L 226 413 L 226 417 L 230.15 417 L 230.15 417 L 234.3 417 L 234.3 417 L 238.45 417 L 238.45 413 L 242.6 413 L 242.6 401 L 246.75 401 L 246.75 401 L 250.9 401 L 250.9 401 L 255.05 401 L 255.05 401 L 259.2 401 L 259.2 413 L 263.35 413 L 263.35 421 L 267.5 421 L 267.5 425 L 271.65 425 L 271.65 425 L 275.8 425 L 275.8 425 L 279.95 425 L 279.95 425 L 284.1 425 L 284.1 425 L 288.25 425 L 288.25 425 L 292.4 425 L 292.4 425 L 296.55 425 L 296.55 425 L 300.7 425 L 300.7 425 L 304.85 425 L 304.85 425 L 309 425 L 309 425 L 313.15 425 L 313.15 425 L 317.3 425 L 317.3 425 L 321.45 425 L 321.45 425 L 325.6 425 L 325.6 425 L 329.75 425 L 329.75 425 L 333.9 425 L 333.9 425 L 338.05 425 L 338.05 425 L 342.2 425 L 342.2 425 L 346.35 425 L 346.35 425 L 350.5 425 L 350.5 425 L 354.65 425 L 354.65 425 L 358.8 425 L 358.8 425 L 362.95 425 L 362.95 425 L 367.1 425 L 367.1 425 L 371.25 425 L 371.25 425 L 375.4 425 L 375.4 425 L 379.55 425 L 379.55 425 L 383.7 425 L 383.7 425 L 387.85 425 L 387.85 425 L 392 425 L 392 425 L 396.15 425 L 396.15 425 L 400.3 425 L 400.3 425 L 404.45 425 L 404.45 425 L 408.6 425 L 408.6 425 L 412.75 425 L 412.75 425 L 416.9 425 L 416.9 425 L 421.05 425 L 421.05 425 L 425.2 425 L 425.2 425 L 429.35 425 L 429.35 425 L 433.5 425 L 433.5 425 L 437.65 425 L 437.65 425 L 441.8 425 L 441.8 425 L 445.95 425 L 445.95 425 L 450.1 425 L 450.1 425 L 454.25 425 L 454.25 425 L 458.4 425 L 458.4 425 L 462.55 425 L 462.55 425 L 466.7 425 L 466.7 425 L 470.85 425 L 470.85 425 L 475 425 L 475 425" stroke-width="3" stroke-dasharray="" stroke="black" stroke-opacity="1" fill="red" fill-opacity="1" />
</g>
<g id="frame_0">
    <rect id="frame_0_border" x="60" y="25" width="415" height="400" />
    <text id="frame_0_bottomlabel" font-size="30" transform="translate(267.5, 485)" text-anchor="middle" dominant-baseline="middle" stroke="none" fill="black">eigenbasis direction 1</text>
    <g id="frame_0_bottomticks">
        <path d="M 267.5 425 L 267.5 405" />
        <text font-size="30" transform="translate(267.5, 455)" text-anchor="middle" dominant-baseline="middle" stroke="none" fill="black">0</text>
        <path d="M 143 425 L 143 415" />
        <path d="M 433.5 425 L 433.5 405" />
        <text font-size="30" transform="translate(433.5, 455)" text-anchor="middle" dominant-baseline="middle" stroke="none" fill="black">40</text>
        <path d="M 309 425 L 309 415" />
        <path d="M 184.5 425 L 184.5 405" />
        <text font-size="30" transform="translate(184.5, 455)" text-anchor="middle" dominant-baseline="middle" stroke="none" fill="black">‒20</text>
        <path d="M 60 425 L 60 415" />
        <path d="M 475 425 L 475 415" />
        <path d="M 350.5 425 L 350.5 405" />
        <text font-size="30" transform="translate(350.5, 455)" text-anchor="middle" dominant-baseline="middle" stroke="none" fill="black">20</text>
        <path d="M 226 425 L 226 415" />
        <path d="M 101.5 425 L 101.5 405" />
        <text font-size="30" transform="translate(101.5, 455)" text-anchor="middle" dominant-baseline="middle" stroke="none" fill="black">‒40</text>
        <path d="M 392 425 L 392 415" />
    </g>
    <g id="frame_0_leftticks">
        <path d="M 60 425 L 80 425" />
        <text font-size="30" transform="translate(50, 435)" text-anchor="end" dominant-baseline="middle" stroke="none" fill="black">0</text>
        <path d="M 60 25 L 80 25" />
        <text font-size="30" transform="translate(50, 35)" text-anchor="end" dominant-baseline="middle" stroke="none" fill="black">100</text>
        <path d="M 60 145 L 70 145" />
        <path d="M 60 265 L 80 265" />
        <text font-size="30" transform="translate(50, 275)" text-anchor="end" dominant-baseline="middle" stroke="none" fill="black">40</text>
        <path d="M 60 385 L 70 385" />
        <path d="M 60 105 L 80 105" />
        <text font-size="30" transform="translate(50, 115)" text-anchor="end" dominant-baseline="middle" stroke="none" fill="black">80</text>
        <path d="M 60 225 L 70 225" />
        <path d="M 60 345 L 80 345" />
        <text font-size="30" transform="translate(50, 355)" text-anchor="end" dominant-baseline="middle" stroke="none" fill="black">20</text>
        <path d="M 60 65 L 70 65" />
        <path d="M 60 185 L 80 185" />
        <text font-size="30" transform="translate(50, 195)" text-anchor="end" dominant-baseline="middle" stroke="none" fill="black">60</text>
        <path d="M 60 305 L 70 305" />
    </g>
    <g id="frame_0_topticks">
        <path d="M 267.5 25 L 267.5 45" />
        <path d="M 143 25 L 143 35" />
        <path d="M 433.5 25 L 433.5 45" />
        <path d="M 309 25 L 309 35" />
        <path d="M 184.5 25 L 184.5 45" />
        <path d="M 60 25 L 60 35" />
        <path d="M 475 25 L 475 35" />
        <path d="M 350.5 25 L 350.5 45" />
        <path d="M 226 25 L 226 35" />
        <path d="M 101.5 25 L 101.5 45" />
        <path d="M 392 25 L 392 35" />
    </g>
    <g id="frame_0_rightticks">
        <path d="M 475 425 L 455 425" />
        <path d="M 475 25 L 455 25" />
        <path d="M 475 145 L 465 145" />
        <path d="M 475 265 L 455 265" />
        <path d="M 475 385 L 465 385" />
        <path d="M 475 105 L 455 105" />
        <path d="M 475 225 L 465 225" />
        <path d="M 475 345 L 455 345" />
        <path d="M 475 65 L 465 65" />
        <path d="M 475 185 L 455 185" />
        <path d="M 475 305 L 465 305" />
    </g>
</g>
<g id="Histogram_3" clip-path="url(#Histogram_3_clip)">
    <path d="M 560 425 L 560 425 L 564.15 425 L 564.15 425 L 568.3 425 L 568.3 425 L 572.45 425 L 572.45 425 L 576.6 425 L 576.6 425 L 580.75 425 L 580.75 425 L 584.9 425 L 584.9 425 L 589.05 425 L 589.05 425 L 593.2 425 L 593.2 425 L 597.35 425 L 597.35 425 L 601.5 425 L 601.5 425 L 605.65 425 L 605.65 425 L 609.8 425 L 609.8 425 L 613.95 425 L 613.95 425 L 618.1 425 L 618.1 425 L 622.25 425 L 622.25 425 L 626.4 425 L 626.4 425 L 630.55 425 L 630.55 425 L 634.7 425 L 634.7 425 L 638.85 425 L 638.85 425 L 643 425 L 643 425 L 647.15 425 L 647.15 425 L 651.3 425 L 651.3 425 L 655.45 425 L 655.45 425 L 659.6 425 L 659.6 425 L 663.75 425 L 663.75 425 L 667.9 425 L 667.9 425 L 672.05 425 L 672.05 425 L 676.2 425 L 676.2 425 L 680.35 425 L 680.35 421 L 684.5 421 L 684.5 417 L 688.65 417 L 688.65 425 L 692.8 425 L 692.8 417 L 696.95 417 L 696.95 425 L 701.1 425 L 701.1 417 L 705.25 417 L 705.25 397 L 709.4 397 L 709.4 389 L 713.55 389 L 713.55 385 L 717.7 385 L 717.7 357 L 721.85 357 L 721.85 309 L 726 309 L 726 209 L 730.15 209 L 730.15 77 L 734.3 77 L 734.3 -331 L 738.45 -331 L 738.45 -1331 L 742.6 -1331 L 742.6 -4255 L 746.75 -4255 L 746.75 -10695 L 750.9 -10695 L 750.9 -19735 L 755.05 -19735 L 755.05 -32591 L 759.2 -32591 L 759.2 -45823 L 763.35 -45823 L 763.35 -57815 L 767.5 -57815 L 767.5 -62311 L 771.65 -62311 L 771.65 -58275 L 775.8 -58275 L 775.8 -47375 L 779.95 -47375 L 779.95 -26035 L 784.1 -26035 L 784.1 -7739 L 788.25 -7739 L 788.25 -2411 L 792.4 -2411 L 792.4 -731 L 796.55 -731 L 796.55 -247 L 800.7 -247 L 800.7 137 L 804.85 137 L 804.85 237 L 809 237 L 809 297 L 813.15 297 L 813.15 325 L 817.3 325 L 817.3 349 L 821.45 349 L 821.45 373 L 825.6 373 L 825.6 397 L 829.75 397 L 829.75 409 L 833.9 409 L 833.9 409 L 838.05 409 L 838.05 409 L 842.2 409 L 842.2 413 L 846.35 413 L 846.35 417 L 850.5 417 L 850.5 421 L 854.65 421 L 854.65 405 L 858.8 405 L 858.8 425 L 862.95 425 L 862.95 417 L 867.1 417 L 867.1 421 L 871.25 421 L 871.25 421 L 875.4 421 L 875.4 421 L 879.55 421 L 879.55 425 L 883.7 425 L 883.7 421 L 887.85 421 L 887.85 425 L 892 425 L 892 425 L 896.15 425 L 896.15 421 L 900.3 421 L 900.3 421 L 904.45 421 L 904.45 425 L 908.6 425 L 908.6 413 L 912.75 413 L 912.75 421 L 916.9 421 L 916.9 417 L 921.05 417 L 921.05 421 L 925.2 421 L 925.2 425 L 929.35 425 L 929.35 425 L 933.5 425 L 933.5 425 L 937.65 425 L 937.65 425 L 941.8 425 L 941.8 425 L 945.95 425 L 945.95 421 L 950.1 421 L 950.1 425 L 954.25 425 L 954.25 425 L 958.4 425 L 958.4 421 L 962.55 421 L 962.55 425 L 966.7 425 L 966.7 425 L 970.85 425 L 970.85 425 L 975 425 L 975 425" stroke-width="3" stroke-dasharray="" stroke="black" stroke-opacity="1" fill="lightgray" fill-opacity="1" />
</g>
<g id="Histogram_4" clip-path="url(#Histogram_4_clip)">
    <path d="M 560 425 L 560 425 L 564.15 425 L 564.15 425 L 568.3 425 L 568.3 425 L 572.45 425 L 572.45 425 L 576.6 425 L 576.6 425 L 580.75 425 L 580.75 425 L 584.9 425 L 584.9 425 L 589.05 425 L 589.05 425 L 593.2 425 L 593.2 425 L 597.35 425 L 597.35 425 L 601.5 425 L 601.5 425 L 605.65 425 L 605.65 425 L 609.8 425 L 609.8 425 L 613.95 425 L 613.95 425 L 618.1 425 L 618.1 425 L 622.25 425 L 622.25 425 L 626.4 425 L 626.4 425 L 630.55 425 L 630.55 425 L 634.7 425 L 634.7 425 L 638.85 425 L 638.85 425 L 643 425 L 643 425 L 647.15 425 L 647.15 425 L 651.3 425 L 651.3 425 L 655.45 425 L 655.45 425 L 659.6 425 L 659.6 425 L 663.75 425 L 663.75 425 L 667.9 425 L 667.9 425 L 672.05 425 L 672.05 425 L 676.2 425 L 676.2 425 L 680.35 425 L 680.35 425 L 684.5 425 L 684.5 425 L 688.65 425 L 688.65 425 L 692.8 425 L 692.8 425 L 696.95 425 L 696.95 425 L 701.1 425 L 701.1 425 L 705.25 425 L 705.25 425 L 709.4 425 L 709.4 425 L 713.55 425 L 713.55 425 L 717.7 425 L 717.7 425 L 721.85 425 L 721.85 425 L 726 425 L 726 425 L 730.15 425 L 730.15 425 L 734.3 425 L 734.3 425 L 738.45 425 L 738.45 425 L 742.6 425 L 742.6 417 L 746.75 417 L 746.75 397 L 750.9 397 L 750.9 393 L 755.05 393 L 755.05 353 L 759.2 353 L 759.2 305 L 763.35 305 L 763.35 185 L 767.5 185 L 767.5 133 L 771.65 133 L 771.65 57 L 775.8 57 L 775.8 97 L 779.95 97 L 779.95 105 L 784.1 105 L 784.1 217 L 788.25 217 L 788.25 281 L 792.4 281 L 792.4 353 L 796.55 353 L 796.55 365 L 800.7 365 L 800.7 401 L 804.85 401 L 804.85 385 L 809 385 L 809 397 L 813.15 397 L 813.15 405 L 817.3 405 L 817.3 409 L 821.45 409 L 821.45 413 L 825.6 413 L 825.6 417 L 829.75 417 L 829.75 417 L 833.9 417 L 833.9 417 L 838.05 417 L 838.05 421 L 842.2 421 L 842.2 417 L 846.35 417 L 846.35 417 L 850.5 417 L 850.5 421 L 854.65 421 L 854.65 405 L 858.8 405 L 858.8 425 L 862.95 425 L 862.95 417 L 867.1 417 L 867.1 421 L 871.25 421 L 871.25 421 L 875.4 421 L 875.4 421 L 879.55 421 L 879.55 425 L 883.7 425 L 883.7 421 L 887.85 421 L 887.85 425 L 892 425 L 892 425 L 896.15 425 L 896.15 421 L 900.3 421 L 900.3 421 L 904.45 421 L 904.45 425 L 908.6 425 L 908.6 413 L 912.75 413 L 912.75 421 L 916.9 421 L 916.9 417 L 921.05 417 L 921.05 421 L 925.2 421 L 925.2 425 L 929.35 425 L 929.35 425 L 933.5 425 L 933.5 425 L 937.65 425 L 937.65 425 L 941.8 425 L 941.8 425 L 945.95 425 L 945.95 421 L 950.1 421 L 950.1 425 L 954.25 425 L 954.25 425 L 958.4 425 L 958.4 421 L 962.55 421 L 962.55 425 L 966.7 425 L 966.7 425 L 970.85 425 L 970.85 425 L 975 425 L 975 425" stroke-width="3" stroke-dasharray="" stroke="black" stroke-opacity="1" fill="pink" fill-opacity="1" />
</g>
<g id="Histogram_5" clip-path="url(#Histogram_5_clip)">
    <path d="M 560 425 L 560 425 L 564.15 425 L 564.15 425 L 568.3 425 L 568.3 425 L 572.45 425 L 572.45 425 L 576.6 425 L 576.6 425 L 580.75 425 L 580.75 425 L 584.9 425 L 584.9 425 L 589.05 425 L 589.05 425 L 593.2 425 L 593.2 425 L 597.35 425 L 597.35 425 L 601.5 425 L 601.5 425 L 605.65 425 L 605.65 425 L 609.8 425 L 609.8 425 L 613.95 425 L 613.95 425 L 618.1 425 L 618.1 425 L 622.25 425 L 622.25 425 L 626.4 425 L 626.4 425 L 630.55 425 L 630.55 425 L 634.7 425 L 634.7 425 L 638.85 425 L 638.85 425 L 643 425 L 643 425 L 647.15 425 L 647.15 425 L 651.3 425 L 651.3 425 L 655.45 425 L 655.45 425 L 659.6 425 L 659.6 425 L 663.75 425 L 663.75 425 L 667.9 425 L 667.9 425 L 672.05 425 L 672.05 425 L 676.2 425 L 676.2 425 L 680.35 425 L 680.35 425 L 684.5 425 L 684.5 425 L 688.65 425 L 688.65 425 L 692.8 425 L 692.8 425 L 696.95 425 L 696.95 425 L 701.1 425 L 701.1 425 L 705.25 425 L 705.25 425 L 709.4 425 L 709.4 425 L 713.55 425 L 713.55 425 L 717.7 425 L 717.7 425 L 721.85 425 L 721.85 425 L 726 425 L 726 425 L 730.15 425 L 730.15 425 L 734.3 425 L 734.3 425 L 738.45 425 L 738.45 425 L 742.6 425 L 742.6 425 L 746.75 425 L 746.75 425 L 750.9 425 L 750.9 425 L 755.05 425 L 755.05 425 L 759.2 425 L 759.2 425 L 763.35 425 L 763.35 425 L 767.5 425 L 767.5 425 L 771.65 425 L 771.65 425 L 775.8 425 L 775.8 421 L 779.95 421 L 779.95 421 L 784.1 421 L 784.1 425 L 788.25 425 L 788.25 421 L 792.4 421 L 792.4 421 L 796.55 421 L 796.55 417 L 800.7 417 L 800.7 413 L 804.85 413 L 804.85 393 L 809 393 L 809 401 L 813.15 401 L 813.15 405 L 817.3 405 L 817.3 409 L 821.45 409 L 821.45 417 L 825.6 417 L 825.6 417 L 829.75 417 L 829.75 417 L 833.9 417 L 833.9 417 L 838.05 417 L 838.05 421 L 842.2 421 L 842.2 417 L 846.35 417 L 846.35 417 L 850.5 417 L 850.5 421 L 854.65 421 L 854.65 405 L 858.8 405 L 858.8 425 L 862.95 425 L 862.95 417 L 867.1 417 L 867.1 421 L 871.25 421 L 871.25 421 L 875.4 421 L 875.4 421 L 879.55 421 L 879.55 425 L 883.7 425 L 883.7 421 L 887.85 421 L 887.85 425 L 892 425 L 892 425 L 896.15 425 L 896.15 421 L 900.3 421 L 900.3 421 L 904.45 421 L 904.45 425 L 908.6 425 L 908.6 413 L 912.75 413 L 912.75 421 L 916.9 421 L 916.9 417 L 921.05 417 L 921.05 421 L 925.2 421 L 925.2 425 L 929.35 425 L 929.35 425 L 933.5 425 L 933.5 425 L 937.65 425 L 937.65 425 L 941.8 425 L 941.8 425 L 945.95 425 L 945.95 421 L 950.1 421 L 950.1 425 L 954.25 425 L 954.25 425 L 958.4 425 L 958.4 421 L 962.55 421 L 962.55 425 L 966.7 425 L 966.7 425 L 970.85 425 L 970.85 425 L 975 425 L 975 425" stroke-width="3" stroke-dasharray="" stroke="black" stroke-opacity="1" fill="red" fill-opacity="1" />
</g>
<g id="frame_1">
    <rect id="frame_1_border" x="560" y="25" width="415" height="400" />
    <text id="frame_1_bottomlabel" font-size="30" transform="translate(767.5, 485)" text-anchor="middle" dominant-baseline="middle" stroke="none" fill="black">eigenbasis direction 2</text>
    <g id="frame_1_bottomticks">
        <path d="M 767.5 425 L 767.5 405" />
        <text font-size="30" transform="translate(767.5, 455)" text-anchor="middle" dominant-baseline="middle" stroke="none" fill="black">0</text>
        <path d="M 777.875 425 L 777.875 415" />
        <path d="M 788.25 425 L 788.25 415" />
        <path d="M 798.625 425 L 798.625 415" />
        <path d="M 809 425 L 809 415" />
        <path d="M 819.375 425 L 819.375 405" />
        <text font-size="30" transform="translate(819.375, 455)" text-anchor="middle" dominant-baseline="middle" stroke="none" fill="black">5</text>
        <path d="M 829.75 425 L 829.75 415" />
        <path d="M 840.125 425 L 840.125 415" />
        <path d="M 850.5 425 L 850.5 415" />
        <path d="M 860.875 425 L 860.875 415" />
        <path d="M 871.25 425 L 871.25 405" />
        <text font-size="30" transform="translate(871.25, 455)" text-anchor="middle" dominant-baseline="middle" stroke="none" fill="black">10</text>
        <path d="M 881.625 425 L 881.625 415" />
        <path d="M 892 425 L 892 415" />
        <path d="M 902.375 425 L 902.375 415" />
        <path d="M 912.75 425 L 912.75 415" />
        <path d="M 923.125 425 L 923.125 405" />
        <text font-size="30" transform="translate(923.125, 455)" text-anchor="middle" dominant-baseline="middle" stroke="none" fill="black">15</text>
        <path d="M 933.5 425 L 933.5 415" />
        <path d="M 943.875 425 L 943.875 415" />
        <path d="M 954.25 425 L 954.25 415" />
        <path d="M 964.625 425 L 964.625 415" />
        <path d="M 746.75 425 L 746.75 415" />
        <path d="M 560 425 L 560 405" />
        <text font-size="30" transform="translate(560, 455)" text-anchor="middle" dominant-baseline="middle" stroke="none" fill="black">‒20</text>
        <path d="M 570.375 425 L 570.375 415" />
        <path d="M 580.75 425 L 580.75 415" />
        <path d="M 591.125 425 L 591.125 415" />
        <path d="M 601.5 425 L 601.5 415" />
        <path d="M 611.875 425 L 611.875 405" />
        <text font-size="30" transform="translate(611.875, 455)" text-anchor="middle" dominant-baseline="middle" stroke="none" fill="black">‒15</text>
        <path d="M 622.25 425 L 622.25 415" />
        <path d="M 632.625 425 L 632.625 415" />
        <path d="M 643 425 L 643 415" />
        <path d="M 653.375 425 L 653.375 415" />
        <path d="M 663.75 425 L 663.75 405" />
        <text font-size="30" transform="translate(663.75, 455)" text-anchor="middle" dominant-baseline="middle" stroke="none" fill="black">‒10</text>
        <path d="M 674.125 425 L 674.125 415" />
        <path d="M 684.5 425 L 684.5 415" />
        <path d="M 694.875 425 L 694.875 415" />
        <path d="M 705.25 425 L 705.25 415" />
        <path d="M 715.625 425 L 715.625 405" />
        <text font-size="30" transform="translate(715.625, 455)" text-anchor="middle" dominant-baseline="middle" stroke="none" fill="black">‒5</text>
        <path d="M 726 425 L 726 415" />
        <path d="M 736.375 425 L 736.375 415" />
        <path d="M 757.125 425 L 757.125 415" />
        <path d="M 975 425 L 975 405" />
        <text font-size="30" transform="translate(975, 455)" text-anchor="middle" dominant-baseline="middle" stroke="none" fill="black">20</text>
    </g>
    <g id="frame_1_leftticks">
        <path d="M 560 425 L 580 425" />
        <text font-size="30" transform="translate(550, 435)" text-anchor="end" dominant-baseline="middle" stroke="none" fill="black">0</text>
        <path d="M 560 25 L 580 25" />
        <text font-size="30" transform="translate(550, 35)" text-anchor="end" dominant-baseline="middle" stroke="none" fill="black">100</text>
        <path d="M 560 145 L 570 145" />
        <path d="M 560 265 L 580 265" />
        <text font-size="30" transform="translate(550, 275)" text-anchor="end" dominant-baseline="middle" stroke="none" fill="black">40</text>
        <path d="M 560 385 L 570 385" />
        <path d="M 560 105 L 580 105" />
        <text font-size="30" transform="translate(550, 115)" text-anchor="end" dominant-baseline="middle" stroke="none" fill="black">80</text>
        <path d="M 560 225 L 570 225" />
        <path d="M 560 345 L 580 345" />
        <text font-size="30" transform="translate(550, 355)" text-anchor="end" dominant-baseline="middle" stroke="none" fill="black">20</text>
        <path d="M 560 65 L 570 65" />
        <path d="M 560 185 L 580 185" />
        <text font-size="30" transform="translate(550, 195)" text-anchor="end" dominant-baseline="middle" stroke="none" fill="black">60</text>
        <path d="M 560 305 L 570 305" />
    </g>
    <g id="frame_1_topticks">
        <path d="M 767.5 25 L 767.5 45" />
        <path d="M 777.875 25 L 777.875 35" />
        <path d="M 788.25 25 L 788.25 35" />
        <path d="M 798.625 25 L 798.625 35" />
        <path d="M 809 25 L 809 35" />
        <path d="M 819.375 25 L 819.375 45" />
        <path d="M 829.75 25 L 829.75 35" />
        <path d="M 840.125 25 L 840.125 35" />
        <path d="M 850.5 25 L 850.5 35" />
        <path d="M 860.875 25 L 860.875 35" />
        <path d="M 871.25 25 L 871.25 45" />
        <path d="M 881.625 25 L 881.625 35" />
        <path d="M 892 25 L 892 35" />
        <path d="M 902.375 25 L 902.375 35" />
        <path d="M 912.75 25 L 912.75 35" />
        <path d="M 923.125 25 L 923.125 45" />
        <path d="M 933.5 25 L 933.5 35" />
        <path d="M 943.875 25 L 943.875 35" />
        <path d="M 954.25 25 L 954.25 35" />
        <path d="M 964.625 25 L 964.625 35" />
        <path d="M 746.75 25 L 746.75 35" />
        <path d="M 560 25 L 560 45" />
        <path d="M 570.375 25 L 570.375 35" />
        <path d="M 580.75 25 L 580.75 35" />
        <path d="M 591.125 25 L 591.125 35" />
        <path d="M 601.5 25 L 601.5 35" />
        <path d="M 611.875 25 L 611.875 45" />
        <path d="M 622.25 25 L 622.25 35" />
        <path d="M 632.625 25 L 632.625 35" />
        <path d="M 643 25 L 643 35" />
        <path d="M 653.375 25 L 653.375 35" />
        <path d="M 663.75 25 L 663.75 45" />
        <path d="M 674.125 25 L 674.125 35" />
        <path d="M 684.5 25 L 684.5 35" />
        <path d="M 694.875 25 L 694.875 35" />
        <path d="M 705.25 25 L 705.25 35" />
        <path d="M 715.625 25 L 715.625 45" />
        <path d="M 726 25 L 726 35" />
        <path d="M 736.375 25 L 736.375 35" />
        <path d="M 757.125 25 L 757.125 35" />
        <path d="M 975 25 L 975 45" />
    </g>
    <g id="frame_1_rightticks">
        <path d="M 975 425 L 955 425" />
        <path d="M 975 25 L 955 25" />
        <path d="M 975 145 L 965 145" />
        <path d="M 975 265 L 955 265" />
        <path d="M 975 385 L 965 385" />
        <path d="M 975 105 L 955 105" />
        <path d="M 975 225 L 965 225" />
        <path d="M 975 345 L 955 345" />
        <path d="M 975 65 L 965 65" />
        <path d="M 975 185 L 955 185" />
        <path d="M 975 305 L 965 305" />
    </g>
</g>
<g id="Histogram_6" clip-path="url(#Histogram_6_clip)">
    <path d="M 1060 425 L 1060 425 L 1064.15 425 L 1064.15 425 L 1068.3 425 L 1068.3 425 L 1072.45 425 L 1072.45 425 L 1076.6 425 L 1076.6 425 L 1080.75 425 L 1080.75 421 L 1084.9 421 L 1084.9 425 L 1089.05 425 L 1089.05 425 L 1093.2 425 L 1093.2 425 L 1097.35 425 L 1097.35 425 L 1101.5 425 L 1101.5 417 L 1105.65 417 L 1105.65 421 L 1109.8 421 L 1109.8 425 L 1113.95 425 L 1113.95 425 L 1118.1 425 L 1118.1 425 L 1122.25 425 L 1122.25 417 L 1126.4 417 L 1126.4 421 L 1130.55 421 L 1130.55 417 L 1134.7 417 L 1134.7 421 L 1138.85 421 L 1138.85 425 L 1143 425 L 1143 421 L 1147.15 421 L 1147.15 425 L 1151.3 425 L 1151.3 421 L 1155.45 421 L 1155.45 425 L 1159.6 425 L 1159.6 421 L 1163.75 421 L 1163.75 413 L 1167.9 413 L 1167.9 421 L 1172.05 421 L 1172.05 421 L 1176.2 421 L 1176.2 421 L 1180.35 421 L 1180.35 413 L 1184.5 413 L 1184.5 421 L 1188.65 421 L 1188.65 413 L 1192.8 413 L 1192.8 413 L 1196.95 413 L 1196.95 425 L 1201.1 425 L 1201.1 397 L 1205.25 397 L 1205.25 393 L 1209.4 393 L 1209.4 389 L 1213.55 389 L 1213.55 385 L 1217.7 385 L 1217.7 369 L 1221.85 369 L 1221.85 293 L 1226 293 L 1226 273 L 1230.15 273 L 1230.15 33 L 1234.3 33 L 1234.3 -303 L 1238.45 -303 L 1238.45 -1151 L 1242.6 -1151 L 1242.6 -3423 L 1246.75 -3423 L 1246.75 -8315 L 1250.9 -8315 L 1250.9 -19315 L 1255.05 -19315 L 1255.05 -36483 L 1259.2 -36483 L 1259.2 -55699 L 1263.35 -55699 L 1263.35 -70019 L 1267.5 -70019 L 1267.5 -67515 L 1271.65 -67515 L 1271.65 -51755 L 1275.8 -51755 L 1275.8 -31923 L 1279.95 -31923 L 1279.95 -16331 L 1284.1 -16331 L 1284.1 -7931 L 1288.25 -7931 L 1288.25 -3807 L 1292.4 -3807 L 1292.4 -1751 L 1296.55 -1751 L 1296.55 -887 L 1300.7 -887 L 1300.7 -335 L 1304.85 -335 L 1304.85 -43 L 1309 -43 L 1309 105 L 1313.15 105 L 1313.15 237 L 1317.3 237 L 1317.3 313 L 1321.45 313 L 1321.45 381 L 1325.6 381 L 1325.6 381 L 1329.75 381 L 1329.75 397 L 1333.9 397 L 1333.9 405 L 1338.05 405 L 1338.05 417 L 1342.2 417 L 1342.2 425 L 1346.35 425 L 1346.35 421 L 1350.5 421 L 1350.5 425 L 1354.65 425 L 1354.65 425 L 1358.8 425 L 1358.8 425 L 1362.95 425 L 1362.95 425 L 1367.1 425 L 1367.1 425 L 1371.25 425 L 1371.25 425 L 1375.4 425 L 1375.4 425 L 1379.55 425 L 1379.55 425 L 1383.7 425 L 1383.7 425 L 1387.85 425 L 1387.85 425 L 1392 425 L 1392 425 L 1396.15 425 L 1396.15 425 L 1400.3 425 L 1400.3 425 L 1404.45 425 L 1404.45 425 L 1408.6 425 L 1408.6 425 L 1412.75 425 L 1412.75 425 L 1416.9 425 L 1416.9 425 L 1421.05 425 L 1421.05 425 L 1425.2 425 L 1425.2 425 L 1429.35 425 L 1429.35 425 L 1433.5 425 L 1433.5 425 L 1437.65 425 L 1437.65 425 L 1441.8 425 L 1441.8 425 L 1445.95 425 L 1445.95 425 L 1450.1 425 L 1450.1 425 L 1454.25 425 L 1454.25 425 L 1458.4 425 L 1458.4 425 L 1462.55 425 L 1462.55 425 L 1466.7 425 L 1466.7 425 L 1470.85 425 L 1470.85 425 L 1475 425 L 1475 425" stroke-width="3" stroke-dasharray="" stroke="black" stroke-opacity="1" fill="lightgray" fill-opacity="1" />
</g>
<g id="Histogram_7" clip-path="url(#Histogram_7_clip)">
    <path d="M 1060 425 L 1060 425 L 1064.15 425 L 1064.15 425 L 1068.3 425 L 1068.3 425 L 1072.45 425 L 1072.45 425 L 1076.6 425 L 1076.6 425 L 1080.75 425 L 1080.75 421 L 1084.9 421 L 1084.9 425 L 1089.05 425 L 1089.05 425 L 1093.2 425 L 1093.2 425 L 1097.35 425 L 1097.35 425 L 1101.5 425 L 1101.5 417 L 1105.65 417 L 1105.65 421 L 1109.8 421 L 1109.8 425 L 1113.95 425 L 1113.95 425 L 1118.1 425 L 1118.1 425 L 1122.25 425 L 1122.25 417 L 1126.4 417 L 1126.4 421 L 1130.55 421 L 1130.55 417 L 1134.7 417 L 1134.7 421 L 1138.85 421 L 1138.85 425 L 1143 425 L 1143 421 L 1147.15 421 L 1147.15 425 L 1151.3 425 L 1151.3 421 L 1155.45 421 L 1155.45 425 L 1159.6 425 L 1159.6 421 L 1163.75 421 L 1163.75 413 L 1167.9 413 L 1167.9 421 L 1172.05 421 L 1172.05 421 L 1176.2 421 L 1176.2 425 L 1180.35 425 L 1180.35 417 L 1184.5 417 L 1184.5 421 L 1188.65 421 L 1188.65 421 L 1192.8 421 L 1192.8 421 L 1196.95 421 L 1196.95 425 L 1201.1 425 L 1201.1 417 L 1205.25 417 L 1205.25 421 L 1209.4 421 L 1209.4 409 L 1213.55 409 L 1213.55 417 L 1217.7 417 L 1217.7 413 L 1221.85 413 L 1221.85 413 L 1226 413 L 1226 417 L 1230.15 417 L 1230.15 393 L 1234.3 393 L 1234.3 413 L 1238.45 413 L 1238.45 405 L 1242.6 405 L 1242.6 385 L 1246.75 385 L 1246.75 337 L 1250.9 337 L 1250.9 221 L 1255.05 221 L 1255.05 185 L 1259.2 185 L 1259.2 37 L 1263.35 37 L 1263.35 5 L 1267.5 5 L 1267.5 5 L 1271.65 5 L 1271.65 121 L 1275.8 121 L 1275.8 313 L 1279.95 313 L 1279.95 357 L 1284.1 357 L 1284.1 389 L 1288.25 389 L 1288.25 413 L 1292.4 413 L 1292.4 425 L 1296.55 425 L 1296.55 425 L 1300.7 425 L 1300.7 425 L 1304.85 425 L 1304.85 425 L 1309 425 L 1309 425 L 1313.15 425 L 1313.15 425 L 1317.3 425 L 1317.3 425 L 1321.45 425 L 1321.45 425 L 1325.6 425 L 1325.6 425 L 1329.75 425 L 1329.75 425 L 1333.9 425 L 1333.9 425 L 1338.05 425 L 1338.05 425 L 1342.2 425 L 1342.2 425 L 1346.35 425 L 1346.35 425 L 1350.5 425 L 1350.5 425 L 1354.65 425 L 1354.65 425 L 1358.8 425 L 1358.8 425 L 1362.95 425 L 1362.95 425 L 1367.1 425 L 1367.1 425 L 1371.25 425 L 1371.25 425 L 1375.4 425 L 1375.4 425 L 1379.55 425 L 1379.55 425 L 1383.7 425 L 1383.7 425 L 1387.85 425 L 1387.85 425 L 1392 425 L 1392 425 L 1396.15 425 L 1396.15 425 L 1400.3 425 L 1400.3 425 L 1404.45 425 L 1404.45 425 L 1408.6 425 L 1408.6 425 L 1412.75 425 L 1412.75 425 L 1416.9 425 L 1416.9 425 L 1421.05 425 L 1421.05 425 L 1425.2 425 L 1425.2 425 L 1429.35 425 L 1429.35 425 L 1433.5 425 L 1433.5 425 L 1437.65 425 L 1437.65 425 L 1441.8 425 L 1441.8 425 L 1445.95 425 L 1445.95 425 L 1450.1 425 L 1450.1 425 L 1454.25 425 L 1454.25 425 L 1458.4 425 L 1458.4 425 L 1462.55 425 L 1462.55 425 L 1466.7 425 L 1466.7 425 L 1470.85 425 L 1470.85 425 L 1475 425 L 1475 425" stroke-width="3" stroke-dasharray="" stroke="black" stroke-opacity="1" fill="pink" fill-opacity="1" />
</g>
<g id="Histogram_8" clip-path="url(#Histogram_8_clip)">
    <path d="M 1060 425 L 1060 425 L 1064.15 425 L 1064.15 425 L 1068.3 425 L 1068.3 425 L 1072.45 425 L 1072.45 425 L 1076.6 425 L 1076.6 425 L 1080.75 425 L 1080.75 421 L 1084.9 421 L 1084.9 425 L 1089.05 425 L 1089.05 425 L 1093.2 425 L 1093.2 425 L 1097.35 425 L 1097.35 425 L 1101.5 425 L 1101.5 417 L 1105.65 417 L 1105.65 421 L 1109.8 421 L 1109.8 425 L 1113.95 425 L 1113.95 425 L 1118.1 425 L 1118.1 425 L 1122.25 425 L 1122.25 417 L 1126.4 417 L 1126.4 421 L 1130.55 421 L 1130.55 417 L 1134.7 417 L 1134.7 421 L 1138.85 421 L 1138.85 425 L 1143 425 L 1143 421 L 1147.15 421 L 1147.15 425 L 1151.3 425 L 1151.3 421 L 1155.45 421 L 1155.45 425 L 1159.6 425 L 1159.6 421 L 1163.75 421 L 1163.75 413 L 1167.9 413 L 1167.9 421 L 1172.05 421 L 1172.05 421 L 1176.2 421 L 1176.2 425 L 1180.35 425 L 1180.35 417 L 1184.5 417 L 1184.5 421 L 1188.65 421 L 1188.65 421 L 1192.8 421 L 1192.8 421 L 1196.95 421 L 1196.95 425 L 1201.1 425 L 1201.1 417 L 1205.25 417 L 1205.25 421 L 1209.4 421 L 1209.4 409 L 1213.55 409 L 1213.55 417 L 1217.7 417 L 1217.7 413 L 1221.85 413 L 1221.85 417 L 1226 417 L 1226 417 L 1230.15 417 L 1230.15 393 L 1234.3 393 L 1234.3 417 L 1238.45 417 L 1238.45 417 L 1242.6 417 L 1242.6 425 L 1246.75 425 L 1246.75 413 L 1250.9 413 L 1250.9 409 L 1255.05 409 L 1255.05 421 L 1259.2 421 L 1259.2 417 L 1263.35 417 L 1263.35 421 L 1267.5 421 L 1267.5 421 L 1271.65 421 L 1271.65 421 L 1275.8 421 L 1275.8 425 L 1279.95 425 L 1279.95 421 L 1284.1 421 L 1284.1 425 L 1288.25 425 L 1288.25 425 L 1292.4 425 L 1292.4 425 L 1296.55 425 L 1296.55 425 L 1300.7 425 L 1300.7 425 L 1304.85 425 L 1304.85 425 L 1309 425 L 1309 425 L 1313.15 425 L 1313.15 425 L 1317.3 425 L 1317.3 425 L 1321.45 425 L 1321.45 425 L 1325.6 425 L 1325.6 425 L 1329.75 425 L 1329.75 425 L 1333.9 425 L 1333.9 425 L 1338.05 425 L 1338.05 425 L 1342.2 425 L 1342.2 425 L 1346.35 425 L 1346.35 425 L 1350.5 425 L 1350.5 425 L 1354.65 425 L 1354.65 425 L 1358.8 425 L 1358.8 425 L 1362.95 425 L 1362.95 425 L 1367.1 425 L 1367.1 425 L 1371.25 425 L 1371.25 425 L 1375.4 425 L 1375.4 425 L 1379.55 425 L 1379.55 425 L 1383.7 425 L 1383.7 425 L 1387.85 425 L 1387.85 425 L 1392 425 L 1392 425 L 1396.15 425 L 1396.15 425 L 1400.3 425 L 1400.3 425 L 1404.45 425 L 1404.45 425 L 1408.6 425 L 1408.6 425 L 1412.75 425 L 1412.75 425 L 1416.9 425 L 1416.9 425 L 1421.05 425 L 1421.05 425 L 1425.2 425 L 1425.2 425 L 1429.35 425 L 1429.35 425 L 1433.5 425 L 1433.5 425 L 1437.65 425 L 1437.65 425 L 1441.8 425 L 1441.8 425 L 1445.95 425 L 1445.95 425 L 1450.1 425 L 1450.1 425 L 1454.25 425 L 1454.25 425 L 1458.4 425 L 1458.4 425 L 1462.55 425 L 1462.55 425 L 1466.7 425 L 1466.7 425 L 1470.85 425 L 1470.85 425 L 1475 425 L 1475 425" stroke-width="3" stroke-dasharray="" stroke="black" stroke-opacity="1" fill="red" fill-opacity="1" />
</g>
<g id="frame_2">
    <rect id="frame_2_border" x="1060" y="25" width="415" height="400" />
    <text id="frame_2_bottomlabel" font-size="30" transform="translate(1267.5, 485)" text-anchor="middle" dominant-baseline="middle" stroke="none" fill="black">eigenbasis direction 3</text>
    <g id="frame_2_bottomticks">
        <path d="M 1267.5 425 L 1267.5 405" />
        <text font-size="30" transform="translate(1267.5, 455)" text-anchor="middle" dominant-baseline="middle" stroke="none" fill="black">0</text>
        <path d="M 1277.88 425 L 1277.88 415" />
        <path d="M 1288.25 425 L 1288.25 415" />
        <path d="M 1298.63 425 L 1298.63 415" />
        <path d="M 1309 425 L 1309 415" />
        <path d="M 1319.38 425 L 1319.38 405" />
        <text font-size="30" transform="translate(1319.38, 455)" text-anchor="middle" dominant-baseline="middle" stroke="none" fill="black">5</text>
        <path d="M 1329.75 425 L 1329.75 415" />
        <path d="M 1340.13 425 L 1340.13 415" />
        <path d="M 1350.5 425 L 1350.5 415" />
        <path d="M 1360.88 425 L 1360.88 415" />
        <path d="M 1371.25 425 L 1371.25 405" />
        <text font-size="30" transform="translate(1371.25, 455)" text-anchor="middle" dominant-baseline="middle" stroke="none" fill="black">10</text>
        <path d="M 1381.63 425 L 1381.63 415" />
        <path d="M 1392 425 L 1392 415" />
        <path d="M 1402.38 425 L 1402.38 415" />
        <path d="M 1412.75 425 L 1412.75 415" />
        <path d="M 1423.13 425 L 1423.13 405" />
        <text font-size="30" transform="translate(1423.13, 455)" text-anchor="middle" dominant-baseline="middle" stroke="none" fill="black">15</text>
        <path d="M 1433.5 425 L 1433.5 415" />
        <path d="M 1443.88 425 L 1443.88 415" />
        <path d="M 1454.25 425 L 1454.25 415" />
        <path d="M 1464.63 425 L 1464.63 415" />
        <path d="M 1246.75 425 L 1246.75 415" />
        <path d="M 1060 425 L 1060 405" />
        <text font-size="30" transform="translate(1060, 455)" text-anchor="middle" dominant-baseline="middle" stroke="none" fill="black">‒20</text>
        <path d="M 1070.38 425 L 1070.38 415" />
        <path d="M 1080.75 425 L 1080.75 415" />
        <path d="M 1091.12 425 L 1091.12 415" />
        <path d="M 1101.5 425 L 1101.5 415" />
        <path d="M 1111.88 425 L 1111.88 405" />
        <text font-size="30" transform="translate(1111.88, 455)" text-anchor="middle" dominant-baseline="middle" stroke="none" fill="black">‒15</text>
        <path d="M 1122.25 425 L 1122.25 415" />
        <path d="M 1132.63 425 L 1132.63 415" />
        <path d="M 1143 425 L 1143 415" />
        <path d="M 1153.38 425 L 1153.38 415" />
        <path d="M 1163.75 425 L 1163.75 405" />
        <text font-size="30" transform="translate(1163.75, 455)" text-anchor="middle" dominant-baseline="middle" stroke="none" fill="black">‒10</text>
        <path d="M 1174.13 425 L 1174.13 415" />
        <path d="M 1184.5 425 L 1184.5 415" />
        <path d="M 1194.88 425 L 1194.88 415" />
        <path d="M 1205.25 425 L 1205.25 415" />
        <path d="M 1215.63 425 L 1215.63 405" />
        <text font-size="30" transform="translate(1215.63, 455)" text-anchor="middle" dominant-baseline="middle" stroke="none" fill="black">‒5</text>
        <path d="M 1226 425 L 1226 415" />
        <path d="M 1236.38 425 L 1236.38 415" />
        <path d="M 1257.13 425 L 1257.13 415" />
        <path d="M 1475 425 L 1475 405" />
        <text font-size="30" transform="translate(1475, 455)" text-anchor="middle" dominant-baseline="middle" stroke="none" fill="black">20</text>
    </g>
    <g id="frame_2_leftticks">
        <path d="M 1060 425 L 1080 425" />
        <text font-size="30" transform="translate(1050, 435)" text-anchor="end" dominant-baseline="middle" stroke="none" fill="black">0</text>
        <path d="M 1060 25 L 1080 25" />
        <text font-size="30" transform="translate(1050, 35)" text-anchor="end" dominant-baseline="middle" stroke="none" fill="black">100</text>
        <path d="M 1060 145 L 1070 145" />
        <path d="M 1060 265 L 1080 265" />
        <text font-size="30" transform="translate(1050, 275)" text-anchor="end" dominant-baseline="middle" stroke="none" fill="black">40</text>
        <path d="M 1060 385 L 1070 385" />
        <path d="M 1060 105 L 1080 105" />
        <text font-size="30" transform="translate(1050, 115)" text-anchor="end" dominant-baseline="middle" stroke="none" fill="black">80</text>
        <path d="M 1060 225 L 1070 225" />
        <path d="M 1060 345 L 1080 345" />
        <text font-size="30" transform="translate(1050, 355)" text-anchor="end" dominant-baseline="middle" stroke="none" fill="black">20</text>
        <path d="M 1060 65 L 1070 65" />
        <path d="M 1060 185 L 1080 185" />
        <text font-size="30" transform="translate(1050, 195)" text-anchor="end" dominant-baseline="middle" stroke="none" fill="black">60</text>
        <path d="M 1060 305 L 1070 305" />
    </g>
    <g id="frame_2_topticks">
        <path d="M 1267.5 25 L 1267.5 45" />
        <path d="M 1277.88 25 L 1277.88 35" />
        <path d="M 1288.25 25 L 1288.25 35" />
        <path d="M 1298.63 25 L 1298.63 35" />
        <path d="M 1309 25 L 1309 35" />
        <path d="M 1319.38 25 L 1319.38 45" />
        <path d="M 1329.75 25 L 1329.75 35" />
        <path d="M 1340.13 25 L 1340.13 35" />
        <path d="M 1350.5 25 L 1350.5 35" />
        <path d="M 1360.88 25 L 1360.88 35" />
        <path d="M 1371.25 25 L 1371.25 45" />
        <path d="M 1381.63 25 L 1381.63 35" />
        <path d="M 1392 25 L 1392 35" />
        <path d="M 1402.38 25 L 1402.38 35" />
        <path d="M 1412.75 25 L 1412.75 35" />
        <path d="M 1423.13 25 L 1423.13 45" />
        <path d="M 1433.5 25 L 1433.5 35" />
        <path d="M 1443.88 25 L 1443.88 35" />
        <path d="M 1454.25 25 L 1454.25 35" />
        <path d="M 1464.63 25 L 1464.63 35" />
        <path d="M 1246.75 25 L 1246.75 35" />
        <path d="M 1060 25 L 1060 45" />
        <path d="M 1070.38 25 L 1070.38 35" />
        <path d="M 1080.75 25 L 1080.75 35" />
        <path d="M 1091.12 25 L 1091.12 35" />
        <path d="M 1101.5 25 L 1101.5 35" />
        <path d="M 1111.88 25 L 1111.88 45" />
        <path d="M 1122.25 25 L 1122.25 35" />
        <path d="M 1132.63 25 L 1132.63 35" />
        <path d="M 1143 25 L 1143 35" />
        <path d="M 1153.38 25 L 1153.38 35" />
        <path d="M 1163.75 25 L 1163.75 45" />
        <path d="M 1174.13 25 L 1174.13 35" />
        <path d="M 1184.5 25 L 1184.5 35" />
        <path d="M 1194.88 25 L 1194.88 35" />
        <path d="M 1205.25 25 L 1205.25 35" />
        <path d="M 1215.63 25 L 1215.63 45" />
        <path d="M 1226 25 L 1226 35" />
        <path d="M 1236.38 25 L 1236.38 35" />
        <path d="M 1257.13 25 L 1257.13 35" />
        <path d="M 1475 25 L 1475 45" />
    </g>
    <g id="frame_2_rightticks">
        <path d="M 1475 425 L 1455 425" />
        <path d="M 1475 25 L 1455 25" />
        <path d="M 1475 145 L 1465 145" />
        <path d="M 1475 265 L 1455 265" />
        <path d="M 1475 385 L 1465 385" />
        <path d="M 1475 105 L 1455 105" />
        <path d="M 1475 225 L 1465 225" />
        <path d="M 1475 345 L 1455 345" />
        <path d="M 1475 65 L 1465 65" />
        <path d="M 1475 185 L 1455 185" />
        <path d="M 1475 305 L 1465 305" />
    </g>
</g>
<g id="Histogram_9" clip-path="url(#Histogram_9_clip)">
    <path d="M 60 925 L 60 925 L 64.15 925 L 64.15 925 L 68.3 925 L 68.3 925 L 72.45 925 L 72.45 925 L 76.6 925 L 76.6 925 L 80.75 925 L 80.75 925 L 84.9 925 L 84.9 925 L 89.05 925 L 89.05 925 L 93.2 925 L 93.2 925 L 97.35 925 L 97.35 925 L 101.5 925 L 101.5 925 L 105.65 925 L 105.65 925 L 109.8 925 L 109.8 925 L 113.95 925 L 113.95 925 L 118.1 925 L 118.1 925 L 122.25 925 L 122.25 925 L 126.4 925 L 126.4 925 L 130.55 925 L 130.55 925 L 134.7 925 L 134.7 925 L 138.85 925 L 138.85 925 L 143 925 L 143 925 L 147.15 925 L 147.15 925 L 151.3 925 L 151.3 925 L 155.45 925 L 155.45 925 L 159.6 925 L 159.6 925 L 163.75 925 L 163.75 925 L 167.9 925 L 167.9 917 L 172.05 917 L 172.05 913 L 176.2 913 L 176.2 901 L 180.35 901 L 180.35 897 L 184.5 897 L 184.5 901 L 188.65 901 L 188.65 893 L 192.8 893 L 192.8 901 L 196.95 901 L 196.95 841 L 201.1 841 L 201.1 813 L 205.25 813 L 205.25 829 L 209.4 829 L 209.4 793 L 213.55 793 L 213.55 713 L 217.7 713 L 217.7 613 L 221.85 613 L 221.85 441 L 226 441 L 226 357 L 230.15 357 L 230.15 165 L 234.3 165 L 234.3 -99 L 238.45 -99 L 238.45 -375 L 242.6 -375 L 242.6 -635 L 246.75 -635 L 246.75 -1671 L 250.9 -1671 L 250.9 -5171 L 255.05 -5171 L 255.05 -18339 L 259.2 -18339 L 259.2 -54567 L 263.35 -54567 L 263.35 -103927 L 267.5 -103927 L 267.5 -103079 L 271.65 -103079 L 271.65 -53199 L 275.8 -53199 L 275.8 -15887 L 279.95 -15887 L 279.95 -3799 L 284.1 -3799 L 284.1 -1219 L 288.25 -1219 L 288.25 -703 L 292.4 -703 L 292.4 -447 L 296.55 -447 L 296.55 -271 L 300.7 -271 L 300.7 17 L 304.85 17 L 304.85 45 L 309 45 L 309 309 L 313.15 309 L 313.15 345 L 317.3 345 L 317.3 441 L 321.45 441 L 321.45 445 L 325.6 445 L 325.6 645 L 329.75 645 L 329.75 673 L 333.9 673 L 333.9 777 L 338.05 777 L 338.05 809 L 342.2 809 L 342.2 809 L 346.35 809 L 346.35 825 L 350.5 825 L 350.5 865 L 354.65 865 L 354.65 857 L 358.8 857 L 358.8 881 L 362.95 881 L 362.95 881 L 367.1 881 L 367.1 905 L 371.25 905 L 371.25 917 L 375.4 917 L 375.4 893 L 379.55 893 L 379.55 913 L 383.7 913 L 383.7 917 L 387.85 917 L 387.85 925 L 392 925 L 392 921 L 396.15 921 L 396.15 925 L 400.3 925 L 400.3 925 L 404.45 925 L 404.45 921 L 408.6 921 L 408.6 925 L 412.75 925 L 412.75 921 L 416.9 921 L 416.9 921 L 421.05 921 L 421.05 921 L 425.2 921 L 425.2 925 L 429.35 925 L 429.35 925 L 433.5 925 L 433.5 925 L 437.65 925 L 437.65 925 L 441.8 925 L 441.8 921 L 445.95 921 L 445.95 925 L 450.1 925 L 450.1 925 L 454.25 925 L 454.25 925 L 458.4 925 L 458.4 925 L 462.55 925 L 462.55 925 L 466.7 925 L 466.7 921 L 470.85 921 L 470.85 925 L 475 925 L 475 925" stroke-width="3" stroke-dasharray="" stroke="black" stroke-opacity="1" fill="lightgray" fill-opacity="1" />
</g>
<g id="Histogram_10" clip-path="url(#Histogram_10_clip)">
    <path d="M 60 925 L 60 925 L 64.15 925 L 64.15 925 L 68.3 925 L 68.3 925 L 72.45 925 L 72.45 925 L 76.6 925 L 76.6 925 L 80.75 925 L 80.75 925 L 84.9 925 L 84.9 925 L 89.05 925 L 89.05 925 L 93.2 925 L 93.2 925 L 97.35 925 L 97.35 925 L 101.5 925 L 101.5 925 L 105.65 925 L 105.65 925 L 109.8 925 L 109.8 925 L 113.95 925 L 113.95 925 L 118.1 925 L 118.1 925 L 122.25 925 L 122.25 925 L 126.4 925 L 126.4 925 L 130.55 925 L 130.55 925 L 134.7 925 L 134.7 925 L 138.85 925 L 138.85 925 L 143 925 L 143 925 L 147.15 925 L 147.15 925 L 151.3 925 L 151.3 925 L 155.45 925 L 155.45 925 L 159.6 925 L 159.6 925 L 163.75 925 L 163.75 925 L 167.9 925 L 167.9 925 L 172.05 925 L 172.05 925 L 176.2 925 L 176.2 925 L 180.35 925 L 180.35 925 L 184.5 925 L 184.5 925 L 188.65 925 L 188.65 925 L 192.8 925 L 192.8 925 L 196.95 925 L 196.95 925 L 201.1 925 L 201.1 925 L 205.25 925 L 205.25 925 L 209.4 925 L 209.4 925 L 213.55 925 L 213.55 925 L 217.7 925 L 217.7 925 L 221.85 925 L 221.85 925 L 226 925 L 226 925 L 230.15 925 L 230.15 925 L 234.3 925 L 234.3 925 L 238.45 925 L 238.45 925 L 242.6 925 L 242.6 925 L 246.75 925 L 246.75 913 L 250.9 913 L 250.9 897 L 255.05 897 L 255.05 873 L 259.2 873 L 259.2 665 L 263.35 665 L 263.35 449 L 267.5 449 L 267.5 241 L 271.65 241 L 271.65 477 L 275.8 477 L 275.8 725 L 279.95 725 L 279.95 801 L 284.1 801 L 284.1 897 L 288.25 897 L 288.25 901 L 292.4 901 L 292.4 873 L 296.55 873 L 296.55 897 L 300.7 897 L 300.7 917 L 304.85 917 L 304.85 921 L 309 921 L 309 917 L 313.15 917 L 313.15 921 L 317.3 921 L 317.3 913 L 321.45 913 L 321.45 913 L 325.6 913 L 325.6 917 L 329.75 917 L 329.75 925 L 333.9 925 L 333.9 925 L 338.05 925 L 338.05 921 L 342.2 921 L 342.2 913 L 346.35 913 L 346.35 921 L 350.5 921 L 350.5 917 L 354.65 917 L 354.65 925 L 358.8 925 L 358.8 925 L 362.95 925 L 362.95 917 L 367.1 917 L 367.1 917 L 371.25 917 L 371.25 921 L 375.4 921 L 375.4 921 L 379.55 921 L 379.55 925 L 383.7 925 L 383.7 925 L 387.85 925 L 387.85 925 L 392 925 L 392 921 L 396.15 921 L 396.15 925 L 400.3 925 L 400.3 925 L 404.45 925 L 404.45 921 L 408.6 921 L 408.6 925 L 412.75 925 L 412.75 921 L 416.9 921 L 416.9 921 L 421.05 921 L 421.05 921 L 425.2 921 L 425.2 925 L 429.35 925 L 429.35 925 L 433.5 925 L 433.5 925 L 437.65 925 L 437.65 925 L 441.8 925 L 441.8 921 L 445.95 921 L 445.95 925 L 450.1 925 L 450.1 925 L 454.25 925 L 454.25 925 L 458.4 925 L 458.4 925 L 462.55 925 L 462.55 925 L 466.7 925 L 466.7 921 L 470.85 921 L 470.85 925 L 475 925 L 475 925" stroke-width="3" stroke-dasharray="" stroke="black" stroke-opacity="1" fill="pink" fill-opacity="1" />
</g>
<g id="Histogram_11" clip-path="url(#Histogram_11_clip)">
    <path d="M 60 925 L 60 925 L 64.15 925 L 64.15 925 L 68.3 925 L 68.3 925 L 72.45 925 L 72.45 925 L 76.6 925 L 76.6 925 L 80.75 925 L 80.75 925 L 84.9 925 L 84.9 925 L 89.05 925 L 89.05 925 L 93.2 925 L 93.2 925 L 97.35 925 L 97.35 925 L 101.5 925 L 101.5 925 L 105.65 925 L 105.65 925 L 109.8 925 L 109.8 925 L 113.95 925 L 113.95 925 L 118.1 925 L 118.1 925 L 122.25 925 L 122.25 925 L 126.4 925 L 126.4 925 L 130.55 925 L 130.55 925 L 134.7 925 L 134.7 925 L 138.85 925 L 138.85 925 L 143 925 L 143 925 L 147.15 925 L 147.15 925 L 151.3 925 L 151.3 925 L 155.45 925 L 155.45 925 L 159.6 925 L 159.6 925 L 163.75 925 L 163.75 925 L 167.9 925 L 167.9 925 L 172.05 925 L 172.05 925 L 176.2 925 L 176.2 925 L 180.35 925 L 180.35 925 L 184.5 925 L 184.5 925 L 188.65 925 L 188.65 925 L 192.8 925 L 192.8 925 L 196.95 925 L 196.95 925 L 201.1 925 L 201.1 925 L 205.25 925 L 205.25 925 L 209.4 925 L 209.4 925 L 213.55 925 L 213.55 925 L 217.7 925 L 217.7 925 L 221.85 925 L 221.85 925 L 226 925 L 226 925 L 230.15 925 L 230.15 925 L 234.3 925 L 234.3 925 L 238.45 925 L 238.45 925 L 242.6 925 L 242.6 925 L 246.75 925 L 246.75 925 L 250.9 925 L 250.9 921 L 255.05 921 L 255.05 925 L 259.2 925 L 259.2 925 L 263.35 925 L 263.35 925 L 267.5 925 L 267.5 925 L 271.65 925 L 271.65 925 L 275.8 925 L 275.8 913 L 279.95 913 L 279.95 893 L 284.1 893 L 284.1 921 L 288.25 921 L 288.25 913 L 292.4 913 L 292.4 885 L 296.55 885 L 296.55 901 L 300.7 901 L 300.7 917 L 304.85 917 L 304.85 921 L 309 921 L 309 917 L 313.15 917 L 313.15 921 L 317.3 921 L 317.3 917 L 321.45 917 L 321.45 917 L 325.6 917 L 325.6 917 L 329.75 917 L 329.75 925 L 333.9 925 L 333.9 925 L 338.05 925 L 338.05 921 L 342.2 921 L 342.2 913 L 346.35 913 L 346.35 921 L 350.5 921 L 350.5 917 L 354.65 917 L 354.65 925 L 358.8 925 L 358.8 925 L 362.95 925 L 362.95 917 L 367.1 917 L 367.1 917 L 371.25 917 L 371.25 921 L 375.4 921 L 375.4 921 L 379.55 921 L 379.55 925 L 383.7 925 L 383.7 925 L 387.85 925 L 387.85 925 L 392 925 L 392 921 L 396.15 921 L 396.15 925 L 400.3 925 L 400.3 925 L 404.45 925 L 404.45 921 L 408.6 921 L 408.6 925 L 412.75 925 L 412.75 921 L 416.9 921 L 416.9 921 L 421.05 921 L 421.05 921 L 425.2 921 L 425.2 925 L 429.35 925 L 429.35 925 L 433.5 925 L 433.5 925 L 437.65 925 L 437.65 925 L 441.8 925 L 441.8 921 L 445.95 921 L 445.95 925 L 450.1 925 L 450.1 925 L 454.25 925 L 454.25 925 L 458.4 925 L 458.4 925 L 462.55 925 L 462.55 925 L 466.7 925 L 466.7 921 L 470.85 921 L 470.85 925 L 475 925 L 475 925" stroke-width="3" stroke-dasharray="" stroke="black" stroke-opacity="1" fill="red" fill-opacity="1" />
</g>
<g id="frame_3">
    <rect id="frame_3_border" x="60" y="525" width="415" height="400" />
    <text id="frame_3_bottomlabel" font-size="30" transform="translate(267.5, 985)" text-anchor="middle" dominant-baseline="middle" stroke="none" fill="black">eigenbasis direction 4</text>
    <g id="frame_3_bottomticks">
        <path d="M 267.5 925 L 267.5 905" />
        <text font-size="30" transform="translate(267.5, 955)" text-anchor="middle" dominant-baseline="middle" stroke="none" fill="black">0</text>
        <path d="M 277.875 925 L 277.875 915" />
        <path d="M 288.25 925 L 288.25 915" />
        <path d="M 298.625 925 L 298.625 915" />
        <path d="M 309 925 L 309 915" />
        <path d="M 319.375 925 L 319.375 905" />
        <text font-size="30" transform="translate(319.375, 955)" text-anchor="middle" dominant-baseline="middle" stroke="none" fill="black">5</text>
        <path d="M 329.75 925 L 329.75 915" />
        <path d="M 340.125 925 L 340.125 915" />
        <path d="M 350.5 925 L 350.5 915" />
        <path d="M 360.875 925 L 360.875 915" />
        <path d="M 371.25 925 L 371.25 905" />
        <text font-size="30" transform="translate(371.25, 955)" text-anchor="middle" dominant-baseline="middle" stroke="none" fill="black">10</text>
        <path d="M 381.625 925 L 381.625 915" />
        <path d="M 392 925 L 392 915" />
        <path d="M 402.375 925 L 402.375 915" />
        <path d="M 412.75 925 L 412.75 915" />
        <path d="M 423.125 925 L 423.125 905" />
        <text font-size="30" transform="translate(423.125, 955)" text-anchor="middle" dominant-baseline="middle" stroke="none" fill="black">15</text>
        <path d="M 433.5 925 L 433.5 915" />
        <path d="M 443.875 925 L 443.875 915" />
        <path d="M 454.25 925 L 454.25 915" />
        <path d="M 464.625 925 L 464.625 915" />
        <path d="M 246.75 925 L 246.75 915" />
        <path d="M 60 925 L 60 905" />
        <text font-size="30" transform="translate(60, 955)" text-anchor="middle" dominant-baseline="middle" stroke="none" fill="black">‒20</text>
        <path d="M 70.375 925 L 70.375 915" />
        <path d="M 80.75 925 L 80.75 915" />
        <path d="M 91.125 925 L 91.125 915" />
        <path d="M 101.5 925 L 101.5 915" />
        <path d="M 111.875 925 L 111.875 905" />
        <text font-size="30" transform="translate(111.875, 955)" text-anchor="middle" dominant-baseline="middle" stroke="none" fill="black">‒15</text>
        <path d="M 122.25 925 L 122.25 915" />
        <path d="M 132.625 925 L 132.625 915" />
        <path d="M 143 925 L 143 915" />
        <path d="M 153.375 925 L 153.375 915" />
        <path d="M 163.75 925 L 163.75 905" />
        <text font-size="30" transform="translate(163.75, 955)" text-anchor="middle" dominant-baseline="middle" stroke="none" fill="black">‒10</text>
        <path d="M 174.125 925 L 174.125 915" />
        <path d="M 184.5 925 L 184.5 915" />
        <path d="M 194.875 925 L 194.875 915" />
        <path d="M 205.25 925 L 205.25 915" />
        <path d="M 215.625 925 L 215.625 905" />
        <text font-size="30" transform="translate(215.625, 955)" text-anchor="middle" dominant-baseline="middle" stroke="none" fill="black">‒5</text>
        <path d="M 226 925 L 226 915" />
        <path d="M 236.375 925 L 236.375 915" />
        <path d="M 257.125 925 L 257.125 915" />
        <path d="M 475 925 L 475 905" />
        <text font-size="30" transform="translate(475, 955)" text-anchor="middle" dominant-baseline="middle" stroke="none" fill="black">20</text>
    </g>
    <g id="frame_3_leftticks">
        <path d="M 60 925 L 80 925" />
        <text font-size="30" transform="translate(50, 935)" text-anchor="end" dominant-baseline="middle" stroke="none" fill="black">0</text>
        <path d="M 60 525 L 80 525" />
        <text font-size="30" transform="translate(50, 535)" text-anchor="end" dominant-baseline="middle" stroke="none" fill="black">100</text>
        <path d="M 60 645 L 70 645" />
        <path d="M 60 765 L 80 765" />
        <text font-size="30" transform="translate(50, 775)" text-anchor="end" dominant-baseline="middle" stroke="none" fill="black">40</text>
        <path d="M 60 885 L 70 885" />
        <path d="M 60 605 L 80 605" />
        <text font-size="30" transform="translate(50, 615)" text-anchor="end" dominant-baseline="middle" stroke="none" fill="black">80</text>
        <path d="M 60 725 L 70 725" />
        <path d="M 60 845 L 80 845" />
        <text font-size="30" transform="translate(50, 855)" text-anchor="end" dominant-baseline="middle" stroke="none" fill="black">20</text>
        <path d="M 60 565 L 70 565" />
        <path d="M 60 685 L 80 685" />
        <text font-size="30" transform="translate(50, 695)" text-anchor="end" dominant-baseline="middle" stroke="none" fill="black">60</text>
        <path d="M 60 805 L 70 805" />
    </g>
    <g id="frame_3_topticks">
        <path d="M 267.5 525 L 267.5 545" />
        <path d="M 277.875 525 L 277.875 535" />
        <path d="M 288.25 525 L 288.25 535" />
        <path d="M 298.625 525 L 298.625 535" />
        <path d="M 309 525 L 309 535" />
        <path d="M 319.375 525 L 319.375 545" />
        <path d="M 329.75 525 L 329.75 535" />
        <path d="M 340.125 525 L 340.125 535" />
        <path d="M 350.5 525 L 350.5 535" />
        <path d="M 360.875 525 L 360.875 535" />
        <path d="M 371.25 525 L 371.25 545" />
        <path d="M 381.625 525 L 381.625 535" />
        <path d="M 392 525 L 392 535" />
        <path d="M 402.375 525 L 402.375 535" />
        <path d="M 412.75 525 L 412.75 535" />
        <path d="M 423.125 525 L 423.125 545" />
        <path d="M 433.5 525 L 433.5 535" />
        <path d="M 443.875 525 L 443.875 535" />
        <path d="M 454.25 525 L 454.25 535" />
        <path d="M 464.625 525 L 464.625 535" />
        <path d="M 246.75 525 L 246.75 535" />
        <path d="M 60 525 L 60 545" />
        <path d="M 70.375 525 L 70.375 535" />
        <path d="M 80.75 525 L 80.75 535" />
        <path d="M 91.125 525 L 91.125 535" />
        <path d="M 101.5 525 L 101.5 535" />
        <path d="M 111.875 525 L 111.875 545" />
        <path d="M 122.25 525 L 122.25 535" />
        <path d="M 132.625 525 L 132.625 535" />
        <path d="M 143 525 L 143 535" />
        <path d="M 153.375 525 L 153.375 535" />
        <path d="M 163.75 525 L 163.75 545" />
        <path d="M 174.125 525 L 174.125 535" />
        <path d="M 184.5 525 L 184.5 535" />
        <path d="M 194.875 525 L 194.875 535" />
        <path d="M 205.25 525 L 205.25 535" />
        <path d="M 215.625 525 L 215.625 545" />
        <path d="M 226 525 L 226 535" />
        <path d="M 236.375 525 L 236.375 535" />
        <path d="M 257.125 525 L 257.125 535" />
        <path d="M 475 525 L 475 545" />
    </g>
    <g id="frame_3_rightticks">
        <path d="M 475 925 L 455 925" />
        <path d="M 475 525 L 455 525" />
        <path d="M 475 645 L 465 645" />
        <path d="M 475 765 L 455 765" />
        <path d="M 475 885 L 465 885" />
        <path d="M 475 605 L 455 605" />
        <path d="M 475 725 L 465 725" />
        <path d="M 475 845 L 455 845" />
        <path d="M 475 565 L 465 565" />
        <path d="M 475 685 L 455 685" />
        <path d="M 475 805 L 465 805" />
    </g>
</g>
<g id="Histogram_12" clip-path="url(#Histogram_12_clip)">
    <path d="M 560 925 L 560 925 L 564.15 925 L 564.15 925 L 568.3 925 L 568.3 925 L 572.45 925 L 572.45 925 L 576.6 925 L 576.6 925 L 580.75 925 L 580.75 925 L 584.9 925 L 584.9 925 L 589.05 925 L 589.05 925 L 593.2 925 L 593.2 925 L 597.35 925 L 597.35 925 L 601.5 925 L 601.5 925 L 605.65 925 L 605.65 925 L 609.8 925 L 609.8 925 L 613.95 925 L 613.95 925 L 618.1 925 L 618.1 925 L 622.25 925 L 622.25 925 L 626.4 925 L 626.4 925 L 630.55 925 L 630.55 925 L 634.7 925 L 634.7 925 L 638.85 925 L 638.85 925 L 643 925 L 643 925 L 647.15 925 L 647.15 925 L 651.3 925 L 651.3 925 L 655.45 925 L 655.45 925 L 659.6 925 L 659.6 925 L 663.75 925 L 663.75 925 L 667.9 925 L 667.9 925 L 672.05 925 L 672.05 925 L 676.2 925 L 676.2 925 L 680.35 925 L 680.35 925 L 684.5 925 L 684.5 925 L 688.65 925 L 688.65 925 L 692.8 925 L 692.8 925 L 696.95 925 L 696.95 925 L 701.1 925 L 701.1 925 L 705.25 925 L 705.25 925 L 709.4 925 L 709.4 925 L 713.55 925 L 713.55 925 L 717.7 925 L 717.7 925 L 721.85 925 L 721.85 925 L 726 925 L 726 925 L 730.15 925 L 730.15 925 L 734.3 925 L 734.3 925 L 738.45 925 L 738.45 925 L 742.6 925 L 742.6 925 L 746.75 925 L 746.75 925 L 750.9 925 L 750.9 925 L 755.05 925 L 755.05 925 L 759.2 925 L 759.2 925 L 763.35 925 L 763.35 925 L 767.5 925 L 767.5 -385475 L 771.65 -385475 L 771.65 925 L 775.8 925 L 775.8 925 L 779.95 925 L 779.95 925 L 784.1 925 L 784.1 925 L 788.25 925 L 788.25 925 L 792.4 925 L 792.4 925 L 796.55 925 L 796.55 925 L 800.7 925 L 800.7 925 L 804.85 925 L 804.85 925 L 809 925 L 809 925 L 813.15 925 L 813.15 925 L 817.3 925 L 817.3 925 L 821.45 925 L 821.45 925 L 825.6 925 L 825.6 925 L 829.75 925 L 829.75 925 L 833.9 925 L 833.9 925 L 838.05 925 L 838.05 925 L 842.2 925 L 842.2 925 L 846.35 925 L 846.35 925 L 850.5 925 L 850.5 925 L 854.65 925 L 854.65 925 L 858.8 925 L 858.8 925 L 862.95 925 L 862.95 925 L 867.1 925 L 867.1 925 L 871.25 925 L 871.25 925 L 875.4 925 L 875.4 925 L 879.55 925 L 879.55 925 L 883.7 925 L 883.7 925 L 887.85 925 L 887.85 925 L 892 925 L 892 925 L 896.15 925 L 896.15 925 L 900.3 925 L 900.3 925 L 904.45 925 L 904.45 925 L 908.6 925 L 908.6 925 L 912.75 925 L 912.75 925 L 916.9 925 L 916.9 925 L 921.05 925 L 921.05 925 L 925.2 925 L 925.2 925 L 929.35 925 L 929.35 925 L 933.5 925 L 933.5 925 L 937.65 925 L 937.65 925 L 941.8 925 L 941.8 925 L 945.95 925 L 945.95 925 L 950.1 925 L 950.1 925 L 954.25 925 L 954.25 925 L 958.4 925 L 958.4 925 L 962.55 925 L 962.55 925 L 966.7 925 L 966.7 925 L 970.85 925 L 970.85 925 L 975 925 L 975 925" stroke-width="3" stroke-dasharray="" stroke="black" stroke-opacity="1" fill="lightgray" fill-opacity="1" />
</g>
<g id="Histogram_13" clip-path="url(#Histogram_13_clip)">
    <path d="M 560 925 L 560 925 L 564.15 925 L 564.15 925 L 568.3 925 L 568.3 925 L 572.45 925 L 572.45 925 L 576.6 925 L 576.6 925 L 580.75 925 L 580.75 925 L 584.9 925 L 584.9 925 L 589.05 925 L 589.05 925 L 593.2 925 L 593.2 925 L 597.35 925 L 597.35 925 L 601.5 925 L 601.5 925 L 605.65 925 L 605.65 925 L 609.8 925 L 609.8 925 L 613.95 925 L 613.95 925 L 618.1 925 L 618.1 925 L 622.25 925 L 622.25 925 L 626.4 925 L 626.4 925 L 630.55 925 L 630.55 925 L 634.7 925 L 634.7 925 L 638.85 925 L 638.85 925 L 643 925 L 643 925 L 647.15 925 L 647.15 925 L 651.3 925 L 651.3 925 L 655.45 925 L 655.45 925 L 659.6 925 L 659.6 925 L 663.75 925 L 663.75 925 L 667.9 925 L 667.9 925 L 672.05 925 L 672.05 925 L 676.2 925 L 676.2 925 L 680.35 925 L 680.35 925 L 684.5 925 L 684.5 925 L 688.65 925 L 688.65 925 L 692.8 925 L 692.8 925 L 696.95 925 L 696.95 925 L 701.1 925 L 701.1 925 L 705.25 925 L 705.25 925 L 709.4 925 L 709.4 925 L 713.55 925 L 713.55 925 L 717.7 925 L 717.7 925 L 721.85 925 L 721.85 925 L 726 925 L 726 925 L 730.15 925 L 730.15 925 L 734.3 925 L 734.3 925 L 738.45 925 L 738.45 925 L 742.6 925 L 742.6 925 L 746.75 925 L 746.75 925 L 750.9 925 L 750.9 925 L 755.05 925 L 755.05 925 L 759.2 925 L 759.2 925 L 763.35 925 L 763.35 925 L 767.5 925 L 767.5 -1643 L 771.65 -1643 L 771.65 925 L 775.8 925 L 775.8 925 L 779.95 925 L 779.95 925 L 784.1 925 L 784.1 925 L 788.25 925 L 788.25 925 L 792.4 925 L 792.4 925 L 796.55 925 L 796.55 925 L 800.7 925 L 800.7 925 L 804.85 925 L 804.85 925 L 809 925 L 809 925 L 813.15 925 L 813.15 925 L 817.3 925 L 817.3 925 L 821.45 925 L 821.45 925 L 825.6 925 L 825.6 925 L 829.75 925 L 829.75 925 L 833.9 925 L 833.9 925 L 838.05 925 L 838.05 925 L 842.2 925 L 842.2 925 L 846.35 925 L 846.35 925 L 850.5 925 L 850.5 925 L 854.65 925 L 854.65 925 L 858.8 925 L 858.8 925 L 862.95 925 L 862.95 925 L 867.1 925 L 867.1 925 L 871.25 925 L 871.25 925 L 875.4 925 L 875.4 925 L 879.55 925 L 879.55 925 L 883.7 925 L 883.7 925 L 887.85 925 L 887.85 925 L 892 925 L 892 925 L 896.15 925 L 896.15 925 L 900.3 925 L 900.3 925 L 904.45 925 L 904.45 925 L 908.6 925 L 908.6 925 L 912.75 925 L 912.75 925 L 916.9 925 L 916.9 925 L 921.05 925 L 921.05 925 L 925.2 925 L 925.2 925 L 929.35 925 L 929.35 925 L 933.5 925 L 933.5 925 L 937.65 925 L 937.65 925 L 941.8 925 L 941.8 925 L 945.95 925 L 945.95 925 L 950.1 925 L 950.1 925 L 954.25 925 L 954.25 925 L 958.4 925 L 958.4 925 L 962.55 925 L 962.55 925 L 966.7 925 L 966.7 925 L 970.85 925 L 970.85 925 L 975 925 L 975 925" stroke-width="3" stroke-dasharray="" stroke="black" stroke-opacity="1" fill="pink" fill-opacity="1" />
</g>
<g id="Histogram_14" clip-path="url(#Histogram_14_clip)">
    <path d="M 560 925 L 560 925 L 564.15 925 L 564.15 925 L 568.3 925 L 568.3 925 L 572.45 925 L 572.45 925 L 576.6 925 L 576.6 925 L 580.75 925 L 580.75 925 L 584.9 925 L 584.9 925 L 589.05 925 L 589.05 925 L 593.2 925 L 593.2 925 L 597.35 925 L 597.35 925 L 601.5 925 L 601.5 925 L 605.65 925 L 605.65 925 L 609.8 925 L 609.8 925 L 613.95 925 L 613.95 925 L 618.1 925 L 618.1 925 L 622.25 925 L 622.25 925 L 626.4 925 L 626.4 925 L 630.55 925 L 630.55 925 L 634.7 925 L 634.7 925 L 638.85 925 L 638.85 925 L 643 925 L 643 925 L 647.15 925 L 647.15 925 L 651.3 925 L 651.3 925 L 655.45 925 L 655.45 925 L 659.6 925 L 659.6 925 L 663.75 925 L 663.75 925 L 667.9 925 L 667.9 925 L 672.05 925 L 672.05 925 L 676.2 925 L 676.2 925 L 680.35 925 L 680.35 925 L 684.5 925 L 684.5 925 L 688.65 925 L 688.65 925 L 692.8 925 L 692.8 925 L 696.95 925 L 696.95 925 L 701.1 925 L 701.1 925 L 705.25 925 L 705.25 925 L 709.4 925 L 709.4 925 L 713.55 925 L 713.55 925 L 717.7 925 L 717.7 925 L 721.85 925 L 721.85 925 L 726 925 L 726 925 L 730.15 925 L 730.15 925 L 734.3 925 L 734.3 925 L 738.45 925 L 738.45 925 L 742.6 925 L 742.6 925 L 746.75 925 L 746.75 925 L 750.9 925 L 750.9 925 L 755.05 925 L 755.05 925 L 759.2 925 L 759.2 925 L 763.35 925 L 763.35 925 L 767.5 925 L 767.5 653 L 771.65 653 L 771.65 925 L 775.8 925 L 775.8 925 L 779.95 925 L 779.95 925 L 784.1 925 L 784.1 925 L 788.25 925 L 788.25 925 L 792.4 925 L 792.4 925 L 796.55 925 L 796.55 925 L 800.7 925 L 800.7 925 L 804.85 925 L 804.85 925 L 809 925 L 809 925 L 813.15 925 L 813.15 925 L 817.3 925 L 817.3 925 L 821.45 925 L 821.45 925 L 825.6 925 L 825.6 925 L 829.75 925 L 829.75 925 L 833.9 925 L 833.9 925 L 838.05 925 L 838.05 925 L 842.2 925 L 842.2 925 L 846.35 925 L 846.35 925 L 850.5 925 L 850.5 925 L 854.65 925 L 854.65 925 L 858.8 925 L 858.8 925 L 862.95 925 L 862.95 925 L 867.1 925 L 867.1 925 L 871.25 925 L 871.25 925 L 875.4 925 L 875.4 925 L 879.55 925 L 879.55 925 L 883.7 925 L 883.7 925 L 887.85 925 L 887.85 925 L 892 925 L 892 925 L 896.15 925 L 896.15 925 L 900.3 925 L 900.3 925 L 904.45 925 L 904.45 925 L 908.6 925 L 908.6 925 L 912.75 925 L 912.75 925 L 916.9 925 L 916.9 925 L 921.05 925 L 921.05 925 L 925.2 925 L 925.2 925 L 929.35 925 L 929.35 925 L 933.5 925 L 933.5 925 L 937.65 925 L 937.65 925 L 941.8 925 L 941.8 925 L 945.95 925 L 945.95 925 L 950.1 925 L 950.1 925 L 954.25 925 L 954.25 925 L 958.4 925 L 958.4 925 L 962.55 925 L 962.55 925 L 966.7 925 L 966.7 925 L 970.85 925 L 970.85 925 L 975 925 L 975 925" stroke-width="3" stroke-dasharray="" stroke="black" stroke-opacity="1" fill="red" fill-opacity="1" />
</g>
<g id="frame_4">
    <rect id="frame_4_border" x="560" y="525" width="415" height="400" />
    <text id="frame_4_bottomlabel" font-size="30" transform="translate(767.5, 985)" text-anchor="middle" dominant-baseline="middle" stroke="none" fill="black">eigenbasis direction 5</text>
    <g id="frame_4_bottomticks">
        <path d="M 663.75 925 L 663.75 905" />
        <text font-size="30" transform="translate(663.75, 955)" text-anchor="middle" dominant-baseline="middle" stroke="none" fill="black">‒0.5</text>
        <path d="M 767.5 925 L 767.5 905" />
        <text font-size="30" transform="translate(767.5, 955)" text-anchor="middle" dominant-baseline="middle" stroke="none" fill="black">0</text>
        <path d="M 933.5 925 L 933.5 915" />
        <path d="M 809 925 L 809 915" />
        <path d="M 788.25 925 L 788.25 915" />
        <path d="M 622.25 925 L 622.25 915" />
        <path d="M 892 925 L 892 915" />
        <path d="M 829.75 925 L 829.75 915" />
        <path d="M 580.75 925 L 580.75 915" />
        <path d="M 726 925 L 726 915" />
        <path d="M 560 925 L 560 905" />
        <text font-size="30" transform="translate(560, 955)" text-anchor="middle" dominant-baseline="middle" stroke="none" fill="black">‒1</text>
        <path d="M 954.25 925 L 954.25 915" />
        <path d="M 705.25 925 L 705.25 915" />
        <path d="M 975 925 L 975 905" />
        <text font-size="30" transform="translate(975, 955)" text-anchor="middle" dominant-baseline="middle" stroke="none" fill="black">1</text>
        <path d="M 850.5 925 L 850.5 915" />
        <path d="M 912.75 925 L 912.75 915" />
        <path d="M 643 925 L 643 915" />
        <path d="M 601.5 925 L 601.5 915" />
        <path d="M 684.5 925 L 684.5 915" />
        <path d="M 746.75 925 L 746.75 915" />
        <path d="M 871.25 925 L 871.25 905" />
        <text font-size="30" transform="translate(871.25, 955)" text-anchor="middle" dominant-baseline="middle" stroke="none" fill="black">0.5</text>
    </g>
    <g id="frame_4_leftticks">
        <path d="M 560 925 L 580 925" />
        <text font-size="30" transform="translate(550, 935)" text-anchor="end" dominant-baseline="middle" stroke="none" fill="black">0</text>
        <path d="M 560 525 L 580 525" />
        <text font-size="30" transform="translate(550, 535)" text-anchor="end" dominant-baseline="middle" stroke="none" fill="black">100</text>
        <path d="M 560 645 L 570 645" />
        <path d="M 560 765 L 580 765" />
        <text font-size="30" transform="translate(550, 775)" text-anchor="end" dominant-baseline="middle" stroke="none" fill="black">40</text>
        <path d="M 560 885 L 570 885" />
        <path d="M 560 605 L 580 605" />
        <text font-size="30" transform="translate(550, 615)" text-anchor="end" dominant-baseline="middle" stroke="none" fill="black">80</text>
        <path d="M 560 725 L 570 725" />
        <path d="M 560 845 L 580 845" />
        <text font-size="30" transform="translate(550, 855)" text-anchor="end" dominant-baseline="middle" stroke="none" fill="black">20</text>
        <path d="M 560 565 L 570 565" />
        <path d="M 560 685 L 580 685" />
        <text font-size="30" transform="translate(550, 695)" text-anchor="end" dominant-baseline="middle" stroke="none" fill="black">60</text>
        <path d="M 560 805 L 570 805" />
    </g>
    <g id="frame_4_topticks">
        <path d="M 663.75 525 L 663.75 545" />
        <path d="M 767.5 525 L 767.5 545" />
        <path d="M 933.5 525 L 933.5 535" />
        <path d="M 809 525 L 809 535" />
        <path d="M 788.25 525 L 788.25 535" />
        <path d="M 622.25 525 L 622.25 535" />
        <path d="M 892 525 L 892 535" />
        <path d="M 829.75 525 L 829.75 535" />
        <path d="M 580.75 525 L 580.75 535" />
        <path d="M 726 525 L 726 535" />
        <path d="M 560 525 L 560 545" />
        <path d="M 954.25 525 L 954.25 535" />
        <path d="M 705.25 525 L 705.25 535" />
        <path d="M 975 525 L 975 545" />
        <path d="M 850.5 525 L 850.5 535" />
        <path d="M 912.75 525 L 912.75 535" />
        <path d="M 643 525 L 643 535" />
        <path d="M 601.5 525 L 601.5 535" />
        <path d="M 684.5 525 L 684.5 535" />
        <path d="M 746.75 525 L 746.75 535" />
        <path d="M 871.25 525 L 871.25 545" />
    </g>
    <g id="frame_4_rightticks">
        <path d="M 975 925 L 955 925" />
        <path d="M 975 525 L 955 525" />
        <path d="M 975 645 L 965 645" />
        <path d="M 975 765 L 955 765" />
        <path d="M 975 885 L 965 885" />
        <path d="M 975 605 L 955 605" />
        <path d="M 975 725 L 965 725" />
        <path d="M 975 845 L 955 845" />
        <path d="M 975 565 L 965 565" />
        <path d="M 975 685 L 955 685" />
        <path d="M 975 805 L 965 805" />
    </g>
</g>
<g id="Legend_0">
    <rect x="560" y="525" width="415" height="115" stroke-width="3" stroke-dasharray="" stroke="black" stroke-opacity="1" fill="white" fill-opacity="1" />
    <g id="Legend_0_content" clip-path="url(#Legend_0_clip)">
        <rect x="579.75" y="533.75" width="52.5" height="26.25" stroke-width="3" stroke-dasharray="" stroke="black" stroke-opacity="1" fill="lightgray" fill-opacity="1" />
        <text font-size="30" transform="translate(652, 560)" text-anchor="start" dominant-baseline="middle" stroke="none" fill="black">all pixels</text>
        <rect x="579.75" y="568.75" width="52.5" height="26.25" stroke-width="3" stroke-dasharray="" stroke="black" stroke-opacity="1" fill="pink" fill-opacity="1" />
        <text font-size="30" transform="translate(652, 595)" text-anchor="start" dominant-baseline="middle" stroke="none" fill="black">wake (broadly defined)</text>
        <rect x="579.75" y="603.75" width="52.5" height="26.25" stroke-width="3" stroke-dasharray="" stroke="black" stroke-opacity="1" fill="red" fill-opacity="1" />
        <text font-size="30" transform="translate(652, 630)" text-anchor="start" dominant-baseline="middle" stroke="none" fill="black">wake (strictly defined)</text>
    </g>
</g>
<g id="Histogram_15" clip-path="url(#Histogram_15_clip)">
    <path d="M 1060 925 L 1060 925 L 1064.15 925 L 1064.15 921 L 1068.3 921 L 1068.3 925 L 1072.45 925 L 1072.45 917 L 1076.6 917 L 1076.6 925 L 1080.75 925 L 1080.75 921 L 1084.9 921 L 1084.9 925 L 1089.05 925 L 1089.05 921 L 1093.2 921 L 1093.2 921 L 1097.35 921 L 1097.35 925 L 1101.5 925 L 1101.5 917 L 1105.65 917 L 1105.65 909 L 1109.8 909 L 1109.8 909 L 1113.95 909 L 1113.95 913 L 1118.1 913 L 1118.1 917 L 1122.25 917 L 1122.25 889 L 1126.4 889 L 1126.4 901 L 1130.55 901 L 1130.55 873 L 1134.7 873 L 1134.7 893 L 1138.85 893 L 1138.85 865 L 1143 865 L 1143 881 L 1147.15 881 L 1147.15 861 L 1151.3 861 L 1151.3 873 L 1155.45 873 L 1155.45 841 L 1159.6 841 L 1159.6 781 L 1163.75 781 L 1163.75 733 L 1167.9 733 L 1167.9 741 L 1172.05 741 L 1172.05 689 L 1176.2 689 L 1176.2 645 L 1180.35 645 L 1180.35 593 L 1184.5 593 L 1184.5 481 L 1188.65 481 L 1188.65 361 L 1192.8 361 L 1192.8 337 L 1196.95 337 L 1196.95 17 L 1201.1 17 L 1201.1 -175 L 1205.25 -175 L 1205.25 -383 L 1209.4 -383 L 1209.4 -683 L 1213.55 -683 L 1213.55 -1191 L 1217.7 -1191 L 1217.7 -1715 L 1221.85 -1715 L 1221.85 -2435 L 1226 -2435 L 1226 -3031 L 1230.15 -3031 L 1230.15 -4123 L 1234.3 -4123 L 1234.3 -5143 L 1238.45 -5143 L 1238.45 -6003 L 1242.6 -6003 L 1242.6 -7311 L 1246.75 -7311 L 1246.75 -8679 L 1250.9 -8679 L 1250.9 -12059 L 1255.05 -12059 L 1255.05 -21967 L 1259.2 -21967 L 1259.2 -45795 L 1263.35 -45795 L 1263.35 -75787 L 1267.5 -75787 L 1267.5 -77187 L 1271.65 -77187 L 1271.65 -44831 L 1275.8 -44831 L 1275.8 -17667 L 1279.95 -17667 L 1279.95 -6359 L 1284.1 -6359 L 1284.1 -2887 L 1288.25 -2887 L 1288.25 -1799 L 1292.4 -1799 L 1292.4 -1115 L 1296.55 -1115 L 1296.55 -771 L 1300.7 -771 L 1300.7 -519 L 1304.85 -519 L 1304.85 -303 L 1309 -303 L 1309 -187 L 1313.15 -187 L 1313.15 -63 L 1317.3 -63 L 1317.3 285 L 1321.45 285 L 1321.45 261 L 1325.6 261 L 1325.6 401 L 1329.75 401 L 1329.75 321 L 1333.9 321 L 1333.9 453 L 1338.05 453 L 1338.05 565 L 1342.2 565 L 1342.2 589 L 1346.35 589 L 1346.35 633 L 1350.5 633 L 1350.5 677 L 1354.65 677 L 1354.65 789 L 1358.8 789 L 1358.8 757 L 1362.95 757 L 1362.95 737 L 1367.1 737 L 1367.1 789 L 1371.25 789 L 1371.25 821 L 1375.4 821 L 1375.4 825 L 1379.55 825 L 1379.55 821 L 1383.7 821 L 1383.7 853 L 1387.85 853 L 1387.85 853 L 1392 853 L 1392 845 L 1396.15 845 L 1396.15 853 L 1400.3 853 L 1400.3 849 L 1404.45 849 L 1404.45 845 L 1408.6 845 L 1408.6 869 L 1412.75 869 L 1412.75 869 L 1416.9 869 L 1416.9 877 L 1421.05 877 L 1421.05 877 L 1425.2 877 L 1425.2 893 L 1429.35 893 L 1429.35 917 L 1433.5 917 L 1433.5 897 L 1437.65 897 L 1437.65 905 L 1441.8 905 L 1441.8 905 L 1445.95 905 L 1445.95 913 L 1450.1 913 L 1450.1 909 L 1454.25 909 L 1454.25 917 L 1458.4 917 L 1458.4 921 L 1462.55 921 L 1462.55 913 L 1466.7 913 L 1466.7 917 L 1470.85 917 L 1470.85 917 L 1475 917 L 1475 925" stroke-width="3" stroke-dasharray="" stroke="black" stroke-opacity="1" fill="lightgray" fill-opacity="1" />
</g>
<g id="Histogram_16" clip-path="url(#Histogram_16_clip)">
    <path d="M 1060 925 L 1060 925 L 1064.15 925 L 1064.15 925 L 1068.3 925 L 1068.3 925 L 1072.45 925 L 1072.45 925 L 1076.6 925 L 1076.6 925 L 1080.75 925 L 1080.75 925 L 1084.9 925 L 1084.9 925 L 1089.05 925 L 1089.05 925 L 1093.2 925 L 1093.2 925 L 1097.35 925 L 1097.35 925 L 1101.5 925 L 1101.5 925 L 1105.65 925 L 1105.65 925 L 1109.8 925 L 1109.8 925 L 1113.95 925 L 1113.95 925 L 1118.1 925 L 1118.1 925 L 1122.25 925 L 1122.25 925 L 1126.4 925 L 1126.4 925 L 1130.55 925 L 1130.55 925 L 1134.7 925 L 1134.7 925 L 1138.85 925 L 1138.85 925 L 1143 925 L 1143 925 L 1147.15 925 L 1147.15 925 L 1151.3 925 L 1151.3 925 L 1155.45 925 L 1155.45 921 L 1159.6 921 L 1159.6 925 L 1163.75 925 L 1163.75 921 L 1167.9 921 L 1167.9 925 L 1172.05 925 L 1172.05 921 L 1176.2 921 L 1176.2 921 L 1180.35 921 L 1180.35 925 L 1184.5 925 L 1184.5 925 L 1188.65 925 L 1188.65 925 L 1192.8 925 L 1192.8 917 L 1196.95 917 L 1196.95 925 L 1201.1 925 L 1201.1 925 L 1205.25 925 L 1205.25 921 L 1209.4 921 L 1209.4 921 L 1213.55 921 L 1213.55 921 L 1217.7 921 L 1217.7 921 L 1221.85 921 L 1221.85 905 L 1226 905 L 1226 905 L 1230.15 905 L 1230.15 873 L 1234.3 873 L 1234.3 917 L 1238.45 917 L 1238.45 881 L 1242.6 881 L 1242.6 877 L 1246.75 877 L 1246.75 869 L 1250.9 869 L 1250.9 841 L 1255.05 841 L 1255.05 781 L 1259.2 781 L 1259.2 701 L 1263.35 701 L 1263.35 685 L 1267.5 685 L 1267.5 613 L 1271.65 613 L 1271.65 653 L 1275.8 653 L 1275.8 721 L 1279.95 721 L 1279.95 717 L 1284.1 717 L 1284.1 801 L 1288.25 801 L 1288.25 813 L 1292.4 813 L 1292.4 833 L 1296.55 833 L 1296.55 909 L 1300.7 909 L 1300.7 889 L 1304.85 889 L 1304.85 901 L 1309 901 L 1309 909 L 1313.15 909 L 1313.15 909 L 1317.3 909 L 1317.3 893 L 1321.45 893 L 1321.45 905 L 1325.6 905 L 1325.6 913 L 1329.75 913 L 1329.75 913 L 1333.9 913 L 1333.9 925 L 1338.05 925 L 1338.05 917 L 1342.2 917 L 1342.2 921 L 1346.35 921 L 1346.35 913 L 1350.5 913 L 1350.5 925 L 1354.65 925 L 1354.65 917 L 1358.8 917 L 1358.8 925 L 1362.95 925 L 1362.95 921 L 1367.1 921 L 1367.1 917 L 1371.25 917 L 1371.25 925 L 1375.4 925 L 1375.4 921 L 1379.55 921 L 1379.55 921 L 1383.7 921 L 1383.7 917 L 1387.85 917 L 1387.85 925 L 1392 925 L 1392 921 L 1396.15 921 L 1396.15 925 L 1400.3 925 L 1400.3 925 L 1404.45 925 L 1404.45 921 L 1408.6 921 L 1408.6 921 L 1412.75 921 L 1412.75 925 L 1416.9 925 L 1416.9 925 L 1421.05 925 L 1421.05 921 L 1425.2 921 L 1425.2 921 L 1429.35 921 L 1429.35 925 L 1433.5 925 L 1433.5 925 L 1437.65 925 L 1437.65 925 L 1441.8 925 L 1441.8 925 L 1445.95 925 L 1445.95 925 L 1450.1 925 L 1450.1 925 L 1454.25 925 L 1454.25 925 L 1458.4 925 L 1458.4 925 L 1462.55 925 L 1462.55 925 L 1466.7 925 L 1466.7 925 L 1470.85 925 L 1470.85 925 L 1475 925 L 1475 925" stroke-width="3" stroke-dasharray="" stroke="black" stroke-opacity="1" fill="pink" fill-opacity="1" />
</g>
<g id="Histogram_17" clip-path="url(#Histogram_17_clip)">
    <path d="M 1060 925 L 1060 925 L 1064.15 925 L 1064.15 925 L 1068.3 925 L 1068.3 925 L 1072.45 925 L 1072.45 925 L 1076.6 925 L 1076.6 925 L 1080.75 925 L 1080.75 925 L 1084.9 925 L 1084.9 925 L 1089.05 925 L 1089.05 925 L 1093.2 925 L 1093.2 925 L 1097.35 925 L 1097.35 925 L 1101.5 925 L 1101.5 925 L 1105.65 925 L 1105.65 925 L 1109.8 925 L 1109.8 925 L 1113.95 925 L 1113.95 925 L 1118.1 925 L 1118.1 925 L 1122.25 925 L 1122.25 925 L 1126.4 925 L 1126.4 925 L 1130.55 925 L 1130.55 925 L 1134.7 925 L 1134.7 925 L 1138.85 925 L 1138.85 925 L 1143 925 L 1143 925 L 1147.15 925 L 1147.15 925 L 1151.3 925 L 1151.3 925 L 1155.45 925 L 1155.45 921 L 1159.6 921 L 1159.6 925 L 1163.75 925 L 1163.75 921 L 1167.9 921 L 1167.9 925 L 1172.05 925 L 1172.05 921 L 1176.2 921 L 1176.2 921 L 1180.35 921 L 1180.35 925 L 1184.5 925 L 1184.5 925 L 1188.65 925 L 1188.65 925 L 1192.8 925 L 1192.8 917 L 1196.95 917 L 1196.95 925 L 1201.1 925 L 1201.1 925 L 1205.25 925 L 1205.25 925 L 1209.4 925 L 1209.4 925 L 1213.55 925 L 1213.55 925 L 1217.7 925 L 1217.7 925 L 1221.85 925 L 1221.85 921 L 1226 921 L 1226 925 L 1230.15 925 L 1230.15 917 L 1234.3 917 L 1234.3 925 L 1238.45 925 L 1238.45 921 L 1242.6 921 L 1242.6 921 L 1246.75 921 L 1246.75 925 L 1250.9 925 L 1250.9 917 L 1255.05 917 L 1255.05 921 L 1259.2 921 L 1259.2 925 L 1263.35 925 L 1263.35 921 L 1267.5 921 L 1267.5 921 L 1271.65 921 L 1271.65 921 L 1275.8 921 L 1275.8 917 L 1279.95 917 L 1279.95 921 L 1284.1 921 L 1284.1 921 L 1288.25 921 L 1288.25 913 L 1292.4 913 L 1292.4 917 L 1296.55 917 L 1296.55 925 L 1300.7 925 L 1300.7 917 L 1304.85 917 L 1304.85 913 L 1309 913 L 1309 913 L 1313.15 913 L 1313.15 917 L 1317.3 917 L 1317.3 901 L 1321.45 901 L 1321.45 917 L 1325.6 917 L 1325.6 913 L 1329.75 913 L 1329.75 913 L 1333.9 913 L 1333.9 925 L 1338.05 925 L 1338.05 917 L 1342.2 917 L 1342.2 921 L 1346.35 921 L 1346.35 913 L 1350.5 913 L 1350.5 925 L 1354.65 925 L 1354.65 925 L 1358.8 925 L 1358.8 925 L 1362.95 925 L 1362.95 921 L 1367.1 921 L 1367.1 917 L 1371.25 917 L 1371.25 925 L 1375.4 925 L 1375.4 921 L 1379.55 921 L 1379.55 921 L 1383.7 921 L 1383.7 917 L 1387.85 917 L 1387.85 925 L 1392 925 L 1392 921 L 1396.15 921 L 1396.15 925 L 1400.3 925 L 1400.3 925 L 1404.45 925 L 1404.45 921 L 1408.6 921 L 1408.6 921 L 1412.75 921 L 1412.75 925 L 1416.9 925 L 1416.9 925 L 1421.05 925 L 1421.05 921 L 1425.2 921 L 1425.2 921 L 1429.35 921 L 1429.35 925 L 1433.5 925 L 1433.5 925 L 1437.65 925 L 1437.65 925 L 1441.8 925 L 1441.8 925 L 1445.95 925 L 1445.95 925 L 1450.1 925 L 1450.1 925 L 1454.25 925 L 1454.25 925 L 1458.4 925 L 1458.4 925 L 1462.55 925 L 1462.55 925 L 1466.7 925 L 1466.7 925 L 1470.85 925 L 1470.85 925 L 1475 925 L 1475 925" stroke-width="3" stroke-dasharray="" stroke="black" stroke-opacity="1" fill="red" fill-opacity="1" />
</g>
<g id="frame_5">
    <rect id="frame_5_border" x="1060" y="525" width="415" height="400" />
    <text id="frame_5_bottomlabel" font-size="30" transform="translate(1267.5, 985)" text-anchor="middle" dominant-baseline="middle" stroke="none" fill="black">eigenbasis direction 6</text>
    <g id="frame_5_bottomticks">
        <path d="M 1267.5 925 L 1267.5 905" />
        <text font-size="30" transform="translate(1267.5, 955)" text-anchor="middle" dominant-baseline="middle" stroke="none" fill="black">0</text>
        <path d="M 1288.25 925 L 1288.25 915" />
        <path d="M 1309 925 L 1309 915" />
        <path d="M 1329.75 925 L 1329.75 915" />
        <path d="M 1350.5 925 L 1350.5 915" />
        <path d="M 1371.25 925 L 1371.25 905" />
        <text font-size="30" transform="translate(1371.25, 955)" text-anchor="middle" dominant-baseline="middle" stroke="none" fill="black">5</text>
        <path d="M 1392 925 L 1392 915" />
        <path d="M 1412.75 925 L 1412.75 915" />
        <path d="M 1433.5 925 L 1433.5 915" />
        <path d="M 1454.25 925 L 1454.25 915" />
        <path d="M 1246.75 925 L 1246.75 915" />
        <path d="M 1060 925 L 1060 905" />
        <text font-size="30" transform="translate(1060, 955)" text-anchor="middle" dominant-baseline="middle" stroke="none" fill="black">‒10</text>
        <path d="M 1080.75 925 L 1080.75 915" />
        <path d="M 1101.5 925 L 1101.5 915" />
        <path d="M 1122.25 925 L 1122.25 915" />
        <path d="M 1143 925 L 1143 915" />
        <path d="M 1163.75 925 L 1163.75 905" />
        <text font-size="30" transform="translate(1163.75, 955)" text-anchor="middle" dominant-baseline="middle" stroke="none" fill="black">‒5</text>
        <path d="M 1184.5 925 L 1184.5 915" />
        <path d="M 1205.25 925 L 1205.25 915" />
        <path d="M 1226 925 L 1226 915" />
        <path d="M 1475 925 L 1475 905" />
        <text font-size="30" transform="translate(1475, 955)" text-anchor="middle" dominant-baseline="middle" stroke="none" fill="black">10</text>
    </g>
    <g id="frame_5_leftticks">
        <path d="M 1060 925 L 1080 925" />
        <text font-size="30" transform="translate(1050, 935)" text-anchor="end" dominant-baseline="middle" stroke="none" fill="black">0</text>
        <path d="M 1060 525 L 1080 525" />
        <text font-size="30" transform="translate(1050, 535)" text-anchor="end" dominant-baseline="middle" stroke="none" fill="black">100</text>
        <path d="M 1060 645 L 1070 645" />
        <path d="M 1060 765 L 1080 765" />
        <text font-size="30" transform="translate(1050, 775)" text-anchor="end" dominant-baseline="middle" stroke="none" fill="black">40</text>
        <path d="M 1060 885 L 1070 885" />
        <path d="M 1060 605 L 1080 605" />
        <text font-size="30" transform="translate(1050, 615)" text-anchor="end" dominant-baseline="middle" stroke="none" fill="black">80</text>
        <path d="M 1060 725 L 1070 725" />
        <path d="M 1060 845 L 1080 845" />
        <text font-size="30" transform="translate(1050, 855)" text-anchor="end" dominant-baseline="middle" stroke="none" fill="black">20</text>
        <path d="M 1060 565 L 1070 565" />
        <path d="M 1060 685 L 1080 685" />
        <text font-size="30" transform="translate(1050, 695)" text-anchor="end" dominant-baseline="middle" stroke="none" fill="black">60</text>
        <path d="M 1060 805 L 1070 805" />
    </g>
    <g id="frame_5_topticks">
        <path d="M 1267.5 525 L 1267.5 545" />
        <path d="M 1288.25 525 L 1288.25 535" />
        <path d="M 1309 525 L 1309 535" />
        <path d="M 1329.75 525 L 1329.75 535" />
        <path d="M 1350.5 525 L 1350.5 535" />
        <path d="M 1371.25 525 L 1371.25 545" />
        <path d="M 1392 525 L 1392 535" />
        <path d="M 1412.75 525 L 1412.75 535" />
        <path d="M 1433.5 525 L 1433.5 535" />
        <path d="M 1454.25 525 L 1454.25 535" />
        <path d="M 1246.75 525 L 1246.75 535" />
        <path d="M 1060 525 L 1060 545" />
        <path d="M 1080.75 525 L 1080.75 535" />
        <path d="M 1101.5 525 L 1101.5 535" />
        <path d="M 1122.25 525 L 1122.25 535" />
        <path d="M 1143 525 L 1143 535" />
        <path d="M 1163.75 525 L 1163.75 545" />
        <path d="M 1184.5 525 L 1184.5 535" />
        <path d="M 1205.25 525 L 1205.25 535" />
        <path d="M 1226 525 L 1226 535" />
        <path d="M 1475 525 L 1475 545" />
    </g>
    <g id="frame_5_rightticks">
        <path d="M 1475 925 L 1455 925" />
        <path d="M 1475 525 L 1455 525" />
        <path d="M 1475 645 L 1465 645" />
        <path d="M 1475 765 L 1455 765" />
        <path d="M 1475 885 L 1465 885" />
        <path d="M 1475 605 L 1455 605" />
        <path d="M 1475 725 L 1465 725" />
        <path d="M 1475 845 L 1455 845" />
        <path d="M 1475 565 L 1465 565" />
        <path d="M 1475 685 L 1455 685" />
        <path d="M 1475 805 L 1465 805" />
    </g>
</g>
</g>
</svg>
