<?xml version="1.0" standalone="no"?>
<!DOCTYPE svg PUBLIC "-//W3C//DTD SVG 1.1//EN" "http://www.w3.org/Graphics/SVG/1.1/DTD/svg11.dtd">
<svg style="stroke-linejoin:miter; stroke:black; stroke-width:2.5; text-anchor:middle; fill:none" xmlns="http://www.w3.org/2000/svg" font-family="Helvetica, Arial, FreeSans, Sans, sans, sans-serif" width="1000px" height="1000px" version="1.1" xmlns:xlink="http://www.w3.org/1999/xlink" viewBox="0 0 1000 1000">
<defs>
    <clipPath id="Grid_0_clip">
        <rect x="120" y="50" width="830" height="870" />
    </clipPath>
    <clipPath id="Legend_0_clip">
        <rect x="576.5" y="50" width="373.5" height="80" />
    </clipPath>
    <clipPath id="Scatter_0_clip">
        <rect x="120" y="50" width="830" height="870" />
    </clipPath>
    <clipPath id="Scatter_10_clip">
        <rect x="120" y="50" width="830" height="870" />
    </clipPath>
    <clipPath id="Scatter_11_clip">
        <rect x="120" y="50" width="830" height="870" />
    </clipPath>
    <clipPath id="Scatter_12_clip">
        <rect x="120" y="50" width="830" height="870" />
    </clipPath>
    <clipPath id="Scatter_13_clip">
        <rect x="120" y="50" width="830" height="870" />
    </clipPath>
    <clipPath id="Scatter_14_clip">
        <rect x="120" y="50" width="830" height="870" />
    </clipPath>
    <clipPath id="Scatter_15_clip">
        <rect x="120" y="50" width="830" height="870" />
    </clipPath>
    <clipPath id="Scatter_16_clip">
        <rect x="120" y="50" width="830" height="870" />
    </clipPath>
    <clipPath id="Scatter_17_clip">
        <rect x="120" y="50" width="830" height="870" />
    </clipPath>
    <clipPath id="Scatter_18_clip">
        <rect x="120" y="50" width="830" height="870" />
    </clipPath>
    <clipPath id="Scatter_19_clip">
        <rect x="120" y="50" width="830" height="870" />
    </clipPath>
    <clipPath id="Scatter_1_clip">
        <rect x="120" y="50" width="830" height="870" />
    </clipPath>
    <clipPath id="Scatter_2_clip">
        <rect x="120" y="50" width="830" height="870" />
    </clipPath>
    <clipPath id="Scatter_3_clip">
        <rect x="120" y="50" width="830" height="870" />
    </clipPath>
    <clipPath id="Scatter_4_clip">
        <rect x="120" y="50" width="830" height="870" />
    </clipPath>
    <clipPath id="Scatter_5_clip">
        <rect x="120" y="50" width="830" height="870" />
    </clipPath>
    <clipPath id="Scatter_6_clip">
        <rect x="120" y="50" width="830" height="870" />
    </clipPath>
    <clipPath id="Scatter_7_clip">
        <rect x="120" y="50" width="830" height="870" />
    </clipPath>
    <clipPath id="Scatter_8_clip">
        <rect x="120" y="50" width="830" height="870" />
    </clipPath>
    <clipPath id="Scatter_9_clip">
        <rect x="120" y="50" width="830" height="870" />
    </clipPath>
</defs>
<g id="whole_document">
<rect id="background" x="0" y="0" width="1000" height="1000" stroke="none" fill="white" />
<g id="Grid_0" clip-path="url(#Grid_0_clip)">
    <path d="M 248.71 920 L 248.71 50 M 309.569 920 L 309.569 50 M 410.372 920 L 410.372 50 M 457.708 920 L 457.708 50 M 548.076 920 L 548.076 50 M 651.353 920 L 651.353 50" stroke-width="3" stroke-dasharray="3.0 3.0" stroke="grey" stroke-opacity="1" fill="none" />
</g>
<g id="Scatter_0" clip-path="url(#Scatter_0_clip)">
    <path d="M 109.603 375.085 L 113.95 370.583 L 118.297 372.228 L 122.645 371.477 L 126.992 371.037 L 135.686 369.931 L 140.033 370.078 L 144.38 369.073 L 148.727 371.019 L 153.074 370.327 L 157.421 370.978 L 161.768 371.56 L 170.462 371.462 L 174.809 372.708 L 179.156 374.178 L 187.851 378.565 L 192.198 379.518 L 196.545 379.049 L 200.892 381.7 L 205.239 380.407 L 209.586 383.219 L 213.933 383.773 L 218.28 383.051 L 222.627 381.644 L 226.974 387.735 L 231.321 391.398 L 235.668 403.885 L 240.015 408.26 L 244.363 401.026 L 248.71 397.417 L 253.057 401.92 L 257.404 404.936 L 261.751 401.481 L 266.098 404.507 L 270.445 404.873 L 274.792 408.107 L 279.139 418.155 L 283.486 416.378 L 287.833 412.494 L 292.18 409.548 L 296.527 412.378 L 300.874 412.797 L 305.222 412.406 L 309.569 416.294 L 313.916 427.589 L 318.263 430.882 L 322.61 438.031 L 320.004 462.061 L 324.308 514.071 L 328.611 541.69 L 332.914 490.172 L 337.217 493.285 L 341.521 498.387 L 345.824 495.154 L 350.127 468.717 L 354.43 471.227 L 358.734 475.014 L 363.037 468.957 L 367.34 455.517 L 371.643 453.127 L 375.946 468.135 L 380.25 466.199 L 384.553 466.844 L 388.856 467.824 L 397.463 482.68 L 401.766 504.951 L 406.069 588.048 L 410.372 518.307 L 414.676 507.671 L 418.979 512.64 L 423.282 504.42 L 427.585 500.29 L 431.888 508.845 L 436.192 512.202 L 440.495 512.126 L 444.798 508.668 L 449.101 507.173 L 453.405 489.42 L 457.708 486.901 L 462.011 492.836 L 466.314 491.157 L 470.618 489.527 L 479.224 500.838 L 483.527 512.731 L 487.83 524.837 L 492.134 526.475 L 496.437 552.403 L 500.74 531.791 L 505.043 143.803 L 509.347 206.444 L 517.953 367.214 L 535.166 657.572 L 543.772 586.793 L 548.076 765.655 L 552.379 747.818 L 556.682 769.419 L 560.985 622.008 L 565.289 594.195 L 569.592 577.92 L 578.198 558.136 L 582.502 580.052 L 586.805 594.454 L 591.108 538.748 L 599.714 552.197 L 604.018 550.5 L 608.321 561.002 L 612.624 560.242 L 616.927 555.912 L 621.231 564.575 L 625.534 556.518 L 629.837 560.677 L 634.14 550.1 L 638.444 548.095 L 642.747 579.049 L 647.05 582.798 L 651.353 548.086 L 655.656 553.701 L 659.96 569.064 L 664.263 571.337 L 668.566 576.63 L 672.869 588.958 L 677.173 583.361 L 681.476 589.213 L 685.779 606.266 L 690.082 761.105 L 694.386 706.215 L 698.689 633.406 L 702.992 442.101 L 707.295 443.31 L 771.844 756.223 L 776.147 745.481 L 784.753 694.076 L 789.057 613.056 L 793.36 683.72 L 797.663 772.189 L 801.966 753.957 L 806.27 757.626 L 810.573 771.062 L 814.876 606.173 L 819.179 614.399 L 823.482 637.495 L 827.786 643.922 L 832.089 782.933 L 836.392 785.86 L 840.695 582.385 L 844.999 569.174 L 849.302 775.002 L 853.605 776.366 L 857.908 773.922 L 862.212 770.573 L 866.515 597.449 L 870.818 610.293 L 875.121 628.145 L 879.424 618.865 L 883.728 763.327 L 888.031 759 L 892.334 618.009 L 896.637 755.612 L 900.941 657.351 L 905.244 745.719 L 909.547 675.072 L 913.85 610.593 L 918.154 698.051 L 922.457 736.867 L 926.76 649.454 L 931.063 724.751 L 935.366 559.875 L 939.67 461.436 L 943.973 690.394 L 948.276 694.586" stroke-width="3" stroke-dasharray="" stroke="#9a2e00" stroke-opacity="1" fill="none" />
</g>
<g id="Scatter_1" clip-path="url(#Scatter_1_clip)">
    <path d="M 109.603 405.287 L 113.95 406.566 L 118.297 409.802 L 122.645 409.567 L 126.992 410.417 L 135.686 412.546 L 140.033 413.067 L 144.38 415.482 L 148.727 414.509 L 153.074 416.431 L 157.421 416.682 L 161.768 417.987 L 170.462 420.488 L 174.809 422.302 L 179.156 426.406 L 187.851 432.119 L 192.198 432.705 L 196.545 435.216 L 200.892 435.535 L 205.239 437.791 L 209.586 439.084 L 213.933 440.896 L 218.28 441.343 L 222.627 442.702 L 226.974 448.821 L 231.321 455.445 L 235.668 466.195 L 240.015 469.124 L 244.363 466.093 L 248.71 463.424 L 253.057 464.886 L 257.404 466.666 L 261.751 466.393 L 266.098 466.817 L 270.445 466.947 L 274.792 471.792 L 279.139 476.841 L 283.486 475.166 L 287.833 473.28 L 292.18 470.674 L 296.527 473.486 L 300.874 472.173 L 305.222 475.776 L 309.569 478.601 L 313.916 488.041 L 318.263 491.794 L 322.61 477.592 L 320.004 500.406 L 324.308 508.942 L 328.611 519.406 L 332.914 491.76 L 337.217 494.618 L 341.521 505.933 L 345.824 495.462 L 350.127 473.887 L 354.43 476.759 L 358.734 465.555 L 363.037 463.279 L 367.34 469.333 L 371.643 468.722 L 375.946 476.288 L 380.25 476.237 L 384.553 473.852 L 388.856 479.237 L 397.463 501.957 L 401.766 564.17 L 406.069 829.509 L 410.372 597.011 L 414.676 592.441 L 418.979 543.943 L 423.282 513.121 L 427.585 507.883 L 431.888 511.582 L 436.192 505.897 L 440.495 501.87 L 444.798 495.819 L 449.101 496.258 L 453.405 491.501 L 457.708 492.167 L 462.011 489.059 L 466.314 488.283 L 470.618 484.963 L 479.224 492.462 L 483.527 501.436 L 487.83 522.813 L 492.134 541.103 L 496.437 530.881 L 500.74 481.425 L 505.043 272.676 L 509.347 199.018 L 517.953 380.582 L 535.166 684.475 L 543.772 755.185 L 548.076 794.789 L 552.379 777.24 L 556.682 633.787 L 560.985 567.103 L 565.289 582.848 L 569.592 584.399 L 578.198 545.091 L 582.502 558.807 L 586.805 553.967 L 591.108 536.209 L 599.714 531.828 L 604.018 533.835 L 608.321 534.72 L 612.624 529.673 L 616.927 531.931 L 621.231 535.039 L 625.534 528.344 L 629.837 532.648 L 634.14 536.166 L 638.444 535.089 L 642.747 532.915 L 647.05 538.471 L 651.353 532.123 L 655.656 535.379 L 659.96 546.615 L 664.263 549.384 L 668.566 564.128 L 672.869 567.416 L 677.173 572.633 L 681.476 601.919 L 685.779 597.381 L 690.082 795.618 L 694.386 579.545 L 698.689 475.034 L 702.992 552.552 L 707.295 511.048 L 771.844 637.762 L 776.147 774.661 L 784.753 627.064 L 789.057 546.659 L 793.36 560.563 L 797.663 581.074 L 801.966 585.208 L 806.27 655.569 L 810.573 605.489 L 814.876 626.814 L 819.179 664.462 L 823.482 609.679 L 827.786 611.502 L 832.089 651.653 L 836.392 635.903 L 840.695 594.993 L 844.999 593.957 L 849.302 654.068 L 853.605 667.108 L 857.908 579.306 L 862.212 577.653 L 866.515 638.719 L 870.818 614.442 L 875.121 591.961 L 879.424 585.073 L 883.728 612.202 L 888.031 632.365 L 892.334 577.074 L 896.637 603.056 L 900.941 606.201 L 905.244 602.173 L 909.547 684.041 L 913.85 782.787 L 918.154 620.503 L 922.457 616.29 L 926.76 565.842 L 931.063 550.946 L 935.366 624.908 L 939.67 758.612 L 943.973 641.17 L 948.276 518.244" stroke-width="3" stroke-dasharray="" stroke="#006089" stroke-opacity="1" fill="none" />
</g>
<g id="Scatter_2" clip-path="url(#Scatter_2_clip)">
    <path d="M 109.603 416.065 L 113.95 415.519 L 118.297 413.834 L 122.645 412.552 L 126.992 410.436 L 135.686 408.201 L 140.033 406.594 L 144.38 405.831 L 148.727 405.81 L 153.074 404.658 L 157.421 404 L 161.768 404.458 L 170.462 403.6 L 174.809 405.053 L 179.156 407.107 L 187.851 413.107 L 192.198 415.096 L 196.545 415.763 L 200.892 416.372 L 205.239 416.069 L 209.586 418.45 L 213.933 417.276 L 218.28 418.166 L 222.627 419.316 L 226.974 423.373 L 231.321 431.473 L 235.668 444.628 L 240.015 447.763 L 244.363 443.207 L 248.71 441.525 L 253.057 444.624 L 257.404 443.875 L 261.751 442.43 L 266.098 443.772 L 270.445 443.874 L 274.792 449.035 L 279.139 452.965 L 283.486 454.587 L 287.833 452.848 L 292.18 451.951 L 296.527 452.299 L 300.874 451.109 L 305.222 455.469 L 309.569 459.461 L 313.916 473.76 L 318.263 483.259 L 322.61 459.03 L 320.004 481.984 L 324.308 484.184 L 328.611 505.113 L 332.914 505.239 L 337.217 503.925 L 341.521 505.241 L 345.824 498.29 L 350.127 491.226 L 354.43 487.839 L 358.734 485.065 L 363.037 482.127 L 367.34 483.765 L 371.643 487.204 L 375.946 493.052 L 380.25 495.056 L 384.553 489.026 L 388.856 495.043 L 397.463 533.843 L 401.766 585.995 L 406.069 840.851 L 410.372 679.7 L 414.676 674.248 L 418.979 577.44 L 423.282 547.567 L 427.585 542.861 L 431.888 545.361 L 436.192 539.829 L 440.495 537.224 L 444.798 533.358 L 449.101 532.224 L 453.405 522.3 L 457.708 523.546 L 462.011 521.879 L 466.314 523.762 L 470.618 527.635 L 479.224 530.11 L 483.527 536.821 L 487.83 551.076 L 492.134 561.275 L 496.437 576.075 L 500.74 550.854 L 505.043 426.923 L 509.347 380.45 L 517.953 168.786 L 535.166 759.662 L 543.772 791.232 L 548.076 827.443 L 552.379 807.066 L 556.682 832.057 L 560.985 691.24 L 565.289 593.457 L 569.592 581.302 L 578.198 581.613 L 582.502 573.837 L 586.805 568.404 L 591.108 563.747 L 599.714 560.622 L 604.018 561.731 L 608.321 557.76 L 612.624 556.837 L 616.927 561.837 L 621.231 555.219 L 625.534 551.808 L 629.837 556.934 L 634.14 559.741 L 638.444 558.074 L 642.747 557.872 L 647.05 554.932 L 651.353 559.41 L 655.656 563.229 L 659.96 561.349 L 664.263 566.874 L 668.566 571.642 L 672.869 565.622 L 677.173 562.746 L 681.476 578.327 L 685.779 628.302 L 690.082 670.048 L 694.386 595.589 L 698.689 519.868 L 702.992 424.069 L 707.295 366.719 L 771.844 565.019 L 776.147 577.863 L 784.753 720.72 L 789.057 653.995 L 793.36 605.439 L 797.663 582.366 L 801.966 615.429 L 806.27 592.114 L 810.573 592.793 L 814.876 643.704 L 819.179 635.786 L 823.482 664.005 L 827.786 809.339 L 832.089 624.336 L 836.392 616.135 L 840.695 580.628 L 844.999 581.053 L 849.302 638.197 L 853.605 632.102 L 857.908 605.924 L 862.212 611.606 L 866.515 595.25 L 870.818 573.587 L 875.121 580.66 L 879.424 579.605 L 883.728 587.31 L 888.031 588.9 L 892.334 545.887 L 896.637 546.653 L 900.941 563.903 L 905.244 538.689 L 909.547 571.098 L 913.85 581.858 L 918.154 534.829 L 922.457 552.99 L 926.76 657.158 L 931.063 620.711 L 935.366 632.102 L 939.67 693.115 L 943.973 508.972 L 948.276 208.48" stroke-width="3" stroke-dasharray="" stroke="#9b5d00" stroke-opacity="1" fill="none" />
</g>
<g id="Scatter_3" clip-path="url(#Scatter_3_clip)">
    <path d="M 109.603 369.59 L 113.95 368.559 L 118.297 372.443 L 122.645 372.306 L 126.992 370.316 L 135.686 372.962 L 140.033 374.388 L 144.38 375.788 L 148.727 378.684 L 153.074 378.612 L 157.421 380.179 L 161.768 381.493 L 170.462 385.243 L 174.809 387.07 L 179.156 390.638 L 187.851 400.671 L 192.198 402.482 L 196.545 403.498 L 200.892 407.012 L 205.239 406.595 L 209.586 411.271 L 213.933 412.534 L 218.28 413.214 L 222.627 415.682 L 226.974 422.338 L 231.321 429.254 L 235.668 438.466 L 240.015 444.27 L 244.363 440.742 L 248.71 438.588 L 253.057 440.954 L 257.404 443.761 L 261.751 441.407 L 266.098 443.632 L 270.445 442.377 L 274.792 449.357 L 279.139 454.623 L 283.486 453.022 L 287.833 451.721 L 292.18 449.066 L 296.527 452.095 L 300.874 452.612 L 305.222 452.312 L 309.569 457.447 L 313.916 467.606 L 318.263 475.545 L 322.61 540.002 L 320.004 468.972 L 324.308 513.242 L 328.611 495.947 L 332.914 521.813 L 337.217 514.497 L 341.521 494.439 L 345.824 489.058 L 350.127 501.007 L 354.43 495.436 L 358.734 465.633 L 363.037 468.267 L 367.34 477.308 L 371.643 484.118 L 375.946 471.3 L 380.25 475.261 L 384.553 488.942 L 388.856 494.75 L 397.463 518.508 L 401.766 510.181 L 406.069 510.978 L 410.372 520.833 L 414.676 552.504 L 418.979 560.845 L 423.282 522.349 L 427.585 522.737 L 431.888 533.213 L 436.192 506.772 L 440.495 505.463 L 444.798 505.946 L 449.101 502.95 L 453.405 502.569 L 457.708 496.838 L 462.011 509.598 L 466.314 506.992 L 470.618 501.501 L 479.224 523.113 L 483.527 524.687 L 487.83 556.783 L 492.134 598.475 L 496.437 562.259 L 500.74 487.192 L 505.043 337.14 L 509.347 337.14 L 517.953 337.14 L 535.166 672.635 L 543.772 724.509 L 548.076 762.236 L 552.379 744.004 L 556.682 689.167 L 560.985 633.185 L 565.289 580.773 L 569.592 573.052 L 578.198 540.854 L 582.502 565.531 L 586.805 562.517 L 591.108 572.739 L 599.714 568.908 L 604.018 557.489 L 608.321 554.945 L 612.624 541.753 L 616.927 547.401 L 621.231 542.425 L 625.534 577.607 L 629.837 589.108 L 634.14 542.373 L 638.444 531.482 L 642.747 568.802 L 647.05 565.8 L 651.353 550.865 L 655.656 559.974 L 659.96 562.336 L 664.263 557.725 L 668.566 567.074 L 672.869 567.499 L 677.173 613.1 L 681.476 785.901 L 685.779 556.805 L 690.082 544.061 L 694.386 690.674 L 698.689 638.085 L 702.992 514.078 L 707.295 476.558 L 771.844 737.831 L 776.147 724.301 L 784.753 521.142 L 789.057 530.139 L 793.36 545.954 L 797.663 750.507 L 801.966 730.463 L 806.27 640.308 L 810.573 585.971 L 814.876 562.768 L 819.179 539.522 L 823.482 759.951 L 827.786 760.681 L 832.089 758.716 L 836.392 629.973 L 840.695 565.425 L 844.999 564.117 L 849.302 660.321 L 853.605 753.131 L 857.908 628.665 L 862.212 651.522 L 866.515 583.235 L 870.818 627.204 L 875.121 697.22 L 879.424 619.381 L 883.728 566.874 L 888.031 587.736 L 892.334 597.679 L 896.637 562.129 L 900.941 652.085 L 905.244 721.97 L 909.547 724.716 L 913.85 715.169 L 918.154 608.211 L 922.457 637.581 L 926.76 698.149 L 931.063 699.969 L 935.366 469.958 L 939.67 492.47 L 943.973 519.047 L 948.276 710.219" stroke-width="3" stroke-dasharray="" stroke="#004aba" stroke-opacity="1" fill="none" />
</g>
<g id="Scatter_4" clip-path="url(#Scatter_4_clip)">
    <path d="M 109.603 409.684 L 113.95 408.084 L 118.297 408.615 L 122.645 407.733 L 126.992 406.566 L 135.686 406.031 L 140.033 405.3 L 144.38 406.395 L 148.727 406.462 L 153.074 405.583 L 157.421 406.487 L 161.768 406.61 L 170.462 407.022 L 174.809 408.646 L 179.156 411.201 L 187.851 419.284 L 192.198 418.794 L 196.545 420.573 L 200.892 421.416 L 205.239 422.118 L 209.586 424.766 L 213.933 425.131 L 218.28 425.89 L 222.627 427.554 L 226.974 433.315 L 231.321 441.779 L 235.668 456.317 L 240.015 460.336 L 244.363 463.166 L 248.71 454.907 L 253.057 459.392 L 257.404 458.116 L 261.751 457.627 L 266.098 458.613 L 270.445 459.203 L 274.792 463.886 L 279.139 469.889 L 283.486 469.05 L 287.833 466.691 L 292.18 466.779 L 296.527 465.765 L 300.874 466.871 L 305.222 468.552 L 309.569 473.18 L 313.916 485.192 L 318.263 495.429 L 322.61 495.232 L 320.004 536.084 L 324.308 564.432 L 328.611 540.558 L 332.914 536.367 L 337.217 515.646 L 341.521 508.183 L 345.824 498.936 L 350.127 476.405 L 354.43 476.311 L 358.734 475.665 L 363.037 475.756 L 367.34 478.509 L 371.643 479.246 L 375.946 469.816 L 380.25 472.867 L 384.553 486.091 L 388.856 490.631 L 397.463 514.258 L 401.766 617.004 L 406.069 834.109 L 410.372 569.822 L 414.676 580.722 L 418.979 576.717 L 423.282 537.374 L 427.585 523.405 L 431.888 522.46 L 436.192 517.084 L 440.495 515.477 L 444.798 516.877 L 449.101 511.747 L 453.405 504.056 L 457.708 503.04 L 462.011 511.592 L 466.314 511.525 L 470.618 506.755 L 479.224 516.973 L 483.527 528.645 L 487.83 541.689 L 492.134 561.528 L 496.437 571.168 L 500.74 561.711 L 505.043 402.483 L 509.347 402.483 L 517.953 402.483 L 535.166 704.177 L 543.772 770.495 L 548.076 818.474 L 552.379 801.1 L 556.682 578.872 L 560.985 575.476 L 565.289 589.039 L 569.592 578.163 L 578.198 564.749 L 582.502 558.308 L 586.805 554.168 L 591.108 552.488 L 599.714 550.199 L 604.018 548.612 L 608.321 549.705 L 612.624 548.639 L 616.927 537.906 L 621.231 537.248 L 625.534 545.719 L 629.837 546.932 L 634.14 536.311 L 638.444 538.462 L 642.747 541.534 L 647.05 540.49 L 651.353 541.735 L 655.656 539.818 L 659.96 556.548 L 664.263 559.793 L 668.566 549.228 L 672.869 552.334 L 677.173 560.133 L 681.476 577.871 L 685.779 578.378 L 690.082 638.191 L 694.386 737.526 L 698.689 663.414 L 702.992 298.835 L 707.295 258.021 L 771.844 787.313 L 776.147 775.562 L 784.753 698.749 L 789.057 606.606 L 793.36 607.487 L 797.663 726.202 L 801.966 776.834 L 806.27 576.389 L 810.573 576.522 L 814.876 595.96 L 819.179 596.271 L 823.482 575.254 L 827.786 593.689 L 832.089 575.254 L 836.392 574.139 L 840.695 557.637 L 844.999 554.754 L 849.302 573.588 L 853.605 578.887 L 857.908 589.694 L 862.212 590.919 L 866.515 577.806 L 870.818 568.311 L 875.121 554.276 L 879.424 559.378 L 883.728 573.55 L 888.031 564.461 L 892.334 595.097 L 896.637 597.257 L 900.941 582.451 L 905.244 603.942 L 909.547 604.168 L 913.85 582.54 L 918.154 602.723 L 922.457 574.453 L 926.76 532.949 L 931.063 542.734 L 935.366 573.982 L 939.67 606.072 L 943.973 728.832 L 948.276 731.857" stroke-width="3" stroke-dasharray="" stroke="#8a7d00" stroke-opacity="1" fill="none" />
</g>
<g id="Scatter_5" clip-path="url(#Scatter_5_clip)">
    <path d="M 109.603 412.906 L 113.95 412.332 L 118.297 415.878 L 122.645 414.302 L 126.992 416.419 L 135.686 415.174 L 140.033 416.529 L 144.38 416.533 L 148.727 415.504 L 153.074 416.696 L 157.421 416.184 L 161.768 415.884 L 170.462 417.032 L 174.809 417.551 L 179.156 418.88 L 187.851 421.015 L 192.198 420.49 L 196.545 420.812 L 200.892 421.408 L 205.239 424.494 L 209.586 423.64 L 213.933 422.692 L 218.28 422.051 L 222.627 423.956 L 226.974 430.048 L 231.321 432.936 L 235.668 442.707 L 240.015 444.359 L 244.363 439.206 L 248.71 438.037 L 253.057 440.875 L 257.404 438.569 L 261.751 438.395 L 266.098 439.276 L 270.445 437.752 L 274.792 445.144 L 279.139 449.171 L 283.486 446.554 L 287.833 443.25 L 292.18 442.477 L 296.527 443.14 L 300.874 444.139 L 305.222 446.319 L 309.569 454.561 L 313.916 468.962 L 318.263 466.359 L 322.61 462.364 L 320.004 484.714 L 324.308 467.005 L 328.611 474.109 L 332.914 504.194 L 337.217 493.266 L 341.521 480.186 L 345.824 466.142 L 350.127 468.43 L 354.43 465.228 L 358.734 450.739 L 363.037 447.408 L 367.34 450.336 L 371.643 443.279 L 375.946 443.739 L 380.25 443.086 L 384.553 445.968 L 388.856 453.565 L 397.463 485.503 L 401.766 559.854 L 406.069 837.249 L 410.372 603.006 L 414.676 595.176 L 418.979 532.85 L 423.282 511.366 L 427.585 501.318 L 431.888 499.13 L 436.192 511.832 L 440.495 506.412 L 444.798 497.212 L 449.101 493.13 L 453.405 497.325 L 457.708 496.8 L 462.011 490.766 L 466.314 487.664 L 470.618 487.838 L 479.224 501.221 L 483.527 512.583 L 487.83 522.546 L 492.134 544.165 L 496.437 549.567 L 500.74 534.865 L 505.043 162.35 L 509.347 150.399 L 517.953 411.33 L 535.166 681.214 L 543.772 762.413 L 548.076 813.535 L 552.379 795.728 L 556.682 630.457 L 560.985 606.849 L 565.289 602.247 L 569.592 590.343 L 578.198 574.875 L 582.502 560.748 L 586.805 552.434 L 591.108 562.933 L 599.714 552.549 L 604.018 552.246 L 608.321 552.61 L 612.624 549.128 L 616.927 540.852 L 621.231 544.827 L 625.534 546.094 L 629.837 543.42 L 634.14 547.073 L 638.444 544.953 L 642.747 551.035 L 647.05 552.37 L 651.353 556.276 L 655.656 557.661 L 659.96 571.087 L 664.263 568.777 L 668.566 575.044 L 672.869 578.391 L 677.173 586.934 L 681.476 605.219 L 685.779 646.891 L 690.082 642.815 L 694.386 603.23 L 698.689 658.655 L 702.992 326.282 L 707.295 171.07 L 771.844 805.221 L 776.147 747.497 L 784.753 731.186 L 789.057 589.134 L 793.36 592.214 L 797.663 609.506 L 801.966 626.521 L 806.27 581.052 L 810.573 584.651 L 814.876 640.669 L 819.179 643.694 L 823.482 666.428 L 827.786 642.701 L 832.089 678.776 L 836.392 714.498 L 840.695 593.403 L 844.999 602.632 L 849.302 673.482 L 853.605 618.434 L 857.908 588.123 L 862.212 589.947 L 866.515 632.148 L 870.818 620.079 L 875.121 601.286 L 879.424 614.226 L 883.728 611.218 L 888.031 594.592 L 892.334 632.126 L 896.637 645.387 L 900.941 594.241 L 905.244 577.31 L 909.547 678.361 L 913.85 791.473 L 918.154 665.045 L 922.457 696.414 L 926.76 620.673 L 931.063 612.789 L 935.366 624.406 L 939.67 717.7 L 943.973 758.371 L 948.276 768.868" stroke-width="3" stroke-dasharray="" stroke="#0015da" stroke-opacity="1" fill="none" />
</g>
<g id="Scatter_6" clip-path="url(#Scatter_6_clip)">
    <path d="M 109.603 392.223 L 113.95 393.13 L 118.297 396.642 L 122.645 397.094 L 126.992 398.023 L 135.686 401.474 L 140.033 403.568 L 144.38 405.516 L 148.727 406.117 L 153.074 409.141 L 157.421 409.728 L 161.768 411.145 L 170.462 414.457 L 174.809 416.613 L 179.156 419.768 L 187.851 426.453 L 192.198 426.591 L 196.545 427.431 L 200.892 430.266 L 205.239 433.541 L 209.586 435.025 L 213.933 435.784 L 218.28 434.889 L 222.627 438.21 L 226.974 442.239 L 231.321 448.45 L 235.668 452.961 L 240.015 453.115 L 244.363 451.801 L 248.71 454.27 L 253.057 451.279 L 257.404 453.229 L 261.751 454.255 L 266.098 456.455 L 270.445 455.375 L 274.792 459.908 L 279.139 460.78 L 283.486 461.328 L 287.833 458.02 L 292.18 458.616 L 296.527 459.711 L 300.874 458.675 L 305.222 460.628 L 309.569 469.555 L 313.916 471.995 L 318.263 468.27 L 322.61 466.511 L 320.004 511.408 L 324.308 405.871 L 328.611 410.501 L 332.914 541.402 L 337.217 518.77 L 341.521 492.528 L 345.824 483.391 L 350.127 482.655 L 354.43 480.766 L 358.734 459.387 L 363.037 461.351 L 367.34 469.024 L 371.643 466.598 L 375.946 465.237 L 380.25 464.217 L 384.553 455.484 L 388.856 461.278 L 397.463 500.824 L 401.766 648.468 L 406.069 777.705 L 410.372 804.018 L 414.676 807.551 L 418.979 523.287 L 423.282 507.14 L 427.585 519.581 L 431.888 520.982 L 436.192 526.206 L 440.495 524.573 L 444.798 518.525 L 449.101 512.797 L 453.405 506.972 L 457.708 504.62 L 462.011 503.614 L 466.314 503.495 L 470.618 503.178 L 479.224 515.106 L 483.527 528.192 L 487.83 535.757 L 492.134 548.635 L 496.437 524.57 L 500.74 478.748 L 505.043 327.912 L 509.347 250.545 L 517.953 378.217 L 535.166 702.47 L 543.772 737.037 L 548.076 780.088 L 552.379 762.614 L 556.682 569.268 L 560.985 563.908 L 565.289 581.008 L 569.592 573.235 L 578.198 574.143 L 582.502 558.323 L 586.805 560.505 L 591.108 571.806 L 599.714 546.459 L 604.018 552.249 L 608.321 558.292 L 612.624 563.944 L 616.927 548.765 L 621.231 550.498 L 625.534 534.334 L 629.837 541.469 L 634.14 551.31 L 638.444 557.564 L 642.747 558.845 L 647.05 563.097 L 651.353 558.03 L 655.656 562.14 L 659.96 565.967 L 664.263 564.108 L 668.566 564.34 L 672.869 560.186 L 677.173 597.892 L 681.476 583.917 L 685.779 609.454 L 690.082 662.291 L 694.386 517.635 L 698.689 472.439 L 702.992 427.67 L 707.295 451.874 L 771.844 765.169 L 776.147 756.958 L 784.753 697.501 L 789.057 682.109 L 793.36 611.062 L 797.663 777.878 L 801.966 758.82 L 806.27 560.669 L 810.573 577.099 L 814.876 605.45 L 819.179 580.49 L 823.482 612.8 L 827.786 620.97 L 832.089 594.344 L 836.392 587.977 L 840.695 554.222 L 844.999 563.94 L 849.302 772.857 L 853.605 727.309 L 857.908 547.939 L 862.212 553.8 L 866.515 613.451 L 870.818 622.688 L 875.121 592.99 L 879.424 642.701 L 883.728 641.169 L 888.031 627.894 L 892.334 588.439 L 896.637 559.781 L 900.941 550.186 L 905.244 580.277 L 909.547 592.125 L 913.85 608.76 L 918.154 577.215 L 922.457 591.641 L 926.76 591.69 L 931.063 578.319 L 935.366 543.122 L 939.67 481.497 L 943.973 695.169 L 948.276 704.565" stroke-width="3" stroke-dasharray="" stroke="#5f7700" stroke-opacity="1" fill="none" />
</g>
<g id="Scatter_7" clip-path="url(#Scatter_7_clip)">
    <path d="M 109.603 446.719 L 113.95 444.386 L 118.297 443.336 L 122.645 442.226 L 126.992 440.321 L 135.686 437.643 L 140.033 437.193 L 144.38 435.994 L 148.727 435.538 L 153.074 434.725 L 157.421 434.074 L 161.768 433.967 L 170.462 433.206 L 174.809 433.44 L 179.156 433.727 L 187.851 435.431 L 192.198 435.173 L 196.545 435.13 L 200.892 436.022 L 205.239 436.252 L 209.586 437.317 L 213.933 436.185 L 218.28 435.648 L 222.627 436.234 L 226.974 442.152 L 231.321 442.172 L 235.668 454.863 L 240.015 456.755 L 244.363 449.574 L 248.71 445.74 L 253.057 451.706 L 257.404 449.063 L 261.751 445.916 L 266.098 447.898 L 270.445 448.571 L 274.792 451.469 L 279.139 458.82 L 283.486 457.812 L 287.833 453.946 L 292.18 451.882 L 296.527 453.079 L 300.874 452.731 L 305.222 454.329 L 309.569 459.768 L 313.916 473.605 L 318.263 482.849 L 322.61 477.508 L 320.004 474.481 L 324.308 535.316 L 328.611 550.024 L 332.914 547.148 L 337.217 513.154 L 341.521 497.417 L 345.824 490.108 L 350.127 483.499 L 354.43 481.149 L 358.734 479.618 L 363.037 478.757 L 367.34 472.481 L 371.643 470.184 L 375.946 469.248 L 380.25 470.006 L 384.553 468.519 L 388.856 474.513 L 397.463 500.272 L 401.766 540.314 L 406.069 641.466 L 410.372 561.808 L 414.676 576.672 L 418.979 553.768 L 423.282 521.167 L 427.585 514.558 L 431.888 516.011 L 436.192 517.196 L 440.495 512.832 L 444.798 509.705 L 449.101 505.622 L 453.405 502.23 L 457.708 499.328 L 462.011 500.574 L 466.314 505.276 L 470.618 500.844 L 479.224 505.944 L 483.527 515.087 L 487.83 531.392 L 492.134 545.714 L 496.437 561.879 L 500.74 571.823 L 505.043 218.289 L 509.347 208.555 L 517.953 450.653 L 535.166 739.223 L 543.772 811.044 L 548.076 844.355 L 552.379 827.235 L 556.682 635.31 L 560.985 593.648 L 565.289 565.307 L 569.592 557.504 L 578.198 542.227 L 582.502 539.154 L 586.805 535.188 L 591.108 540.027 L 599.714 535.312 L 604.018 532.339 L 608.321 539.343 L 612.624 539.931 L 616.927 538.7 L 621.231 542.227 L 625.534 538.789 L 629.837 544.4 L 634.14 547.275 L 638.444 550.364 L 642.747 551.946 L 647.05 553.772 L 651.353 553.48 L 655.656 551.071 L 659.96 561.244 L 664.263 569.627 L 668.566 563.611 L 672.869 571.332 L 677.173 589.289 L 681.476 594.503 L 685.779 582.979 L 690.082 591.454 L 694.386 654.242 L 698.689 689.025 L 702.992 299.713 L 707.295 193.958 L 771.844 596.841 L 776.147 593.601 L 784.753 774.372 L 789.057 587.426 L 793.36 591.337 L 797.663 576.545 L 801.966 580.262 L 806.27 605.621 L 810.573 594.055 L 814.876 614.68 L 819.179 633.776 L 823.482 585.495 L 827.786 581.87 L 832.089 596.461 L 836.392 598.721 L 840.695 625.975 L 844.999 620.579 L 849.302 614.541 L 853.605 617.256 L 857.908 591.813 L 862.212 586.572 L 866.515 609.568 L 870.818 604.132 L 875.121 599.805 L 879.424 608.303 L 883.728 602.262 L 888.031 611.77 L 892.334 626.698 L 896.637 631.468 L 900.941 606.591 L 905.244 588.625 L 909.547 655.569 L 913.85 671.173 L 918.154 616.582 L 922.457 612.63 L 926.76 630.805 L 931.063 614.541 L 935.366 625.462 L 939.67 571.131 L 943.973 801.378 L 948.276 810.42" stroke-width="3" stroke-dasharray="" stroke="#2d00e4" stroke-opacity="1" fill="none" />
</g>
<g id="Scatter_8" clip-path="url(#Scatter_8_clip)">
    <path d="M 109.603 413.492 L 113.95 412.659 L 118.297 412.588 L 122.645 413.284 L 126.992 412.853 L 135.686 413.133 L 140.033 412.9 L 144.38 413.629 L 148.727 414.055 L 153.074 412.684 L 157.421 413.652 L 161.768 413.914 L 170.462 415.105 L 174.809 416.329 L 179.156 419.169 L 187.851 425.202 L 192.198 425.453 L 196.545 427.068 L 200.892 428.239 L 205.239 429.309 L 209.586 431.17 L 213.933 431.691 L 218.28 432.212 L 222.627 434.47 L 226.974 438.494 L 231.321 447.517 L 235.668 457.786 L 240.015 462.971 L 244.363 467.594 L 248.71 459.331 L 253.057 461.552 L 257.404 461.147 L 261.751 460.314 L 266.098 461.692 L 270.445 461.674 L 274.792 465.336 L 279.139 469.461 L 283.486 469.036 L 287.833 466.094 L 292.18 465.873 L 296.527 463.639 L 300.874 467.209 L 305.222 470.442 L 309.569 475.569 L 313.916 481.645 L 318.263 489.071 L 322.61 500.716 L 320.004 544.014 L 324.308 563.425 L 328.611 539.005 L 332.914 584.884 L 337.217 525.58 L 341.521 512.029 L 345.824 502.638 L 350.127 478.94 L 354.43 478.678 L 358.734 476.559 L 363.037 479.69 L 367.34 480.733 L 371.643 482.768 L 375.946 477.798 L 380.25 478.989 L 384.553 484.524 L 388.856 490.825 L 397.463 518.26 L 401.766 564.998 L 406.069 819.298 L 410.372 613.911 L 414.676 594.133 L 418.979 563.752 L 423.282 529.061 L 427.585 523.119 L 431.888 518.142 L 436.192 515.583 L 440.495 513.077 L 444.798 509.386 L 449.101 503.848 L 453.405 501.214 L 457.708 500 L 462.011 506.348 L 466.314 505.75 L 470.618 498.547 L 479.224 510.772 L 483.527 523.185 L 487.83 530.201 L 492.134 545.933 L 496.437 546.948 L 500.74 523.004 L 505.043 200.982 L 509.347 204.421 L 517.953 401.834 L 535.166 705.727 L 543.772 743.76 L 548.076 781.977 L 552.379 762.843 L 556.682 618.974 L 560.985 588.535 L 565.289 560.725 L 569.592 552.037 L 578.198 534.887 L 582.502 542.939 L 586.805 545.342 L 591.108 542.866 L 599.714 533.549 L 604.018 532.522 L 608.321 531.149 L 612.624 529.758 L 616.927 527.413 L 621.231 529.75 L 625.534 531.152 L 629.837 529.938 L 634.14 531.293 L 638.444 530.529 L 642.747 525.715 L 647.05 527.458 L 651.353 527.069 L 655.656 530.015 L 659.96 545.531 L 664.263 547.817 L 668.566 541.17 L 672.869 548.325 L 677.173 551.863 L 681.476 569.545 L 685.779 577.779 L 690.082 605.744 L 694.386 732.187 L 698.689 666.749 L 702.992 516.13 L 707.295 471.3 L 771.844 735.735 L 776.147 679.08 L 784.753 721.689 L 789.057 637.38 L 793.36 618.535 L 797.663 681.538 L 801.966 779.624 L 806.27 572.062 L 810.573 566.067 L 814.876 591.224 L 819.179 593.87 L 823.482 548.775 L 827.786 545.629 L 832.089 595.221 L 836.392 593.477 L 840.695 565.096 L 844.999 566.765 L 849.302 606.234 L 853.605 590.968 L 857.908 590.276 L 862.212 597.737 L 866.515 606.713 L 870.818 588.729 L 875.121 563.037 L 879.424 567.549 L 883.728 612.861 L 888.031 614.745 L 892.334 591.46 L 896.637 603.519 L 900.941 658.346 L 905.244 684.932 L 909.547 610.396 L 913.85 596.648 L 918.154 619.277 L 922.457 636.934 L 926.76 667.773 L 931.063 683.742 L 935.366 563.181 L 939.67 570.5 L 943.973 598.952 L 948.276 620.018" stroke-width="3" stroke-dasharray="" stroke="#356a00" stroke-opacity="1" fill="none" />
</g>
<g id="Scatter_9" clip-path="url(#Scatter_9_clip)">
    <path d="M 109.603 393.762 L 113.95 390.136 L 118.297 393.134 L 122.645 392.421 L 126.992 393.486 L 135.686 396.898 L 140.033 398.335 L 144.38 401.199 L 148.727 402.747 L 153.074 404.45 L 157.421 405.537 L 161.768 407.33 L 170.462 411.353 L 174.809 414.441 L 179.156 418.214 L 187.851 428.186 L 192.198 430.078 L 196.545 431.892 L 200.892 433.864 L 205.239 436.532 L 209.586 437.64 L 213.933 439.765 L 218.28 440.612 L 222.627 443.19 L 226.974 449.695 L 231.321 457.385 L 235.668 469.228 L 240.015 469.841 L 244.363 469.439 L 248.71 467.096 L 253.057 469.447 L 257.404 469.876 L 261.751 470.318 L 266.098 471.623 L 270.445 474.214 L 274.792 478.162 L 279.139 483.362 L 283.486 481.725 L 287.833 480.054 L 292.18 481.11 L 296.527 480.424 L 300.874 479.876 L 305.222 483.194 L 309.569 487.187 L 313.916 496.431 L 318.263 491.14 L 322.61 515.265 L 320.004 484.585 L 324.308 468.199 L 328.611 495.235 L 332.914 491.945 L 337.217 493.923 L 341.521 504.727 L 345.824 496.645 L 350.127 489.044 L 354.43 490.962 L 358.734 485.592 L 363.037 483.906 L 367.34 484.145 L 371.643 483.06 L 375.946 485.045 L 380.25 486.811 L 384.553 493.192 L 388.856 494.336 L 397.463 535.426 L 401.766 698.079 L 406.069 809.02 L 410.372 596.971 L 414.676 619.415 L 418.979 554.781 L 423.282 525.957 L 427.585 529.068 L 431.888 536.74 L 436.192 534.448 L 440.495 531.791 L 444.798 510.526 L 449.101 512.882 L 453.405 501.337 L 457.708 499.707 L 462.011 518.251 L 466.314 515.954 L 470.618 504.179 L 479.224 513.339 L 483.527 520.647 L 487.83 540.26 L 492.134 555.145 L 496.437 544.974 L 500.74 512.859 L 505.043 324.158 L 509.347 212.981 L 517.953 212.981 L 535.166 704.762 L 543.772 756.105 L 548.076 782.382 L 552.379 762.741 L 556.682 788.799 L 560.985 660.129 L 565.289 603.821 L 569.592 580.129 L 578.198 565.457 L 582.502 543.054 L 586.805 540.346 L 591.108 552.108 L 599.714 544.895 L 604.018 547.169 L 608.321 539.248 L 612.624 544.682 L 616.927 541.423 L 621.231 535.728 L 625.534 540.287 L 629.837 539.992 L 634.14 537.72 L 638.444 533.146 L 642.747 539.433 L 647.05 543.601 L 651.353 551.135 L 655.656 555.328 L 659.96 564.452 L 664.263 568.675 L 668.566 573.909 L 672.869 573.294 L 677.173 585.931 L 681.476 596.138 L 685.779 628.564 L 690.082 643.634 L 694.386 633.362 L 698.689 525.567 L 702.992 252.939 L 707.295 125.004 L 771.844 558.277 L 776.147 551.554 L 784.753 705.976 L 789.057 570.021 L 793.36 568.764 L 797.663 602.528 L 801.966 760.911 L 806.27 548.509 L 810.573 566.488 L 814.876 620 L 819.179 596.358 L 823.482 597.523 L 827.786 576.628 L 832.089 726.456 L 836.392 654.042 L 840.695 540.715 L 844.999 548.087 L 849.302 796.55 L 853.605 721.714 L 857.908 568.962 L 862.212 573.682 L 866.515 611.51 L 870.818 591.355 L 875.121 568.348 L 879.424 570.674 L 883.728 549.194 L 888.031 568.503 L 892.334 611.919 L 896.637 668.124 L 900.941 556.298 L 905.244 553.059 L 909.547 697.437 L 913.85 632.789 L 918.154 520.259 L 922.457 508.534 L 926.76 745.318 L 931.063 745.818 L 935.366 617.018 L 939.67 724.05 L 943.973 722.423 L 948.276 547.57" stroke-width="3" stroke-dasharray="" stroke="#6400c8" stroke-opacity="1" fill="none" />
</g>
<g id="Scatter_10" clip-path="url(#Scatter_10_clip)">
    <path d="M 109.603 414.213 L 113.95 416.574 L 118.297 418.693 L 122.645 418.847 L 126.992 418.949 L 135.686 422.195 L 140.033 423.149 L 144.38 426.154 L 148.727 427.301 L 153.074 428.664 L 157.421 430.281 L 161.768 431.402 L 170.462 434.778 L 174.809 436.916 L 179.156 440.868 L 187.851 443.858 L 192.198 444.479 L 196.545 447.411 L 200.892 448.538 L 205.239 451.262 L 209.586 450.415 L 213.933 452.97 L 218.28 452.701 L 222.627 456.311 L 226.974 460.084 L 231.321 463.187 L 235.668 470.151 L 240.015 470.731 L 244.363 467.488 L 248.71 467.587 L 253.057 467.948 L 257.404 467.733 L 261.751 468.952 L 266.098 469.094 L 270.445 470.889 L 274.792 474.855 L 279.139 476.676 L 283.486 476.047 L 287.833 474.028 L 292.18 475.359 L 296.527 476.366 L 300.874 477.398 L 305.222 474.771 L 309.569 487.272 L 313.916 492.915 L 318.263 505.108 L 322.61 488.157 L 320.004 467.07 L 324.308 453.912 L 328.611 463.394 L 332.914 521.642 L 337.217 497.871 L 341.521 485.958 L 345.824 478.339 L 350.127 472.925 L 354.43 475.504 L 358.734 474.767 L 363.037 474.185 L 367.34 469.302 L 371.643 469.465 L 375.946 468.808 L 380.25 468.936 L 384.553 463.423 L 388.856 466.791 L 397.463 504.365 L 401.766 540.691 L 406.069 538.934 L 410.372 684.336 L 414.676 698.35 L 418.979 532.833 L 423.282 515.574 L 427.585 520.983 L 431.888 519.143 L 436.192 524.074 L 440.495 521.149 L 444.798 515.956 L 449.101 509.234 L 453.405 498.001 L 457.708 495.899 L 462.011 502.734 L 466.314 502.268 L 470.618 503.413 L 479.224 509.481 L 483.527 519.483 L 487.83 538.006 L 492.134 559.539 L 496.437 540.105 L 500.74 503.342 L 505.043 253.877 L 509.347 216.357 L 517.953 393.295 L 535.166 671.076 L 543.772 742.203 L 548.076 780.664 L 552.379 762.678 L 556.682 580.637 L 560.985 559.4 L 565.289 555.98 L 569.592 549.635 L 578.198 546.439 L 582.502 534.404 L 586.805 531.538 L 591.108 533.062 L 599.714 531.896 L 604.018 528.511 L 608.321 537.265 L 612.624 532.907 L 616.927 527.332 L 621.231 530.664 L 625.534 529.86 L 629.837 529.595 L 634.14 539.47 L 638.444 539.104 L 642.747 546.266 L 647.05 547.536 L 651.353 543.001 L 655.656 543.376 L 659.96 555.962 L 664.263 554.236 L 668.566 552.39 L 672.869 553.517 L 677.173 565.881 L 681.476 589.88 L 685.779 608.792 L 690.082 729.462 L 694.386 572.586 L 698.689 534.369 L 702.992 545.402 L 707.295 614.268 L 771.844 658.468 L 776.147 756.721 L 784.753 698.615 L 789.057 607.129 L 793.36 593.811 L 797.663 598.3 L 801.966 598.876 L 806.27 579.65 L 810.573 570.418 L 814.876 569.924 L 819.179 579.958 L 823.482 570.523 L 827.786 566.26 L 832.089 573.305 L 836.392 569.269 L 840.695 591.828 L 844.999 589.82 L 849.302 618.44 L 853.605 613.957 L 857.908 573.244 L 862.212 569.235 L 866.515 591.06 L 870.818 588.092 L 875.121 580.91 L 879.424 597.418 L 883.728 620.959 L 888.031 608.724 L 892.334 607.362 L 896.637 622.54 L 900.941 592.878 L 905.244 586.146 L 909.547 622.66 L 913.85 639.412 L 918.154 562.763 L 922.457 558.01 L 926.76 641.453 L 931.063 599.981 L 935.366 751.798 L 939.67 743.661 L 943.973 736.437 L 948.276 748.861" stroke-width="3" stroke-dasharray="" stroke="#146500" stroke-opacity="1" fill="none" />
</g>
<g id="Scatter_11" clip-path="url(#Scatter_11_clip)">
    <path d="M 109.603 417.878 L 113.95 413.835 L 118.297 413.739 L 122.645 412.509 L 126.992 411.244 L 135.686 410.427 L 140.033 411.069 L 144.38 410.402 L 148.727 410.645 L 153.074 409.389 L 157.421 410.671 L 161.768 409.779 L 170.462 410.36 L 174.809 411.807 L 179.156 413.715 L 187.851 422.245 L 192.198 423.004 L 196.545 423.42 L 200.892 425.023 L 205.239 426.138 L 209.586 428.282 L 213.933 428.997 L 218.28 430.228 L 222.627 430.905 L 226.974 437.027 L 231.321 445.201 L 235.668 458.003 L 240.015 461.048 L 244.363 461.771 L 248.71 457.062 L 253.057 458.384 L 257.404 458.861 L 261.751 457.138 L 266.098 459.029 L 270.445 459.896 L 274.792 464.395 L 279.139 467.945 L 283.486 467.987 L 287.833 465.513 L 292.18 464.215 L 296.527 464.683 L 300.874 466.842 L 305.222 467.175 L 309.569 473.641 L 313.916 489.429 L 318.263 489.326 L 322.61 479.004 L 320.004 537.681 L 324.308 549.287 L 328.611 540.825 L 332.914 507.939 L 337.217 492.033 L 341.521 497.091 L 345.824 489.286 L 350.127 482.989 L 354.43 481.131 L 358.734 477.644 L 363.037 481.321 L 367.34 482.959 L 371.643 484.866 L 375.946 481.666 L 380.25 481.03 L 384.553 490.075 L 388.856 495.191 L 397.463 514.672 L 401.766 635.513 L 406.069 826.662 L 410.372 652.664 L 414.676 666.418 L 418.979 568.901 L 423.282 538.094 L 427.585 520.892 L 431.888 520.474 L 436.192 525.959 L 440.495 525.361 L 444.798 520.219 L 449.101 515.094 L 453.405 514.77 L 457.708 512.874 L 462.011 513.115 L 466.314 509.38 L 470.618 506.399 L 479.224 521.067 L 483.527 528.789 L 487.83 542.867 L 492.134 555.628 L 496.437 543.778 L 500.74 498.511 L 505.043 302.09 L 509.347 409.997 L 517.953 409.997 L 535.166 722.026 L 543.772 772.225 L 548.076 809.659 L 552.379 791.286 L 556.682 563.249 L 560.985 561.66 L 565.289 584.963 L 569.592 582.593 L 578.198 563.286 L 582.502 562.989 L 586.805 558.33 L 591.108 549.415 L 599.714 551.419 L 604.018 545.351 L 608.321 545.622 L 612.624 543.187 L 616.927 540.29 L 621.231 540.233 L 625.534 544.447 L 629.837 546.331 L 634.14 545.436 L 638.444 547.85 L 642.747 546.54 L 647.05 544.749 L 651.353 547.046 L 655.656 545.713 L 659.96 553.597 L 664.263 556.322 L 668.566 556.961 L 672.869 561.621 L 677.173 564.89 L 681.476 578.231 L 685.779 587.412 L 690.082 595.667 L 694.386 550.455 L 698.689 507.007 L 702.992 426.548 L 707.295 375.748 L 771.844 782.301 L 776.147 770.388 L 784.753 570.766 L 789.057 766.556 L 793.36 655.193 L 797.663 643.971 L 801.966 637.714 L 806.27 561.576 L 810.573 571.774 L 814.876 571.774 L 819.179 571.936 L 823.482 595.523 L 827.786 636.717 L 832.089 671.318 L 836.392 695.224 L 840.695 584.198 L 844.999 568.912 L 849.302 584.82 L 853.605 612.395 L 857.908 579.337 L 862.212 575.898 L 866.515 557.312 L 870.818 564.144 L 875.121 563.375 L 879.424 562.281 L 883.728 533.081 L 888.031 530.127 L 892.334 586.085 L 896.637 591.561 L 900.941 528.239 L 905.244 518.587 L 909.547 592.245 L 913.85 617.619 L 918.154 584.497 L 922.457 598.356 L 926.76 739.862 L 931.063 621.184 L 935.366 565.704 L 939.67 566.265 L 943.973 665.219 L 948.276 666.692" stroke-width="3" stroke-dasharray="" stroke="#600078" stroke-opacity="1" fill="none" />
</g>
<g id="Scatter_12" clip-path="url(#Scatter_12_clip)">
    <path d="M 109.603 390.566 L 113.95 389.588 L 118.297 390.579 L 122.645 389.489 L 126.992 390.115 L 135.686 393.26 L 140.033 393.304 L 144.38 395.662 L 148.727 397.564 L 153.074 398.15 L 157.421 398.393 L 161.768 400.232 L 170.462 402.163 L 174.809 406.316 L 179.156 409.197 L 187.851 419.319 L 192.198 421.001 L 196.545 423.398 L 200.892 425.107 L 205.239 425.636 L 209.586 428.674 L 213.933 430.557 L 218.28 431.316 L 222.627 433.176 L 226.974 437.479 L 231.321 447.328 L 235.668 455.784 L 240.015 458.991 L 244.363 455.655 L 248.71 456.875 L 253.057 456.198 L 257.404 458.064 L 261.751 459.334 L 266.098 462.082 L 270.445 461.862 L 274.792 465.925 L 279.139 471.416 L 283.486 466.146 L 287.833 466.401 L 292.18 467.062 L 296.527 467.177 L 300.874 469.211 L 305.222 469.139 L 309.569 475.688 L 313.916 485.586 L 318.263 479.349 L 322.61 488.372 L 320.004 498.898 L 324.308 533.599 L 328.611 550.187 L 332.914 463.986 L 337.217 464.228 L 341.521 504.944 L 345.824 493.637 L 350.127 485.529 L 354.43 488.163 L 358.734 490.567 L 363.037 487.986 L 367.34 484.498 L 371.643 487.424 L 375.946 500.541 L 380.25 499.425 L 384.553 490.436 L 388.856 492.083 L 397.463 542.407 L 401.766 566.079 L 406.069 660.334 L 410.372 812.009 L 414.676 595.477 L 418.979 516.12 L 423.282 509.936 L 427.585 516.358 L 431.888 518.011 L 436.192 517.06 L 440.495 520.204 L 444.798 532.956 L 449.101 524.705 L 453.405 507.539 L 457.708 503.652 L 462.011 514.944 L 466.314 509.359 L 470.618 513.683 L 479.224 523.844 L 483.527 531.154 L 487.83 535.455 L 492.134 539.842 L 496.437 529.819 L 500.74 498.289 L 505.043 139.659 L 509.347 122.5 L 517.953 352.735 L 535.166 670.864 L 543.772 716.457 L 548.076 753.256 L 552.379 733.568 L 556.682 584.949 L 560.985 605.275 L 565.289 559.977 L 569.592 558.758 L 578.198 542.038 L 582.502 546.103 L 586.805 546.44 L 591.108 549.341 L 599.714 539.531 L 604.018 533.639 L 608.321 536.498 L 612.624 537.663 L 616.927 529.585 L 621.231 533.722 L 625.534 542.881 L 629.837 540.857 L 634.14 538.438 L 638.444 535.432 L 642.747 547.753 L 647.05 549.799 L 651.353 539.956 L 655.656 550.094 L 659.96 551.522 L 664.263 551.89 L 668.566 536.835 L 672.869 533.965 L 677.173 563.032 L 681.476 604.037 L 685.779 630.752 L 690.082 753.935 L 694.386 699.014 L 698.689 589.164 L 702.992 352.735 L 707.295 352.735 L 771.844 618.928 L 776.147 632.817 L 784.753 555.476 L 789.057 561.583 L 793.36 576.523 L 797.663 648.731 L 801.966 748.849 L 806.27 622.448 L 810.573 635.637 L 814.876 778.537 L 819.179 708.744 L 823.482 630.41 L 827.786 611.419 L 832.089 599.16 L 836.392 580.13 L 840.695 594.429 L 844.999 594.512 L 849.302 781.4 L 853.605 780.497 L 857.908 590.768 L 862.212 585.909 L 866.515 652.796 L 870.818 623.452 L 875.121 580.418 L 879.424 565.201 L 883.728 599.412 L 888.031 621.276 L 892.334 598.219 L 896.637 568.407 L 900.941 639.469 L 905.244 633.296 L 909.547 756.907 L 913.85 679.256 L 918.154 589.699 L 922.457 614.637 L 926.76 572.875 L 931.063 542.691 L 935.366 684.053 L 939.67 611.441 L 943.973 715.265 L 948.276 711.238" stroke-width="3" stroke-dasharray="" stroke="#006a0a" stroke-opacity="1" fill="none" />
</g>
<g id="Scatter_13" clip-path="url(#Scatter_13_clip)">
    <path d="M 109.603 424.261 L 113.95 418.836 L 118.297 418.861 L 122.645 416.515 L 126.992 416.807 L 135.686 413.938 L 140.033 413.552 L 144.38 412.935 L 148.727 412.049 L 153.074 410.776 L 157.421 410.554 L 161.768 410.132 L 170.462 409.847 L 174.809 409.912 L 179.156 411.922 L 187.851 417.599 L 192.198 418.754 L 196.545 419.146 L 200.892 419.85 L 205.239 420.878 L 209.586 421.909 L 213.933 422.647 L 218.28 423.108 L 222.627 423.741 L 226.974 430.276 L 231.321 437.808 L 235.668 452.152 L 240.015 456.218 L 244.363 451.946 L 248.71 450.2 L 253.057 453.162 L 257.404 451.947 L 261.751 451.001 L 266.098 452.532 L 270.445 452.51 L 274.792 457.066 L 279.139 461.463 L 283.486 465.364 L 287.833 458.9 L 292.18 460.757 L 296.527 459.243 L 300.874 461.528 L 305.222 462.628 L 309.569 468.804 L 313.916 477.141 L 318.263 490.113 L 322.61 480.979 L 320.004 488.66 L 324.308 511.215 L 328.611 517.296 L 332.914 535.128 L 337.217 511.15 L 341.521 492.411 L 345.824 483.258 L 350.127 483.778 L 354.43 482.059 L 358.734 472.136 L 363.037 471.784 L 367.34 474.199 L 371.643 473.348 L 375.946 474.827 L 380.25 475.406 L 384.553 481.011 L 388.856 486.519 L 397.463 509.897 L 401.766 569.005 L 406.069 835.313 L 410.372 609.308 L 414.676 619.332 L 418.979 553.454 L 423.282 527.426 L 427.585 520.467 L 431.888 519.089 L 436.192 512.099 L 440.495 509.618 L 444.798 505.208 L 449.101 501.536 L 453.405 500.157 L 457.708 499.253 L 462.011 496.097 L 466.314 498.889 L 470.618 499.518 L 479.224 499.922 L 483.527 504.478 L 487.83 530.582 L 492.134 545.927 L 496.437 539.875 L 500.74 503.468 L 505.043 304.841 L 509.347 388.834 L 517.953 196.935 L 535.166 753.436 L 543.772 802.201 L 548.076 832.505 L 552.379 818.168 L 556.682 695.895 L 560.985 617.822 L 565.289 586.573 L 569.592 576.898 L 578.198 566.926 L 582.502 562.093 L 586.805 552.239 L 591.108 546.315 L 599.714 544.017 L 604.018 544.293 L 608.321 543.507 L 612.624 539.113 L 616.927 541.65 L 621.231 539.978 L 625.534 548.278 L 629.837 545.461 L 634.14 540.39 L 638.444 542.42 L 642.747 544.49 L 647.05 546.193 L 651.353 548.93 L 655.656 556.201 L 659.96 559.492 L 664.263 563.414 L 668.566 549.822 L 672.869 552.401 L 677.173 579.633 L 681.476 623.896 L 685.779 601.754 L 690.082 622.58 L 694.386 596.628 L 698.689 501.067 L 702.992 271.557 L 707.295 332.463 L 771.844 696.009 L 776.147 809.405 L 784.753 735.494 L 789.057 588.274 L 793.36 591.201 L 797.663 662.113 L 801.966 801.635 L 806.27 644.729 L 810.573 625.917 L 814.876 570.497 L 819.179 552.884 L 823.482 635.627 L 827.786 650.401 L 832.089 651.12 L 836.392 628.414 L 840.695 603.513 L 844.999 581.466 L 849.302 622.508 L 853.605 637.609 L 857.908 615.225 L 862.212 616.444 L 866.515 579.147 L 870.818 584.751 L 875.121 586.133 L 879.424 579.147 L 883.728 575.483 L 888.031 572.662 L 892.334 575.264 L 896.637 576.998 L 900.941 553.548 L 905.244 552.5 L 909.547 645.852 L 913.85 691.637 L 918.154 588.619 L 922.457 587.026 L 926.76 581.684 L 931.063 570.633 L 935.366 583.117 L 939.67 624.697 L 943.973 755.162 L 948.276 741.328" stroke-width="3" stroke-dasharray="" stroke="#6d0062" stroke-opacity="1" fill="none" />
</g>
<g id="Scatter_14" clip-path="url(#Scatter_14_clip)">
    <path d="M 109.603 425.95 L 113.95 427.83 L 118.297 427.182 L 122.645 426.909 L 126.992 426.966 L 135.686 426.198 L 140.033 426.735 L 144.38 427.569 L 148.727 426.759 L 153.074 426.589 L 157.421 426.354 L 161.768 427.354 L 170.462 428.901 L 174.809 428.747 L 179.156 431.882 L 187.851 436.688 L 192.198 436.224 L 196.545 437.019 L 200.892 438.449 L 205.239 440.623 L 209.586 440.361 L 213.933 440.512 L 218.28 440.544 L 222.627 442.711 L 226.974 447.909 L 231.321 454.877 L 235.668 467.175 L 240.015 467.727 L 244.363 464.04 L 248.71 462.213 L 253.057 465.73 L 257.404 464.347 L 261.751 463.775 L 266.098 466.969 L 270.445 467.66 L 274.792 472.351 L 279.139 474.48 L 283.486 475.523 L 287.833 472.198 L 292.18 472.388 L 296.527 469.879 L 300.874 471.701 L 305.222 474.962 L 309.569 482.736 L 313.916 491.932 L 318.263 501.579 L 322.61 484.054 L 320.004 494.217 L 324.308 532.651 L 328.611 524.745 L 332.914 527.798 L 337.217 500.504 L 341.521 499.563 L 345.824 485.964 L 350.127 473.45 L 354.43 472.172 L 358.734 471.174 L 363.037 466.628 L 367.34 468.855 L 371.643 467.594 L 375.946 471.944 L 380.25 469.619 L 384.553 469.692 L 388.856 474.384 L 397.463 498.369 L 401.766 547.62 L 406.069 587.559 L 410.372 562.466 L 414.676 574.467 L 418.979 539.375 L 423.282 514.616 L 427.585 506.748 L 431.888 505.767 L 436.192 501.579 L 440.495 501.883 L 444.798 498.345 L 449.101 494.093 L 453.405 488.245 L 457.708 485.795 L 462.011 488.217 L 466.314 486.998 L 470.618 488.465 L 479.224 503.354 L 483.527 515.476 L 487.83 526.679 L 492.134 551.347 L 496.437 556.587 L 500.74 530.34 L 505.043 293.709 L 509.347 293.709 L 517.953 497.832 L 535.166 689.09 L 543.772 787.896 L 548.076 820.652 L 552.379 801.243 L 556.682 580.919 L 560.985 594.069 L 565.289 597.168 L 569.592 583.261 L 578.198 562.823 L 582.502 559.102 L 586.805 553.278 L 591.108 547.869 L 599.714 547.161 L 604.018 547.531 L 608.321 543.079 L 612.624 540.891 L 616.927 538.665 L 621.231 540.665 L 625.534 542.575 L 629.837 545.205 L 634.14 542.142 L 638.444 545.277 L 642.747 544.774 L 647.05 550.632 L 651.353 542.949 L 655.656 550.004 L 659.96 562.419 L 664.263 568.771 L 668.566 565.235 L 672.869 570.657 L 677.173 585.798 L 681.476 607.121 L 685.779 615.954 L 690.082 649.608 L 694.386 650.705 L 698.689 561.155 L 702.992 320.894 L 707.295 331.229 L 771.844 638.804 L 776.147 640.604 L 784.753 650.857 L 789.057 603.644 L 793.36 609.585 L 797.663 634.978 L 801.966 657.99 L 806.27 672.056 L 810.573 629.95 L 814.876 605.739 L 819.179 599.783 L 823.482 627.585 L 827.786 652.329 L 832.089 626.933 L 836.392 616.136 L 840.695 591.932 L 844.999 588.971 L 849.302 636.178 L 853.605 634.925 L 857.908 591.057 L 862.212 586.946 L 866.515 619.041 L 870.818 620.017 L 875.121 592.232 L 879.424 593.285 L 883.728 615.593 L 888.031 625.694 L 892.334 602.93 L 896.637 589.871 L 900.941 601.113 L 905.244 603.885 L 909.547 593.216 L 913.85 627.441 L 918.154 588.505 L 922.457 581.953 L 926.76 538.748 L 931.063 519.017 L 935.366 787.6 L 939.67 766.101 L 943.973 546.42 L 948.276 563.593" stroke-width="3" stroke-dasharray="" stroke="#00762f" stroke-opacity="1" fill="none" />
</g>
<g id="Scatter_15" clip-path="url(#Scatter_15_clip)">
    <path d="M 109.603 377.857 L 113.95 376.73 L 118.297 377.257 L 122.645 376.761 L 126.992 375.526 L 135.686 376.745 L 140.033 378.176 L 144.38 377.929 L 148.727 380.493 L 153.074 379.277 L 157.421 381.208 L 161.768 382.203 L 170.462 382.68 L 174.809 385.584 L 179.156 386.807 L 187.851 394.454 L 192.198 394.807 L 196.545 395.98 L 200.892 398.109 L 205.239 398.238 L 209.586 401.598 L 213.933 401.728 L 218.28 402.11 L 222.627 403.067 L 226.974 408.719 L 231.321 415.053 L 235.668 426.21 L 240.015 432.117 L 244.363 428.156 L 248.71 422.925 L 253.057 427.294 L 257.404 429.506 L 261.751 426.633 L 266.098 428.099 L 270.445 430.088 L 274.792 434.099 L 279.139 441.951 L 283.486 441.048 L 287.833 439.637 L 292.18 436.916 L 296.527 438.378 L 300.874 435.912 L 305.222 439.009 L 309.569 445.273 L 313.916 455.482 L 318.263 470.862 L 322.61 451.839 L 320.004 477.107 L 324.308 499.163 L 328.611 529.445 L 332.914 643.848 L 337.217 548.338 L 341.521 505.263 L 345.824 495.18 L 350.127 485.282 L 354.43 487.334 L 358.734 473.63 L 363.037 474.419 L 367.34 484.936 L 371.643 488.392 L 375.946 482.294 L 380.25 482.044 L 384.553 484.376 L 388.856 487.697 L 397.463 496.947 L 401.766 519.982 L 406.069 533.857 L 410.372 541.417 L 414.676 548.63 L 418.979 532.546 L 423.282 518.816 L 427.585 511.475 L 431.888 515.465 L 436.192 523.678 L 440.495 518.485 L 444.798 510.184 L 449.101 516.501 L 453.405 512.032 L 457.708 512.255 L 462.011 506.672 L 466.314 501.9 L 470.618 511.889 L 479.224 525.941 L 483.527 534.534 L 487.83 536.772 L 492.134 545.887 L 496.437 548.68 L 500.74 533.085 L 505.043 139.919 L 509.347 201.353 L 517.953 355.732 L 535.166 692.121 L 543.772 732.557 L 548.076 778.297 L 552.379 761.658 L 556.682 661.52 L 560.985 574.853 L 565.289 592.76 L 569.592 586.282 L 578.198 565.46 L 582.502 570.954 L 586.805 554.436 L 591.108 559.106 L 599.714 558.381 L 604.018 556.232 L 608.321 554.681 L 612.624 556.914 L 616.927 550.788 L 621.231 550.763 L 625.534 559.142 L 629.837 558.26 L 634.14 559.012 L 638.444 561.287 L 642.747 554.032 L 647.05 558.091 L 651.353 559.404 L 655.656 558.705 L 659.96 566.919 L 664.263 577.493 L 668.566 562.482 L 672.869 576.262 L 677.173 587.07 L 681.476 582.898 L 685.779 612.232 L 690.082 615.975 L 694.386 705.736 L 698.689 631.35 L 702.992 545.688 L 707.295 423.556 L 771.844 757.436 L 776.147 747.324 L 784.753 684.611 L 789.057 755.047 L 793.36 782.463 L 797.663 777.308 L 801.966 755.221 L 806.27 588.417 L 810.573 595.243 L 814.876 640.577 L 819.179 652.199 L 823.482 602.163 L 827.786 618.017 L 832.089 746.144 L 836.392 792.518 L 840.695 661.753 L 844.999 668.502 L 849.302 694.197 L 853.605 625.179 L 857.908 628.544 L 862.212 661.169 L 866.515 602.696 L 870.818 580.682 L 875.121 614.578 L 879.424 618.139 L 883.728 627.582 L 888.031 611.089 L 892.334 601.788 L 896.637 581.351 L 900.941 604.414 L 905.244 667.921 L 909.547 630.241 L 913.85 595.806 L 918.154 594.295 L 922.457 666.689 L 926.76 737.924 L 931.063 569.733 L 935.366 730.585 L 939.67 715.812 L 943.973 460.621 L 948.276 440.313" stroke-width="3" stroke-dasharray="" stroke="#bc0071" stroke-opacity="1" fill="none" />
</g>
<g id="Scatter_16" clip-path="url(#Scatter_16_clip)">
    <path d="M 109.603 442.64 L 113.95 441.953 L 118.297 440.282 L 122.645 436.967 L 126.992 434.462 L 135.686 429.968 L 140.033 428.604 L 144.38 427.269 L 148.727 425.438 L 153.074 423.854 L 157.421 423.2 L 161.768 421.589 L 170.462 419.706 L 174.809 419.77 L 179.156 419.753 L 187.851 421.897 L 192.198 421.84 L 196.545 422.212 L 200.892 422.231 L 205.239 422.298 L 209.586 423.299 L 213.933 422.185 L 218.28 421.395 L 222.627 422.25 L 226.974 428.14 L 231.321 432.649 L 235.668 446.858 L 240.015 449.451 L 244.363 443.086 L 248.71 439.091 L 253.057 445.739 L 257.404 443.326 L 261.751 440.58 L 266.098 441.123 L 270.445 440.613 L 274.792 446.587 L 279.139 451.475 L 283.486 451.976 L 287.833 445.746 L 292.18 445.324 L 296.527 444.162 L 300.874 443.494 L 305.222 444.881 L 309.569 450.198 L 313.916 465.255 L 318.263 469.741 L 322.61 478.306 L 320.004 471.109 L 324.308 511.841 L 328.611 527.35 L 332.914 515.385 L 337.217 490.927 L 341.521 477.393 L 345.824 467.823 L 350.127 455.027 L 354.43 456.961 L 358.734 456.44 L 363.037 456.986 L 367.34 455.518 L 371.643 454.155 L 375.946 453.245 L 380.25 450.074 L 384.553 457.901 L 388.856 460.731 L 397.463 482.861 L 401.766 507.36 L 406.069 585.553 L 410.372 555.858 L 414.676 560.706 L 418.979 531.224 L 423.282 502.593 L 427.585 492.392 L 431.888 494.752 L 436.192 491.504 L 440.495 488.043 L 444.798 485.014 L 449.101 483.135 L 453.405 477.085 L 457.708 474.158 L 462.011 479.222 L 466.314 480.434 L 470.618 477.761 L 479.224 484.822 L 483.527 498.031 L 487.83 510.214 L 492.134 530.12 L 496.437 548.886 L 500.74 553.817 L 505.043 269.798 L 509.347 291.149 L 517.953 477.04 L 535.166 763.774 L 543.772 824.458 L 548.076 847.5 L 552.379 827.044 L 556.682 603.195 L 560.985 597.006 L 565.289 588.274 L 569.592 579.356 L 578.198 567.494 L 582.502 559.912 L 586.805 551.496 L 591.108 542.568 L 599.714 538.391 L 604.018 535.994 L 608.321 536.894 L 612.624 535.953 L 616.927 526.885 L 621.231 525.387 L 625.534 531.514 L 629.837 525.614 L 634.14 530.873 L 638.444 531.197 L 642.747 529.095 L 647.05 528.896 L 651.353 532.82 L 655.656 535.908 L 659.96 542.974 L 664.263 550.587 L 668.566 560.502 L 672.869 562.423 L 677.173 569.202 L 681.476 579.899 L 685.779 604.546 L 690.082 636.514 L 694.386 603.391 L 698.689 555.489 L 702.992 720.926 L 707.295 730.755 L 771.844 839.87 L 776.147 781.65 L 784.753 783.757 L 789.057 626.357 L 793.36 619.123 L 797.663 606.187 L 801.966 615.555 L 806.27 793.397 L 810.573 700.451 L 814.876 606.032 L 819.179 607.506 L 823.482 628.483 L 827.786 632.227 L 832.089 654.74 L 836.392 646.102 L 840.695 607.328 L 844.999 610.3 L 849.302 612.235 L 853.605 611.61 L 857.908 589.053 L 862.212 588.672 L 866.515 609.047 L 870.818 607.088 L 875.121 598.325 L 879.424 598.374 L 883.728 616.219 L 888.031 615.692 L 892.334 616.728 L 896.637 608.051 L 900.941 613.605 L 905.244 620.523 L 909.547 596.868 L 913.85 610.963 L 918.154 595.383 L 922.457 591.657 L 926.76 666.203 L 931.063 626.794 L 935.366 687.263 L 939.67 579.113 L 943.973 543.241 L 948.276 541.819" stroke-width="3" stroke-dasharray="" stroke="#007d57" stroke-opacity="1" fill="none" />
</g>
<g id="Scatter_17" clip-path="url(#Scatter_17_clip)">
    <path d="M 109.603 426.22 L 113.95 424.536 L 118.297 421.087 L 122.645 418.994 L 126.992 416.1 L 135.686 412.971 L 140.033 412.204 L 144.38 409.653 L 148.727 409.232 L 153.074 407.52 L 157.421 407.151 L 161.768 406.257 L 170.462 404.584 L 174.809 404.698 L 179.156 403.931 L 187.851 404.693 L 192.198 404.639 L 196.545 402.997 L 200.892 405.608 L 205.239 403.14 L 209.586 405.993 L 213.933 404.44 L 218.28 402.965 L 222.627 402.803 L 226.974 409.443 L 231.321 409.1 L 235.668 421.18 L 240.015 424.29 L 244.363 416.623 L 248.71 411.869 L 253.057 417.8 L 257.404 416.912 L 261.751 414.355 L 266.098 416.656 L 270.445 416.81 L 274.792 418.882 L 279.139 427.91 L 283.486 425.821 L 287.833 421.59 L 292.18 420.721 L 296.527 419.443 L 300.874 418.657 L 305.222 419.352 L 309.569 421.82 L 313.916 435.014 L 318.263 446.93 L 322.61 445.998 L 320.004 451.834 L 324.308 507.81 L 328.611 525.687 L 332.914 503.141 L 337.217 493.436 L 341.521 480.156 L 345.824 470.527 L 350.127 457.737 L 354.43 455.268 L 358.734 458.402 L 363.037 457.269 L 367.34 449.562 L 371.643 448.447 L 375.946 446.611 L 380.25 445.244 L 384.553 450.817 L 388.856 455.255 L 397.463 475.131 L 401.766 496.721 L 406.069 608.208 L 410.372 558.766 L 414.676 551.183 L 418.979 528.685 L 423.282 504.828 L 427.585 501.173 L 431.888 498.758 L 436.192 494.13 L 440.495 495.391 L 444.798 489.843 L 449.101 490.936 L 453.405 480.175 L 457.708 481.633 L 462.011 482.043 L 466.314 484.668 L 470.618 485.738 L 479.224 488.91 L 483.527 502.449 L 487.83 509.259 L 492.134 523.101 L 496.437 556.24 L 500.74 556.411 L 505.043 210.016 L 509.347 221.407 L 517.953 395.907 L 535.166 699.075 L 543.772 777.423 L 548.076 810.114 L 552.379 795.222 L 556.682 808.423 L 560.985 668.144 L 565.289 585.514 L 569.592 578.715 L 578.198 578.457 L 582.502 566.352 L 586.805 565.797 L 591.108 560.894 L 599.714 555.653 L 604.018 554.048 L 608.321 549.67 L 612.624 546.67 L 616.927 545.546 L 621.231 543.526 L 625.534 547.199 L 629.837 545.87 L 634.14 542.073 L 638.444 542.81 L 642.747 542.559 L 647.05 542.972 L 651.353 546.443 L 655.656 551.634 L 659.96 551.174 L 664.263 551.263 L 668.566 569.325 L 672.869 570.181 L 677.173 581.798 L 681.476 600.289 L 685.779 657.744 L 690.082 695.789 L 694.386 594.717 L 698.689 577.471 L 702.992 689.705 L 707.295 676.807 L 771.844 692.656 L 776.147 786.319 L 784.753 604.357 L 789.057 599.185 L 793.36 614.125 L 797.663 651.869 L 801.966 658.193 L 806.27 628.912 L 810.573 661.846 L 814.876 667.298 L 819.179 651.764 L 823.482 668.979 L 827.786 652.394 L 832.089 649.01 L 836.392 639.399 L 840.695 621.09 L 844.999 638.406 L 849.302 713.685 L 853.605 772.975 L 857.908 611.603 L 862.212 601.67 L 866.515 613.11 L 870.818 608.045 L 875.121 618.63 L 879.424 607.809 L 883.728 610.82 L 888.031 617.429 L 892.334 618.468 L 896.637 608.983 L 900.941 612.96 L 905.244 615.138 L 909.547 611.421 L 913.85 635.144 L 918.154 604.656 L 922.457 604.357 L 926.76 657.293 L 931.063 685.377 L 935.366 641.288 L 939.67 768.211 L 943.973 757.528 L 948.276 775.586" stroke-width="3" stroke-dasharray="" stroke="#d60040" stroke-opacity="1" fill="none" />
</g>
<g id="Scatter_18" clip-path="url(#Scatter_18_clip)">
    <path d="M 109.603 413.1 L 113.95 412.286 L 118.297 411.976 L 122.645 412.252 L 126.992 411.342 L 135.686 410.463 L 140.033 411.574 L 144.38 411.363 L 148.727 412.41 L 153.074 412.018 L 157.421 412.775 L 161.768 413.659 L 170.462 414.306 L 174.809 415.612 L 179.156 419.749 L 187.851 427.604 L 192.198 428.415 L 196.545 429.037 L 200.892 432.168 L 205.239 433.044 L 209.586 434.457 L 213.933 435.098 L 218.28 436.581 L 222.627 437.337 L 226.974 443.387 L 231.321 452.547 L 235.668 462.254 L 240.015 465.065 L 244.363 461.649 L 248.71 459.337 L 253.057 463.822 L 257.404 463.148 L 261.751 461.881 L 266.098 463.166 L 270.445 464.644 L 274.792 469.945 L 279.139 474.709 L 283.486 472.856 L 287.833 470.914 L 292.18 468.532 L 296.527 471.028 L 300.874 468.428 L 305.222 473.359 L 309.569 485.384 L 313.916 488.038 L 318.263 491.666 L 322.61 501.864 L 320.004 495.612 L 324.308 576.486 L 328.611 533.281 L 332.914 494.439 L 337.217 496.739 L 341.521 502.731 L 345.824 494.272 L 350.127 485.434 L 354.43 487.19 L 358.734 479.967 L 363.037 479.484 L 367.34 483.055 L 371.643 482.358 L 375.946 485.531 L 380.25 481.163 L 384.553 488.334 L 388.856 492.941 L 397.463 514.857 L 401.766 578.497 L 406.069 801.721 L 410.372 602.305 L 414.676 739.631 L 418.979 570.89 L 423.282 536.861 L 427.585 518.905 L 431.888 521.697 L 436.192 537.879 L 440.495 536.381 L 444.798 512.2 L 449.101 510.71 L 453.405 504.692 L 457.708 502.792 L 462.011 511.265 L 466.314 506.785 L 470.618 510.005 L 479.224 511.427 L 483.527 522.66 L 487.83 543.86 L 492.134 573.646 L 496.437 527.711 L 500.74 463.062 L 505.043 294.673 L 509.347 282.449 L 517.953 402.579 L 535.166 693.814 L 543.772 762.347 L 548.076 792.594 L 552.379 635.724 L 556.682 636.821 L 560.985 637.119 L 565.289 636.378 L 569.592 587.195 L 578.198 567.668 L 582.502 542.797 L 586.805 543.464 L 591.108 545.553 L 599.714 546.554 L 604.018 546.676 L 608.321 535.647 L 612.624 532.42 L 616.927 545.549 L 621.231 548.412 L 625.534 551.684 L 629.837 551.458 L 634.14 538.493 L 638.444 536.798 L 642.747 536.319 L 647.05 537.74 L 651.353 560.725 L 655.656 566.953 L 659.96 545.825 L 664.263 546.548 L 668.566 550.451 L 672.869 550.551 L 677.173 580.14 L 681.476 625.51 L 685.779 638.678 L 690.082 733.416 L 694.386 717.116 L 698.689 637.006 L 702.992 510.486 L 707.295 402.579 L 771.844 605.463 L 776.147 560.986 L 784.753 701.226 L 789.057 557.594 L 793.36 561.703 L 797.663 600.213 L 801.966 644.07 L 806.27 555.604 L 810.573 539.368 L 814.876 715.245 L 819.179 791.588 L 823.482 535.12 L 827.786 534.162 L 832.089 688.375 L 836.392 703.9 L 840.695 563.533 L 844.999 546.566 L 849.302 639.879 L 853.605 646.685 L 857.908 585.69 L 862.212 594.14 L 866.515 583.017 L 870.818 581.76 L 875.121 543.835 L 879.424 539.869 L 883.728 556.959 L 888.031 541.718 L 892.334 586.88 L 896.637 594.479 L 900.941 591.311 L 905.244 625.303 L 909.547 544.949 L 913.85 546.623 L 918.154 535.483 L 922.457 524.983 L 926.76 600.993 L 931.063 657.303 L 935.366 738.074 L 939.67 728.928 L 943.973 504.04 L 948.276 455.323" stroke-width="3" stroke-dasharray="" stroke="#007777" stroke-opacity="1" fill="none" />
</g>
<g id="Scatter_19" clip-path="url(#Scatter_19_clip)">
    <path d="M 109.603 423.691 L 113.95 421.2 L 118.297 423.355 L 122.645 423.191 L 126.992 423.118 L 135.686 424.294 L 140.033 424.875 L 144.38 426.712 L 148.727 427.14 L 153.074 427.899 L 157.421 427.499 L 161.768 428.678 L 170.462 431.025 L 174.809 432.628 L 179.156 436.905 L 187.851 444.186 L 192.198 445.305 L 196.545 446.076 L 200.892 449.112 L 205.239 449.903 L 209.586 451.143 L 213.933 453.562 L 218.28 452.877 L 222.627 456.706 L 226.974 461.954 L 231.321 467.155 L 235.668 474.784 L 240.015 477.225 L 244.363 473.029 L 248.71 472.6 L 253.057 472.177 L 257.404 475.769 L 261.751 473.292 L 266.098 478.005 L 270.445 476.044 L 274.792 482.218 L 279.139 487.135 L 283.486 482.493 L 287.833 482.944 L 292.18 480.644 L 296.527 480.704 L 300.874 478.54 L 305.222 486.555 L 309.569 485.693 L 313.916 488.538 L 318.263 497.607 L 322.61 518.947 L 320.004 587.851 L 324.308 515.151 L 328.611 521.186 L 332.914 501.57 L 337.217 489.948 L 341.521 475.831 L 345.824 484.209 L 350.127 490.898 L 354.43 488.808 L 358.734 480.137 L 363.037 479.141 L 367.34 487.351 L 371.643 485.666 L 375.946 488.307 L 380.25 485.564 L 384.553 483.391 L 388.856 486.215 L 397.463 531.374 L 401.766 579.86 L 406.069 805.355 L 410.372 825.577 L 414.676 829.029 L 418.979 563.631 L 423.282 536.576 L 427.585 521.408 L 431.888 519.302 L 436.192 510.793 L 440.495 508.067 L 444.798 530.961 L 449.101 530.548 L 453.405 497.997 L 457.708 491.684 L 462.011 507.014 L 466.314 506.82 L 470.618 500.107 L 479.224 514.596 L 483.527 521.304 L 487.83 526.282 L 492.134 546.099 L 496.437 528.336 L 500.74 474.241 L 505.043 228.067 L 509.347 197.764 L 517.953 405.006 L 535.166 648.892 L 543.772 732.884 L 548.076 767.835 L 552.379 753.544 L 556.682 535.219 L 560.985 549.571 L 565.289 557.002 L 569.592 543.297 L 578.198 545.225 L 582.502 547.108 L 586.805 539.522 L 591.108 536.501 L 599.714 536.574 L 604.018 537.576 L 608.321 535.471 L 612.624 540.14 L 616.927 534.983 L 621.231 536.463 L 625.534 531.669 L 629.837 530.503 L 634.14 545.715 L 638.444 548.171 L 642.747 535.106 L 647.05 536.812 L 651.353 534.526 L 655.656 537.479 L 659.96 541.713 L 664.263 528.647 L 668.566 558.42 L 672.869 560.015 L 677.173 554.94 L 681.476 576.49 L 685.779 607.185 L 690.082 623.448 L 694.386 711.722 L 698.689 663.143 L 702.992 451.479 L 707.295 265.587 L 771.844 555.778 L 776.147 554.253 L 784.753 682.787 L 789.057 758.195 L 793.36 737.979 L 797.663 777.828 L 801.966 744.007 L 806.27 591.857 L 810.573 616.019 L 814.876 592.051 L 819.179 611.592 L 823.482 565.163 L 827.786 550.533 L 832.089 579.614 L 836.392 571.816 L 840.695 563.647 L 844.999 591.315 L 849.302 618.546 L 853.605 619.236 L 857.908 587.039 L 862.212 615.228 L 866.515 567.282 L 870.818 578.192 L 875.121 580.672 L 879.424 590.634 L 883.728 578.585 L 888.031 561.959 L 892.334 579.229 L 896.637 581.094 L 900.941 613.589 L 905.244 568.023 L 909.547 547.828 L 913.85 553.795 L 918.154 589.841 L 922.457 565.775 L 926.76 537.567 L 931.063 557.29 L 935.366 543.863 L 939.67 451.479 L 943.973 665.937 L 948.276 681.714" stroke-width="3" stroke-dasharray="" stroke="#cb0000" stroke-opacity="1" fill="none" />
</g>
<g id="frame_0">
    <rect id="frame_0_border" x="120" y="50" width="830" height="870" />
    <text id="frame_0_bottomlabel" font-size="30" transform="translate(535, 989.6)" text-anchor="middle" dominant-baseline="middle" stroke="none" fill="black">wavelength [nm]</text>
    <g id="frame_0_bottomticks">
        <path d="M 268.974 920 L 268.974 910" />
        <path d="M 609.487 920 L 609.487 910" />
        <path d="M 311.538 920 L 311.538 910" />
        <path d="M 694.615 920 L 694.615 910" />
        <path d="M 737.179 920 L 737.179 910" />
        <path d="M 354.103 920 L 354.103 900" />
        <text font-size="30" transform="translate(354.103, 950)" text-anchor="middle" dominant-baseline="middle" stroke="none" fill="black">1000</text>
        <path d="M 396.667 920 L 396.667 910" />
        <path d="M 141.282 920 L 141.282 900" />
        <text font-size="30" transform="translate(141.282, 950)" text-anchor="middle" dominant-baseline="middle" stroke="none" fill="black">500</text>
        <path d="M 566.923 920 L 566.923 900" />
        <text font-size="30" transform="translate(566.923, 950)" text-anchor="middle" dominant-baseline="middle" stroke="none" fill="black">1500</text>
        <path d="M 439.231 920 L 439.231 910" />
        <path d="M 524.359 920 L 524.359 910" />
        <path d="M 481.795 920 L 481.795 910" />
        <path d="M 907.436 920 L 907.436 910" />
        <path d="M 779.744 920 L 779.744 900" />
        <text font-size="30" transform="translate(779.744, 950)" text-anchor="middle" dominant-baseline="middle" stroke="none" fill="black">2000</text>
        <path d="M 183.846 920 L 183.846 910" />
        <path d="M 652.051 920 L 652.051 910" />
        <path d="M 864.872 920 L 864.872 910" />
        <path d="M 226.41 920 L 226.41 910" />
        <path d="M 950 920 L 950 910" />
        <path d="M 822.308 920 L 822.308 910" />
    </g>
    <text id="frame_0_leftlabel" font-size="30" transform="translate(37, 485) rotate(-90)" text-anchor="middle" dominant-baseline="middle" stroke="none" fill="black">log(normalized wake radiance / normalized cloud radiance)</text>
    <g id="frame_0_leftticks">
        <path d="M 120 530.433 L 140 530.433" />
        <text font-size="30" transform="translate(110, 540.433)" text-anchor="end" dominant-baseline="middle" stroke="none" fill="black">0</text>
        <path d="M 120 463.387 L 130 463.387" />
        <path d="M 120 396.341 L 140 396.341" />
        <text font-size="30" transform="translate(110, 406.341)" text-anchor="end" dominant-baseline="middle" stroke="none" fill="black">2</text>
        <path d="M 120 329.295 L 130 329.295" />
        <path d="M 120 262.249 L 140 262.249" />
        <text font-size="30" transform="translate(110, 272.249)" text-anchor="end" dominant-baseline="middle" stroke="none" fill="black">4</text>
        <path d="M 120 195.202 L 130 195.202" />
        <path d="M 120 128.156 L 140 128.156" />
        <text font-size="30" transform="translate(110, 138.156)" text-anchor="end" dominant-baseline="middle" stroke="none" fill="black">6</text>
        <path d="M 120 61.1104 L 130 61.1104" />
        <path d="M 120 664.525 L 140 664.525" />
        <text font-size="30" transform="translate(110, 674.525)" text-anchor="end" dominant-baseline="middle" stroke="none" fill="black">2</text>
        <path d="M 120 865.663 L 130 865.663" />
        <path d="M 120 798.617 L 140 798.617" />
        <text font-size="30" transform="translate(110, 808.617)" text-anchor="end" dominant-baseline="middle" stroke="none" fill="black">4</text>
        <path d="M 120 731.571 L 130 731.571" />
        <path d="M 120 597.479 L 130 597.479" />
    </g>
    <g id="frame_0_topticks">
        <path d="M 268.974 50 L 268.974 60" />
        <path d="M 609.487 50 L 609.487 60" />
        <path d="M 311.538 50 L 311.538 60" />
        <path d="M 694.615 50 L 694.615 60" />
        <path d="M 737.179 50 L 737.179 60" />
        <path d="M 354.103 50 L 354.103 70" />
        <path d="M 396.667 50 L 396.667 60" />
        <path d="M 141.282 50 L 141.282 70" />
        <path d="M 566.923 50 L 566.923 70" />
        <path d="M 439.231 50 L 439.231 60" />
        <path d="M 524.359 50 L 524.359 60" />
        <path d="M 481.795 50 L 481.795 60" />
        <path d="M 907.436 50 L 907.436 60" />
        <path d="M 779.744 50 L 779.744 70" />
        <path d="M 183.846 50 L 183.846 60" />
        <path d="M 652.051 50 L 652.051 60" />
        <path d="M 864.872 50 L 864.872 60" />
        <path d="M 226.41 50 L 226.41 60" />
        <path d="M 950 50 L 950 60" />
        <path d="M 822.308 50 L 822.308 60" />
    </g>
    <g id="frame_0_rightticks">
        <path d="M 950 530.433 L 930 530.433" />
        <path d="M 950 463.387 L 940 463.387" />
        <path d="M 950 396.341 L 930 396.341" />
        <path d="M 950 329.295 L 940 329.295" />
        <path d="M 950 262.249 L 930 262.249" />
        <path d="M 950 195.202 L 940 195.202" />
        <path d="M 950 128.156 L 930 128.156" />
        <path d="M 950 61.1104 L 940 61.1104" />
        <path d="M 950 664.525 L 930 664.525" />
        <path d="M 950 865.663 L 940 865.663" />
        <path d="M 950 798.617 L 930 798.617" />
        <path d="M 950 731.571 L 940 731.571" />
        <path d="M 950 597.479 L 940 597.479" />
    </g>
</g>
<g id="Legend_0">
    <rect x="576.5" y="50" width="373.5" height="80" stroke-width="3" stroke-dasharray="" stroke="black" stroke-opacity="1" fill="white" fill-opacity="1" />
    <g id="Legend_0_content" clip-path="url(#Legend_0_clip)">
        <line x1="608.275" y1="74.5" x2="660.775" y2="74.5" stroke-width="3" stroke-dasharray="" stroke="red" stroke-opacity="1" />
        <text font-size="30" transform="translate(692.55, 85)" text-anchor="start" dominant-baseline="middle" stroke="none" fill="black">wake/cloud</text>
        <line x1="608.275" y1="109.5" x2="660.775" y2="109.5" stroke-width="3" stroke-dasharray="3.0 3.0" stroke="grey" stroke-opacity="1" />
        <text font-size="30" transform="translate(692.55, 120)" text-anchor="start" dominant-baseline="middle" stroke="none" fill="black">6 sample bands</text>
    </g>
</g>
</g>
</svg>
