<?xml version="1.0" standalone="no"?>
<!DOCTYPE svg PUBLIC "-//W3C//DTD SVG 1.1//EN" "http://www.w3.org/Graphics/SVG/1.1/DTD/svg11.dtd">
<svg style="stroke-linejoin:miter; stroke:black; stroke-width:2.5; text-anchor:middle; fill:none" xmlns="http://www.w3.org/2000/svg" font-family="Helvetica, Arial, FreeSans, Sans, sans, sans-serif" width="1000px" height="1000px" version="1.1" xmlns:xlink="http://www.w3.org/1999/xlink" viewBox="0 0 1000 1000">
<defs>
    <clipPath id="Grid_0_clip">
        <rect x="120" y="50" width="830" height="870" />
    </clipPath>
    <clipPath id="Legend_0_clip">
        <rect x="576.5" y="50" width="373.5" height="80" />
    </clipPath>
    <clipPath id="Scatter_0_clip">
        <rect x="120" y="50" width="830" height="870" />
    </clipPath>
    <clipPath id="Scatter_10_clip">
        <rect x="120" y="50" width="830" height="870" />
    </clipPath>
    <clipPath id="Scatter_11_clip">
        <rect x="120" y="50" width="830" height="870" />
    </clipPath>
    <clipPath id="Scatter_12_clip">
        <rect x="120" y="50" width="830" height="870" />
    </clipPath>
    <clipPath id="Scatter_13_clip">
        <rect x="120" y="50" width="830" height="870" />
    </clipPath>
    <clipPath id="Scatter_14_clip">
        <rect x="120" y="50" width="830" height="870" />
    </clipPath>
    <clipPath id="Scatter_15_clip">
        <rect x="120" y="50" width="830" height="870" />
    </clipPath>
    <clipPath id="Scatter_16_clip">
        <rect x="120" y="50" width="830" height="870" />
    </clipPath>
    <clipPath id="Scatter_17_clip">
        <rect x="120" y="50" width="830" height="870" />
    </clipPath>
    <clipPath id="Scatter_18_clip">
        <rect x="120" y="50" width="830" height="870" />
    </clipPath>
    <clipPath id="Scatter_19_clip">
        <rect x="120" y="50" width="830" height="870" />
    </clipPath>
    <clipPath id="Scatter_1_clip">
        <rect x="120" y="50" width="830" height="870" />
    </clipPath>
    <clipPath id="Scatter_2_clip">
        <rect x="120" y="50" width="830" height="870" />
    </clipPath>
    <clipPath id="Scatter_3_clip">
        <rect x="120" y="50" width="830" height="870" />
    </clipPath>
    <clipPath id="Scatter_4_clip">
        <rect x="120" y="50" width="830" height="870" />
    </clipPath>
    <clipPath id="Scatter_5_clip">
        <rect x="120" y="50" width="830" height="870" />
    </clipPath>
    <clipPath id="Scatter_6_clip">
        <rect x="120" y="50" width="830" height="870" />
    </clipPath>
    <clipPath id="Scatter_7_clip">
        <rect x="120" y="50" width="830" height="870" />
    </clipPath>
    <clipPath id="Scatter_8_clip">
        <rect x="120" y="50" width="830" height="870" />
    </clipPath>
    <clipPath id="Scatter_9_clip">
        <rect x="120" y="50" width="830" height="870" />
    </clipPath>
</defs>
<g id="whole_document">
<rect id="background" x="0" y="0" width="1000" height="1000" stroke="none" fill="white" />
<g id="Grid_0" clip-path="url(#Grid_0_clip)">
    <path d="M 248.71 920 L 248.71 50 M 309.569 920 L 309.569 50 M 410.372 920 L 410.372 50 M 457.708 920 L 457.708 50 M 548.076 920 L 548.076 50 M 651.353 920 L 651.353 50" stroke-width="3" stroke-dasharray="3.0 3.0" stroke="grey" stroke-opacity="1" fill="none" />
</g>
<g id="Scatter_0" clip-path="url(#Scatter_0_clip)">
    <path d="M 109.603 412.008 L 113.95 412.541 L 118.297 408.158 L 122.645 404.016 L 126.992 400.144 L 135.686 387.048 L 140.033 383.091 L 144.38 378.215 L 148.727 369.224 L 153.074 365.053 L 157.421 357.837 L 161.768 352.516 L 170.462 341.712 L 174.809 334.825 L 179.156 329.434 L 187.851 314.823 L 192.198 309.476 L 196.545 306.914 L 200.892 298.12 L 205.239 298.906 L 209.586 292.907 L 213.933 285.917 L 218.28 281.524 L 222.627 280.994 L 226.974 282.207 L 231.321 274.937 L 235.668 289.214 L 240.015 281.149 L 244.363 268.386 L 248.71 263.466 L 253.057 277.029 L 257.404 258.49 L 261.751 256.872 L 266.098 256.266 L 270.445 250.409 L 274.792 260.02 L 279.139 260.4 L 283.486 253.593 L 287.833 242.641 L 292.18 238.082 L 296.527 234.801 L 300.874 236.754 L 305.222 236.507 L 309.569 235.104 L 313.916 247.479 L 318.263 250.86 L 322.61 251.489 L 320.004 291.228 L 324.308 371.803 L 328.611 376.059 L 332.914 350.711 L 337.217 290.3 L 341.521 242.373 L 345.824 225.579 L 350.127 226.112 L 354.43 220.645 L 358.734 213.625 L 363.037 208.154 L 367.34 203.905 L 371.643 198.387 L 375.946 190.783 L 380.25 190.645 L 384.553 199.503 L 388.856 201.814 L 397.463 210.076 L 401.766 323.341 L 406.069 492.608 L 410.372 362.334 L 414.676 378.086 L 418.979 304.3 L 423.282 256.838 L 427.585 231.44 L 431.888 227.389 L 436.192 195.98 L 440.495 197.123 L 444.798 195.517 L 449.101 186.966 L 453.405 202.593 L 457.708 198.244 L 462.011 195.703 L 466.314 220.234 L 470.618 200.805 L 479.224 210.218 L 483.527 227.476 L 487.83 232.066 L 492.134 266.607 L 496.437 314.582 L 500.74 473.152 L 505.043 429.389 L 509.347 405.363 L 517.953 484.607 L 535.166 692.912 L 543.772 653.18 L 548.076 626.588 L 552.379 622.329 L 556.682 702.828 L 560.985 375.142 L 565.289 335.966 L 569.592 319.479 L 578.198 303.968 L 582.502 298.816 L 586.805 288.079 L 591.108 281.964 L 599.714 273.587 L 604.018 269.695 L 608.321 266.041 L 612.624 266.814 L 616.927 249.54 L 621.231 249.416 L 625.534 241.932 L 629.837 236.392 L 634.14 237.147 L 638.444 232.54 L 642.747 226.163 L 647.05 225.374 L 651.353 232.568 L 655.656 235.877 L 659.96 232.754 L 664.263 242.074 L 668.566 243.319 L 672.869 252.872 L 677.173 255.693 L 681.476 277.394 L 685.779 319.224 L 690.082 411.906 L 694.386 401.489 L 698.689 412.762 L 702.992 434.188 L 707.295 468.404 L 771.844 438.234 L 776.147 661.397 L 784.753 364.577 L 789.057 348.243 L 793.36 336.205 L 797.663 359.321 L 801.966 391.157 L 806.27 340.221 L 810.573 320.488 L 814.876 345.836 L 819.179 320.112 L 823.482 306.656 L 827.786 315.582 L 832.089 291.779 L 836.392 321.594 L 840.695 305.684 L 844.999 309.982 L 849.302 308.696 L 853.605 333.782 L 857.908 299.554 L 862.212 292.891 L 866.515 280.415 L 870.818 273.407 L 875.121 275.673 L 879.424 304.686 L 883.728 300.138 L 888.031 292.765 L 892.334 294.181 L 896.637 310.892 L 900.941 345.281 L 905.244 354.147 L 909.547 318.088 L 913.85 332.816 L 918.154 431.658 L 922.457 547.643 L 926.76 381.513 L 931.063 381.55 L 935.366 507.147 L 939.67 756.261 L 943.973 741.126 L 948.276 774.118" stroke-width="3" stroke-dasharray="" stroke="#9a2e00" stroke-opacity="1" fill="none" />
</g>
<g id="Scatter_1" clip-path="url(#Scatter_1_clip)">
    <path d="M 109.603 383.326 L 113.95 378.322 L 118.297 371.124 L 122.645 363.94 L 126.992 358.061 L 135.686 344.235 L 140.033 337.543 L 144.38 330.145 L 148.727 323.556 L 153.074 317.41 L 157.421 311.996 L 161.768 305.665 L 170.462 292.998 L 174.809 287.229 L 179.156 279.69 L 187.851 266.951 L 192.198 261.903 L 196.545 257.247 L 200.892 251.216 L 205.239 248.363 L 209.586 245.783 L 213.933 238.894 L 218.28 234.093 L 222.627 232.246 L 226.974 235.357 L 231.321 226.814 L 235.668 244.797 L 240.015 241.401 L 244.363 228.079 L 248.71 221.644 L 253.057 236.587 L 257.404 219.246 L 261.751 216.11 L 266.098 215.783 L 270.445 210.544 L 274.792 218.007 L 279.139 224.098 L 283.486 219.842 L 287.833 209.286 L 292.18 205.288 L 296.527 201.899 L 300.874 204.157 L 305.222 202.778 L 309.569 199.66 L 313.916 216.614 L 318.263 228.585 L 322.61 241.1 L 320.004 271.295 L 324.308 336.576 L 328.611 349.091 L 332.914 347.105 L 337.217 298.97 L 341.521 252.335 L 345.824 236.066 L 350.127 233.251 L 354.43 232.81 L 358.734 222.765 L 363.037 217.184 L 367.34 204.983 L 371.643 201.108 L 375.946 199.556 L 380.25 198.176 L 384.553 203.264 L 388.856 202.81 L 397.463 213.996 L 401.766 293.925 L 406.069 429.496 L 410.372 368.763 L 414.676 390.903 L 418.979 334.013 L 423.282 278.931 L 427.585 252.035 L 431.888 245.088 L 436.192 218.054 L 440.495 218.113 L 444.798 215.75 L 449.101 209.534 L 453.405 222.042 L 457.708 219.673 L 462.011 212.141 L 466.314 238.887 L 470.618 224.368 L 479.224 225.818 L 483.527 242.033 L 487.83 251.655 L 492.134 282.092 L 496.437 320.342 L 500.74 390.143 L 505.043 433.804 L 509.347 461.398 L 517.953 559.717 L 535.166 678.001 L 543.772 638.269 L 548.076 611.677 L 552.379 607.418 L 556.682 472.051 L 560.985 362.657 L 565.289 350.997 L 569.592 339.029 L 578.198 312.142 L 582.502 316.334 L 586.805 307.987 L 591.108 298.565 L 599.714 291.732 L 604.018 289.826 L 608.321 285.638 L 612.624 285.765 L 616.927 270.118 L 621.231 268.927 L 625.534 265.063 L 629.837 266.381 L 634.14 262.317 L 638.444 261.896 L 642.747 255.942 L 647.05 255.502 L 651.353 253.752 L 655.656 254.863 L 659.96 263.489 L 664.263 272.543 L 668.566 279.697 L 672.869 277.516 L 677.173 289.225 L 681.476 308.241 L 685.779 321.442 L 690.082 370.279 L 694.386 664.927 L 698.689 663.903 L 702.992 671.27 L 707.295 679.711 L 771.844 458.364 L 776.147 646.486 L 784.753 469.896 L 789.057 375.075 L 793.36 345.228 L 797.663 325.084 L 801.966 340.592 L 806.27 339.369 L 810.573 347.724 L 814.876 319.002 L 819.179 317.345 L 823.482 337.536 L 827.786 341.556 L 832.089 341.258 L 836.392 337.372 L 840.695 306.259 L 844.999 297.23 L 849.302 329.609 L 853.605 318.871 L 857.908 332.341 L 862.212 347.881 L 866.515 289.914 L 870.818 313.475 L 875.121 319.189 L 879.424 315.78 L 883.728 312.694 L 888.031 325.833 L 892.334 299.272 L 896.637 299.004 L 900.941 323.592 L 905.244 346.797 L 909.547 351.273 L 913.85 409.697 L 918.154 361.767 L 922.457 348.837 L 926.76 660.918 L 931.063 678.866 L 935.366 456.109 L 939.67 400.859 L 943.973 726.215 L 948.276 759.207" stroke-width="3" stroke-dasharray="" stroke="#006089" stroke-opacity="1" fill="none" />
</g>
<g id="Scatter_2" clip-path="url(#Scatter_2_clip)">
    <path d="M 109.603 319.088 L 113.95 315.856 L 118.297 314.79 L 122.645 313.726 L 126.992 310.396 L 135.686 305.369 L 140.033 302.639 L 144.38 300.634 L 148.727 297.865 L 153.074 295.199 L 157.421 293.852 L 161.768 291.867 L 170.462 285.926 L 174.809 283.211 L 179.156 280.923 L 187.851 275.003 L 192.198 271.928 L 196.545 267.737 L 200.892 267.286 L 205.239 262.962 L 209.586 262.164 L 213.933 259.768 L 218.28 257.878 L 222.627 256.204 L 226.974 258.445 L 231.321 253.283 L 235.668 265.43 L 240.015 265.991 L 244.363 261.519 L 248.71 254.434 L 253.057 262.427 L 257.404 255.148 L 261.751 250.764 L 266.098 251.422 L 270.445 247.857 L 274.792 251.252 L 279.139 260.473 L 283.486 254.658 L 287.833 250.581 L 292.18 248.193 L 296.527 245.99 L 300.874 249.023 L 305.222 250.003 L 309.569 248.035 L 313.916 244.126 L 318.263 268.104 L 322.61 264.617 L 320.004 276.279 L 324.308 743.414 L 328.611 414.692 L 332.914 363.243 L 337.217 387.187 L 341.521 291.627 L 345.824 284.623 L 350.127 300.23 L 354.43 293.388 L 358.734 290.828 L 363.037 292.43 L 367.34 260.47 L 371.643 249.853 L 375.946 269.376 L 380.25 270.323 L 384.553 261.868 L 388.856 261.509 L 397.463 285.664 L 401.766 463.11 L 406.069 725.331 L 410.372 344.149 L 414.676 321.448 L 418.979 357.321 L 423.282 318.112 L 427.585 312.443 L 431.888 308.228 L 436.192 385.607 L 440.495 347.057 L 444.798 347.534 L 449.101 332.571 L 453.405 320.194 L 457.708 332.397 L 462.011 297.245 L 466.314 310.934 L 470.618 295.722 L 479.224 278.917 L 483.527 277.903 L 487.83 308.44 L 492.134 317.164 L 496.437 276.819 L 500.74 285.151 L 505.043 222.396 L 509.347 225.206 L 517.953 581.134 L 535.166 523.386 L 543.772 483.654 L 548.076 457.062 L 552.379 452.803 L 556.682 260.91 L 560.985 243.083 L 565.289 322.907 L 569.592 313.448 L 578.198 253.007 L 582.502 235.834 L 586.805 226.486 L 591.108 268.483 L 599.714 232.393 L 604.018 233.598 L 608.321 291.21 L 612.624 277.115 L 616.927 350.739 L 621.231 302.777 L 625.534 303.935 L 629.837 290.165 L 634.14 284.475 L 638.444 286.383 L 642.747 306.411 L 647.05 286.859 L 651.353 258.106 L 655.656 258.823 L 659.96 302.185 L 664.263 361.426 L 668.566 278.558 L 672.869 247.246 L 677.173 373.485 L 681.476 554.223 L 685.779 203.215 L 690.082 177.401 L 694.386 510.312 L 698.689 509.288 L 702.992 151.816 L 707.295 136.906 L 771.844 303.749 L 776.147 287.577 L 784.753 473.4 L 789.057 282.942 L 793.36 269.44 L 797.663 208.565 L 801.966 221.631 L 806.27 278.628 L 810.573 344.45 L 814.876 513.682 L 819.179 520.104 L 823.482 271.419 L 827.786 298.096 L 832.089 306.148 L 836.392 408.974 L 840.695 516.484 L 844.999 516.6 L 849.302 491.232 L 853.605 491.628 L 857.908 239.868 L 862.212 233.101 L 866.515 427.127 L 870.818 363.155 L 875.121 505.065 L 879.424 504.679 L 883.728 304.275 L 888.031 495.017 L 892.334 482.029 L 896.637 326.761 L 900.941 208.812 L 905.244 224.456 L 909.547 270.068 L 913.85 490.663 L 918.154 211.946 L 922.457 241.921 L 926.76 262.173 L 931.063 298.034 L 935.366 337.621 L 939.67 586.735 L 943.973 571.6 L 948.276 604.592" stroke-width="3" stroke-dasharray="" stroke="#9b5d00" stroke-opacity="1" fill="none" />
</g>
<g id="Scatter_3" clip-path="url(#Scatter_3_clip)">
    <path d="M 109.603 380.561 L 113.95 373.532 L 118.297 367.486 L 122.645 361.619 L 126.992 356.622 L 135.686 344.898 L 140.033 339.028 L 144.38 333.333 L 148.727 326.971 L 153.074 321.238 L 157.421 316.876 L 161.768 310.913 L 170.462 299.888 L 174.809 294.481 L 179.156 288.041 L 187.851 277.385 L 192.198 272.468 L 196.545 268.466 L 200.892 263.35 L 205.239 259.74 L 209.586 259.267 L 213.933 252.329 L 218.28 247.801 L 222.627 245.813 L 226.974 248.885 L 231.321 241.906 L 235.668 259.135 L 240.015 258.279 L 244.363 246.684 L 248.71 239.319 L 253.057 253.369 L 257.404 237.118 L 261.751 233.418 L 266.098 233.751 L 270.445 228.822 L 274.792 235.302 L 279.139 240.945 L 283.486 237.417 L 287.833 226.779 L 292.18 224.045 L 296.527 220.489 L 300.874 222.222 L 305.222 221.14 L 309.569 219.95 L 313.916 238.649 L 318.263 245.05 L 322.61 250.969 L 320.004 296.539 L 324.308 332.83 L 328.611 340.851 L 332.914 395.881 L 337.217 334.945 L 341.521 268.33 L 345.824 260.999 L 350.127 261.786 L 354.43 257.729 L 358.734 249.421 L 363.037 240.781 L 367.34 232.23 L 371.643 225.546 L 375.946 224.475 L 380.25 223.804 L 384.553 230.858 L 388.856 231.36 L 397.463 244.762 L 401.766 326.082 L 406.069 552.345 L 410.372 405.148 L 414.676 411.183 L 418.979 369.575 L 423.282 311.198 L 427.585 277.866 L 431.888 274.343 L 436.192 247.417 L 440.495 249.111 L 444.798 239.851 L 449.101 231.694 L 453.405 252.943 L 457.708 249.517 L 462.011 244 L 466.314 264.397 L 470.618 250.485 L 479.224 253.247 L 483.527 265.5 L 487.83 272.88 L 492.134 300.544 L 496.437 308.229 L 500.74 342.147 L 505.043 327.381 L 509.347 304.213 L 517.953 697.424 L 535.166 639.676 L 543.772 599.944 L 548.076 573.352 L 552.379 569.093 L 556.682 315.442 L 560.985 314.968 L 565.289 334.032 L 569.592 319.779 L 578.198 289.939 L 582.502 293.235 L 586.805 287.663 L 591.108 296.229 L 599.714 293.242 L 604.018 286.829 L 608.321 280.615 L 612.624 280.254 L 616.927 271.627 L 621.231 269.241 L 625.534 271.852 L 629.837 277.079 L 634.14 277.051 L 638.444 278.929 L 642.747 269.122 L 647.05 271.848 L 651.353 267.897 L 655.656 271.859 L 659.96 272.401 L 664.263 271.55 L 668.566 283.208 L 672.869 281.577 L 677.173 264.793 L 681.476 275.043 L 685.779 326.525 L 690.082 318.835 L 694.386 558.504 L 698.689 625.578 L 702.992 373.671 L 707.295 425.519 L 771.844 611.215 L 776.147 608.161 L 784.753 589.69 L 789.057 342.706 L 793.36 300.351 L 797.663 290.332 L 801.966 298.086 L 806.27 337.171 L 810.573 324.543 L 814.876 330.863 L 819.179 320.156 L 823.482 308.882 L 827.786 303.231 L 832.089 382.603 L 836.392 428.903 L 840.695 267.934 L 844.999 283.595 L 849.302 295.295 L 853.605 308.809 L 857.908 294.016 L 862.212 292.864 L 866.515 345.463 L 870.818 343.248 L 875.121 309.127 L 879.424 312.923 L 883.728 277.591 L 888.031 283.935 L 892.334 304.003 L 896.637 322.821 L 900.941 292.045 L 905.244 312.483 L 909.547 358.094 L 913.85 402.658 L 918.154 285.179 L 922.457 284.156 L 926.76 431.417 L 931.063 396.412 L 935.366 669.777 L 939.67 703.025 L 943.973 687.89 L 948.276 720.882" stroke-width="3" stroke-dasharray="" stroke="#004aba" stroke-opacity="1" fill="none" />
</g>
<g id="Scatter_4" clip-path="url(#Scatter_4_clip)">
    <path d="M 109.603 375.347 L 113.95 373.599 L 118.297 369.406 L 122.645 367.562 L 126.992 364.108 L 135.686 355.455 L 140.033 350.862 L 144.38 347.376 L 148.727 341.944 L 153.074 337.795 L 157.421 334.204 L 161.768 329.922 L 170.462 322.666 L 174.809 317.984 L 179.156 316.054 L 187.851 312.823 L 192.198 308.594 L 196.545 305.568 L 200.892 301.512 L 205.239 301.525 L 209.586 299.676 L 213.933 295.63 L 218.28 292.322 L 222.627 293.611 L 226.974 295.548 L 231.321 297.884 L 235.668 312.888 L 240.015 314.658 L 244.363 317.332 L 248.71 302.435 L 253.057 312.87 L 257.404 299.44 L 261.751 297.198 L 266.098 297.527 L 270.445 291.134 L 274.792 298.391 L 279.139 300.605 L 283.486 296.925 L 287.833 289.392 L 292.18 287.689 L 296.527 282.054 L 300.874 286.768 L 305.222 289.647 L 309.569 286.978 L 313.916 293.672 L 318.263 307.339 L 322.61 327.534 L 320.004 422.692 L 324.308 450.118 L 328.611 409.663 L 332.914 461.343 L 337.217 358.734 L 341.521 311.473 L 345.824 292.487 L 350.127 267.404 L 354.43 265.938 L 358.734 258.265 L 363.037 257.767 L 367.34 255.473 L 371.643 256.867 L 375.946 250.691 L 380.25 249.232 L 384.553 258.058 L 388.856 265.384 L 397.463 280.832 L 401.766 395.208 L 406.069 809.593 L 410.372 465.024 L 414.676 435.109 L 418.979 372.669 L 423.282 303.716 L 427.585 276.087 L 431.888 264.496 L 436.192 238.34 L 440.495 237.578 L 444.798 235.762 L 449.101 226.032 L 453.405 244.337 L 457.708 243.364 L 462.011 244.003 L 466.314 267.143 L 470.618 240.34 L 479.224 251.498 L 483.527 265.804 L 487.83 263.923 L 492.134 287.639 L 496.437 309.746 L 500.74 378.217 L 505.043 377.182 L 509.347 380.118 L 517.953 665.395 L 535.166 607.648 L 543.772 567.916 L 548.076 541.324 L 552.379 537.065 L 556.682 358.29 L 560.985 302.655 L 565.289 290.121 L 569.592 280.042 L 578.198 251.845 L 582.502 270.741 L 586.805 273.761 L 591.108 267.84 L 599.714 257.007 L 604.018 254.228 L 608.321 250.326 L 612.624 251.091 L 616.927 241.163 L 621.231 244.064 L 625.534 241.649 L 629.837 240.044 L 634.14 240.079 L 638.444 239.858 L 642.747 224.641 L 647.05 223.353 L 651.353 221.138 L 655.656 223.665 L 659.96 244.74 L 664.263 249.257 L 668.566 228.532 L 672.869 231.853 L 677.173 234.017 L 681.476 254.149 L 685.779 271.849 L 690.082 332.983 L 694.386 594.574 L 698.689 593.55 L 702.992 424.886 L 707.295 373.776 L 771.844 511.089 L 776.147 439.937 L 784.753 557.662 L 789.057 367.204 L 793.36 321.73 L 797.663 406.072 L 801.966 578.285 L 806.27 265.308 L 810.573 252.68 L 814.876 270.572 L 819.179 276.994 L 823.482 205.425 L 827.786 201.533 L 832.089 267.332 L 836.392 267.019 L 840.695 220.42 L 844.999 229.085 L 849.302 267.448 L 853.605 245.07 L 857.908 271.659 L 862.212 281.236 L 866.515 280.378 L 870.818 252.793 L 875.121 222.12 L 879.424 231.566 L 883.728 295.749 L 888.031 300.93 L 892.334 254.063 L 896.637 274.827 L 900.941 383.094 L 905.244 434.563 L 909.547 297.803 L 913.85 290.96 L 918.154 338.53 L 922.457 382.709 L 926.76 432.446 L 931.063 472.317 L 935.366 338.64 L 939.67 398.604 L 943.973 411.732 L 948.276 462.636" stroke-width="3" stroke-dasharray="" stroke="#8a7d00" stroke-opacity="1" fill="none" />
</g>
<g id="Scatter_5" clip-path="url(#Scatter_5_clip)">
    <path d="M 109.603 339.991 L 113.95 334.741 L 118.297 330.107 L 122.645 326.66 L 126.992 321.767 L 135.686 313.909 L 140.033 310.353 L 144.38 304.571 L 148.727 302.765 L 153.074 297.231 L 157.421 294.644 L 161.768 290.434 L 170.462 281.173 L 174.809 278.809 L 179.156 273.453 L 187.851 269.485 L 192.198 266.001 L 196.545 261.522 L 200.892 258.613 L 205.239 255.777 L 209.586 256.705 L 213.933 251.509 L 218.28 248.7 L 222.627 247.436 L 226.974 249.881 L 231.321 248.192 L 235.668 263.825 L 240.015 265.624 L 244.363 256.574 L 248.71 249.242 L 253.057 260.694 L 257.404 250.294 L 261.751 246.086 L 266.098 245.738 L 270.445 241.348 L 274.792 248.887 L 279.139 256.523 L 283.486 250.312 L 287.833 244.68 L 292.18 239.734 L 296.527 237.681 L 300.874 235.342 L 305.222 238.792 L 309.569 236.52 L 313.916 246.057 L 318.263 267.363 L 322.61 252.291 L 320.004 314.766 L 324.308 357.967 L 328.611 397.266 L 332.914 552.911 L 337.217 394.475 L 341.521 298.698 L 345.824 283.014 L 350.127 280.705 L 354.43 282.41 L 358.734 257.059 L 363.037 255.347 L 367.34 270.37 L 371.643 275.444 L 375.946 259.8 L 380.25 258.007 L 384.553 264.91 L 388.856 267.302 L 397.463 253.196 L 401.766 314.898 L 406.069 377.597 L 410.372 354.717 L 414.676 360.224 L 418.979 333.009 L 423.282 297.342 L 427.585 265.559 L 431.888 266.813 L 436.192 252.799 L 440.495 246.436 L 444.798 240.929 L 449.101 246.096 L 453.405 263.033 L 457.708 262.432 L 462.011 246.98 L 466.314 266.127 L 470.618 262.075 L 479.224 274.226 L 483.527 282.454 L 487.83 272.249 L 492.134 285.718 L 496.437 304.639 L 500.74 366.855 L 505.043 311.453 L 509.347 399.37 L 517.953 621.589 L 535.166 563.841 L 543.772 524.109 L 548.076 497.518 L 552.379 493.259 L 556.682 397.727 L 560.985 264.464 L 565.289 323.528 L 569.592 314.069 L 578.198 284.099 L 582.502 302.169 L 586.805 279.927 L 591.108 279.944 L 599.714 284.285 L 604.018 278.52 L 608.321 274.618 L 612.624 279.539 L 616.927 262.862 L 621.231 263.044 L 625.534 264.721 L 629.837 263.727 L 634.14 266.196 L 638.444 269.874 L 642.747 250.11 L 647.05 252.62 L 651.353 255.92 L 655.656 251.405 L 659.96 260.484 L 664.263 275.617 L 668.566 243.635 L 672.869 257.23 L 677.173 268.94 L 681.476 257.307 L 685.779 308.438 L 690.082 329.011 L 694.386 550.767 L 698.689 549.744 L 702.992 557.111 L 707.295 429.355 L 771.844 535.38 L 776.147 532.327 L 784.753 513.855 L 789.057 539.264 L 793.36 561.888 L 797.663 538.297 L 801.966 534.479 L 806.27 293.308 L 810.573 294.884 L 814.876 338.271 L 819.179 356.265 L 823.482 285.519 L 827.786 312.775 L 832.089 482.8 L 836.392 557.363 L 840.695 365.763 L 844.999 381.024 L 849.302 395.492 L 853.605 296.502 L 857.908 332.455 L 862.212 381.49 L 866.515 276.407 L 870.818 245.491 L 875.121 301.391 L 879.424 309.553 L 883.728 320.04 L 888.031 299.891 L 892.334 278.355 L 896.637 252.943 L 900.941 308.002 L 905.244 412.679 L 909.547 335.214 L 913.85 304.901 L 918.154 320.499 L 922.457 446.836 L 926.76 546.758 L 931.063 320.577 L 935.366 593.942 L 939.67 627.19 L 943.973 227.719 L 948.276 213.315" stroke-width="3" stroke-dasharray="" stroke="#0015da" stroke-opacity="1" fill="none" />
</g>
<g id="Scatter_6" clip-path="url(#Scatter_6_clip)">
    <path d="M 109.603 419.347 L 113.95 414.711 L 118.297 408.202 L 122.645 402.261 L 126.992 397.453 L 135.686 385.311 L 140.033 379.583 L 144.38 372.992 L 148.727 366.276 L 153.074 361.589 L 157.421 356.266 L 161.768 351.327 L 170.462 340.393 L 174.809 334.625 L 179.156 328.261 L 187.851 315.923 L 192.198 311.896 L 196.545 307.287 L 200.892 302.021 L 205.239 299.132 L 209.586 297.414 L 213.933 289.612 L 218.28 285.384 L 222.627 284.108 L 226.974 286.907 L 231.321 278.647 L 235.668 296.064 L 240.015 292.64 L 244.363 280.043 L 248.71 273.309 L 253.057 287.826 L 257.404 270.968 L 261.751 266.794 L 266.098 267.562 L 270.445 262.019 L 274.792 268.359 L 279.139 274.978 L 283.486 269.173 L 287.833 260.336 L 292.18 254.327 L 296.527 253.418 L 300.874 253.304 L 305.222 252.945 L 309.569 251.842 L 313.916 268.883 L 318.263 281.907 L 322.61 282.091 L 320.004 311.435 L 324.308 416.467 L 328.611 424.733 L 332.914 405.741 L 337.217 340.5 L 341.521 287.095 L 345.824 273.118 L 350.127 274.98 L 354.43 269.326 L 358.734 265.199 L 363.037 259.543 L 367.34 245.977 L 371.643 243.478 L 375.946 241.332 L 380.25 240.318 L 384.553 242.579 L 388.856 246.454 L 397.463 259.436 L 401.766 351.869 L 406.069 538.098 L 410.372 382.454 L 414.676 404.928 L 418.979 366.142 L 423.282 304.939 L 427.585 275.748 L 431.888 271.821 L 436.192 248.447 L 440.495 244.077 L 444.798 247.829 L 449.101 241.373 L 453.405 255.267 L 457.708 251.358 L 462.011 245.771 L 466.314 274.043 L 470.618 253.761 L 479.224 252.527 L 483.527 264.735 L 487.83 272.585 L 492.134 291.839 L 496.437 338.149 L 500.74 447.213 L 505.043 400.003 L 509.347 383.636 L 517.953 734.392 L 535.166 676.644 L 543.772 636.912 L 548.076 610.321 L 552.379 606.061 L 556.682 374.333 L 560.985 302.198 L 565.289 294.178 L 569.592 284.239 L 578.198 256.643 L 582.502 262.961 L 586.805 256.267 L 591.108 260.164 L 599.714 259.387 L 604.018 250.933 L 608.321 258.191 L 612.624 260.485 L 616.927 254.358 L 621.231 256.227 L 625.534 246.622 L 629.837 250.887 L 634.14 257.691 L 638.444 260.918 L 642.747 255.771 L 647.05 254.557 L 651.353 251.972 L 655.656 247.765 L 659.96 262.132 L 664.263 270.554 L 668.566 252.686 L 672.869 257.133 L 677.173 281.596 L 681.476 283.31 L 685.779 275.68 L 690.082 300.824 L 694.386 487.539 L 698.689 662.546 L 702.992 312.539 L 707.295 302.209 L 771.844 285.769 L 776.147 290.375 L 784.753 626.658 L 789.057 284.86 L 793.36 274.094 L 797.663 240.987 L 801.966 273.296 L 806.27 311.657 L 810.573 291.388 L 814.876 299.733 L 819.179 326.916 L 823.482 256.51 L 827.786 252.099 L 832.089 261.452 L 836.392 269.568 L 840.695 309.816 L 844.999 305.019 L 849.302 277.284 L 853.605 280.046 L 857.908 274.266 L 862.212 269.726 L 866.515 286.07 L 870.818 278.624 L 875.121 277.998 L 879.424 295.523 L 883.728 281.502 L 888.031 298.98 L 892.334 311.488 L 896.637 325.911 L 900.941 309.938 L 905.244 296.839 L 909.547 366.799 L 913.85 408.34 L 918.154 343.281 L 922.457 351.334 L 926.76 387.168 L 931.063 378.401 L 935.366 434.352 L 939.67 399.502 L 943.973 724.858 L 948.276 757.85" stroke-width="3" stroke-dasharray="" stroke="#5f7700" stroke-opacity="1" fill="none" />
</g>
<g id="Scatter_7" clip-path="url(#Scatter_7_clip)">
    <path d="M 109.603 400.949 L 113.95 396.842 L 118.297 388.925 L 122.645 382.651 L 126.992 376.293 L 135.686 362.049 L 140.033 356.002 L 144.38 348.801 L 148.727 340.968 L 153.074 334.97 L 157.421 328.759 L 161.768 322.782 L 170.462 310.071 L 174.809 303.6 L 179.156 296.612 L 187.851 282.58 L 192.198 277.343 L 196.545 273.126 L 200.892 266.738 L 205.239 264.062 L 209.586 261.455 L 213.933 253.579 L 218.28 248.793 L 222.627 247.449 L 226.974 249.889 L 231.321 240.752 L 235.668 257.652 L 240.015 251.736 L 244.363 237.707 L 248.71 230.251 L 253.057 246.055 L 257.404 228.383 L 261.751 225.829 L 266.098 225.546 L 270.445 220.02 L 274.792 227.719 L 279.139 233.273 L 283.486 225.882 L 287.833 215.134 L 292.18 210.975 L 296.527 207.116 L 300.874 208.04 L 305.222 207.153 L 309.569 204.218 L 313.916 220.354 L 318.263 227.117 L 322.61 231.141 L 320.004 284.006 L 324.308 364.063 L 328.611 378.916 L 332.914 353.664 L 337.217 301.649 L 341.521 244.984 L 345.824 228.082 L 350.127 227.747 L 354.43 223.529 L 358.734 216.654 L 363.037 211.229 L 367.34 203.519 L 371.643 198.164 L 375.946 192.642 L 380.25 192.309 L 384.553 198.325 L 388.856 201.359 L 397.463 207.08 L 401.766 299.431 L 406.069 525.364 L 410.372 386.688 L 414.676 389.458 L 418.979 312.782 L 423.282 261.136 L 427.585 237.593 L 431.888 230.755 L 436.192 196.194 L 440.495 200.37 L 444.798 196.475 L 449.101 190.845 L 453.405 205.46 L 457.708 203.497 L 462.011 197.162 L 466.314 224.707 L 470.618 206.941 L 479.224 211.333 L 483.527 228.174 L 487.83 230.809 L 492.134 262.65 L 496.437 323.42 L 500.74 474.314 L 505.043 387.269 L 509.347 385.166 L 517.953 517.364 L 535.166 703.745 L 543.772 664.013 L 548.076 637.422 L 552.379 633.163 L 556.682 713.662 L 560.985 416.665 L 565.289 333.576 L 569.592 319.323 L 578.198 313.966 L 582.502 306.552 L 586.805 295.54 L 591.108 294.003 L 599.714 282.394 L 604.018 276.406 L 608.321 272.645 L 612.624 273.442 L 616.927 254.998 L 621.231 255.295 L 625.534 251.481 L 629.837 247.72 L 634.14 242.256 L 638.444 241.702 L 642.747 234.777 L 647.05 233.137 L 651.353 241.083 L 655.656 241.993 L 659.96 242.926 L 664.263 249.377 L 668.566 256.051 L 672.869 260.393 L 677.173 260.145 L 681.476 278.295 L 685.779 359.639 L 690.082 490.838 L 694.386 396.356 L 698.689 430.374 L 702.992 560.818 L 707.295 446.181 L 771.844 391.32 L 776.147 467.936 L 784.753 653.759 L 789.057 338.677 L 793.36 330.015 L 797.663 361.962 L 801.966 396.034 L 806.27 341.691 L 810.573 329.063 L 814.876 399.726 L 819.179 366.313 L 823.482 334.253 L 827.786 328.528 L 832.089 304.52 L 836.392 316.941 L 840.695 312.507 L 844.999 320.815 L 849.302 445.375 L 853.605 445.77 L 857.908 301.367 L 862.212 296.828 L 866.515 283.687 L 870.818 282.501 L 875.121 291.724 L 879.424 298.756 L 883.728 301.825 L 888.031 303.599 L 892.334 313.093 L 896.637 321.726 L 900.941 339.972 L 905.244 364.98 L 909.547 292.308 L 913.85 318.959 L 918.154 451.04 L 922.457 586.74 L 926.76 343.148 L 931.063 349.856 L 935.366 733.846 L 939.67 767.094 L 943.973 751.959 L 948.276 784.951" stroke-width="3" stroke-dasharray="" stroke="#2d00e4" stroke-opacity="1" fill="none" />
</g>
<g id="Scatter_8" clip-path="url(#Scatter_8_clip)">
    <path d="M 109.603 355.3 L 113.95 350.785 L 118.297 344.224 L 122.645 339.524 L 126.992 333.254 L 135.686 322.761 L 140.033 315.188 L 144.38 310.513 L 148.727 305.782 L 153.074 299.96 L 157.421 296.335 L 161.768 290.502 L 170.462 279.163 L 174.809 275.79 L 179.156 269.223 L 187.851 261.529 L 192.198 256.914 L 196.545 252.748 L 200.892 248 L 205.239 244.703 L 209.586 244.882 L 213.933 238.262 L 218.28 234.469 L 222.627 233.508 L 226.974 235.915 L 231.321 230.895 L 235.668 250.139 L 240.015 247.318 L 244.363 236.003 L 248.71 229.497 L 253.057 242.861 L 257.404 228.503 L 261.751 224.983 L 266.098 225.32 L 270.445 219.981 L 274.792 227.116 L 279.139 234.292 L 283.486 229.597 L 287.833 219.062 L 292.18 214.936 L 296.527 212.178 L 300.874 213.065 L 305.222 212.088 L 309.569 208.36 L 313.916 229.375 L 318.263 232.864 L 322.61 228.833 L 320.004 274.775 L 324.308 362.973 L 328.611 359.831 L 332.914 355.906 L 337.217 320.848 L 341.521 278.342 L 345.824 262.907 L 350.127 251.032 L 354.43 243.707 L 358.734 248.243 L 363.037 238.704 L 367.34 232.306 L 371.643 230.515 L 375.946 230.238 L 380.25 228.162 L 384.553 233.15 L 388.856 227.508 L 397.463 240.617 L 401.766 338.508 L 406.069 807.871 L 410.372 359.689 L 414.676 384.12 L 418.979 395.755 L 423.282 308.704 L 427.585 251.507 L 431.888 253.623 L 436.192 223.339 L 440.495 229.96 L 444.798 224.991 L 449.101 215.17 L 453.405 229.813 L 457.708 227.856 L 462.011 224.695 L 466.314 251.638 L 470.618 230.587 L 479.224 231.82 L 483.527 246.291 L 487.83 246.236 L 492.134 259.085 L 496.437 306.889 L 500.74 349.78 L 505.043 320.481 L 509.347 336.853 L 517.953 663.674 L 535.166 390.06 L 543.772 566.194 L 548.076 539.603 L 552.379 535.344 L 556.682 295.752 L 560.985 290.583 L 565.289 298.889 L 569.592 300.012 L 578.198 291.142 L 582.502 299.605 L 586.805 288.044 L 591.108 299.671 L 599.714 283.746 L 604.018 286.251 L 608.321 270.821 L 612.624 269.279 L 616.927 267.88 L 621.231 270.606 L 625.534 256.62 L 629.837 253.467 L 634.14 264.436 L 638.444 272.562 L 642.747 250.407 L 647.05 247.105 L 651.353 260.504 L 655.656 260.433 L 659.96 266.065 L 664.263 271.788 L 668.566 261.03 L 672.869 272.703 L 677.173 263.111 L 681.476 293.25 L 685.779 312.896 L 690.082 324.921 L 694.386 592.853 L 698.689 591.829 L 702.992 408.02 L 707.295 403.342 L 771.844 577.466 L 776.147 574.412 L 784.753 555.941 L 789.057 337.22 L 793.36 300.294 L 797.663 580.382 L 801.966 576.564 L 806.27 328.113 L 810.573 324.673 L 814.876 380.356 L 819.179 324.296 L 823.482 370.372 L 827.786 307.745 L 832.089 293.874 L 836.392 291.402 L 840.695 332.972 L 844.999 309.865 L 849.302 295.424 L 853.605 314.895 L 857.908 311.482 L 862.212 310.33 L 866.515 577.766 L 870.818 513.793 L 875.121 315.213 L 879.424 292.904 L 883.728 470.059 L 888.031 509.459 L 892.334 298.518 L 896.637 301.369 L 900.941 265.576 L 905.244 263.589 L 909.547 392.443 L 913.85 465.27 L 918.154 329.528 L 922.457 324.461 L 926.76 430.724 L 931.063 606.792 L 935.366 636.028 L 939.67 669.276 L 943.973 654.141 L 948.276 687.132" stroke-width="3" stroke-dasharray="" stroke="#356a00" stroke-opacity="1" fill="none" />
</g>
<g id="Scatter_9" clip-path="url(#Scatter_9_clip)">
    <path d="M 109.603 381.435 L 113.95 380.461 L 118.297 382.17 L 122.645 382.842 L 126.992 378.99 L 135.686 376.755 L 140.033 374.675 L 144.38 373.309 L 148.727 368.865 L 153.074 366.894 L 157.421 362.48 L 161.768 359.384 L 170.462 355.213 L 174.809 350.048 L 179.156 348.25 L 187.851 340.94 L 192.198 333.665 L 196.545 333.29 L 200.892 326.249 L 205.239 328.721 L 209.586 321.905 L 213.933 318.237 L 218.28 314.086 L 222.627 317.636 L 226.974 316.334 L 231.321 313.841 L 235.668 321.113 L 240.015 311.231 L 244.363 306.483 L 248.71 305.184 L 253.057 311.252 L 257.404 295.217 L 261.751 294.383 L 266.098 293.292 L 270.445 286.968 L 274.792 298.669 L 279.139 292.69 L 283.486 285.69 L 287.833 278.48 L 292.18 273.619 L 296.527 268.457 L 300.874 274.517 L 305.222 274.539 L 309.569 272.842 L 313.916 284.285 L 318.263 266.165 L 322.61 284.495 L 320.004 301.736 L 324.308 372.569 L 328.611 353.088 L 332.914 282.846 L 337.217 259.031 L 341.521 240.075 L 345.824 225.735 L 350.127 222.15 L 354.43 217.005 L 358.734 215.424 L 363.037 209.083 L 367.34 201.222 L 371.643 198.599 L 375.946 195.231 L 380.25 196.327 L 384.553 205.693 L 388.856 204.182 L 397.463 227.708 L 401.766 400.251 L 406.069 802.909 L 410.372 400.243 L 414.676 377.784 L 418.979 270.44 L 423.282 240.082 L 427.585 230.403 L 431.888 220.516 L 436.192 197.316 L 440.495 195.904 L 444.798 203.27 L 449.101 190.291 L 453.405 206.335 L 457.708 205.546 L 462.011 199.085 L 466.314 217.208 L 470.618 199.215 L 479.224 203.416 L 483.527 219.045 L 487.83 226.481 L 492.134 251.682 L 496.437 292.256 L 500.74 381.205 L 505.043 473.638 L 509.347 526.515 L 517.953 590.614 L 535.166 600.965 L 543.772 561.233 L 548.076 426.708 L 552.379 530.382 L 556.682 452.762 L 560.985 327.943 L 565.289 315.505 L 569.592 327.645 L 578.198 276.008 L 582.502 269.196 L 586.805 263.919 L 591.108 250.621 L 599.714 249.154 L 604.018 252.825 L 608.321 235.779 L 612.624 240.42 L 616.927 245.006 L 621.231 240.712 L 625.534 236.826 L 629.837 229.766 L 634.14 217.309 L 638.444 218.295 L 642.747 215.077 L 647.05 217.278 L 651.353 220.217 L 655.656 217.662 L 659.96 232.839 L 664.263 233.77 L 668.566 228.833 L 672.869 236.606 L 677.173 258.149 L 681.476 271.876 L 685.779 307.934 L 690.082 366.134 L 694.386 587.891 L 698.689 586.867 L 702.992 389.939 L 707.295 426.643 L 771.844 504.405 L 776.147 569.45 L 784.753 550.979 L 789.057 317.113 L 793.36 290.965 L 797.663 439.224 L 801.966 571.602 L 806.27 338.295 L 810.573 290.013 L 814.876 307.296 L 819.179 308.407 L 823.482 317.027 L 827.786 298.212 L 832.089 267.93 L 836.392 286.44 L 840.695 250.548 L 844.999 253.688 L 849.302 279.535 L 853.605 309.933 L 857.908 317.447 L 862.212 305.368 L 866.515 232.313 L 870.818 217.003 L 875.121 258.845 L 879.424 287.942 L 883.728 269.351 L 888.031 294.247 L 892.334 275.643 L 896.637 278.495 L 900.941 264.468 L 905.244 251.849 L 909.547 347.647 L 913.85 324.112 L 918.154 367.974 L 922.457 415.861 L 926.76 583.882 L 931.063 601.83 L 935.366 404.848 L 939.67 664.314 L 943.973 649.179 L 948.276 682.17" stroke-width="3" stroke-dasharray="" stroke="#6400c8" stroke-opacity="1" fill="none" />
</g>
<g id="Scatter_10" clip-path="url(#Scatter_10_clip)">
    <path d="M 109.603 343.564 L 113.95 341.826 L 118.297 341.621 L 122.645 337.108 L 126.992 333.972 L 135.686 328.012 L 140.033 324.816 L 144.38 321.859 L 148.727 318.688 L 153.074 315.697 L 157.421 312.544 L 161.768 309.282 L 170.462 304.224 L 174.809 302.057 L 179.156 299.845 L 187.851 300.14 L 192.198 297.703 L 196.545 295.43 L 200.892 292.582 L 205.239 291.199 L 209.586 292.704 L 213.933 288.031 L 218.28 286.2 L 222.627 287.368 L 226.974 290.271 L 231.321 290.476 L 235.668 302.773 L 240.015 300.809 L 244.363 293.505 L 248.71 290.103 L 253.057 300.244 L 257.404 286.636 L 261.751 288.74 L 266.098 288.864 L 270.445 285.159 L 274.792 290.549 L 279.139 289.971 L 283.486 288.022 L 287.833 280.542 L 292.18 280.42 L 296.527 279.246 L 300.874 277.5 L 305.222 280.583 L 309.569 282.583 L 313.916 286.456 L 318.263 279.548 L 322.61 283.61 L 320.004 339.921 L 324.308 386.064 L 328.611 346.282 L 332.914 338.698 L 337.217 313.801 L 341.521 267.374 L 345.824 262.391 L 350.127 282.089 L 354.43 285.865 L 358.734 268.274 L 363.037 266.418 L 367.34 265.237 L 371.643 265.741 L 375.946 260.736 L 380.25 259.552 L 384.553 262.97 L 388.856 262.539 L 397.463 275.447 L 401.766 362.916 L 406.069 583.847 L 410.372 453.573 L 414.676 476.565 L 418.979 342.67 L 423.282 307.373 L 427.585 280.32 L 431.888 282.621 L 436.192 249.739 L 440.495 243.16 L 444.798 285.919 L 449.101 277.887 L 453.405 239.725 L 457.708 236.586 L 462.011 252.906 L 466.314 273.017 L 470.618 265.531 L 479.224 244.551 L 483.527 256.65 L 487.83 272.246 L 492.134 295.997 L 496.437 257.773 L 500.74 263.524 L 505.043 463.664 L 509.347 619.68 L 517.953 255.755 L 535.166 557.933 L 543.772 518.201 L 548.076 491.61 L 552.379 487.351 L 556.682 376.674 L 560.985 284.912 L 565.289 249.522 L 569.592 245.318 L 578.198 256.524 L 582.502 238.067 L 586.805 234.899 L 591.108 247.424 L 599.714 283.353 L 604.018 280.953 L 608.321 264.14 L 612.624 268.895 L 616.927 255.936 L 621.231 257.136 L 625.534 286.673 L 629.837 275.007 L 634.14 244.444 L 638.444 242.833 L 642.747 235.161 L 647.05 232.484 L 651.353 254.253 L 655.656 255.848 L 659.96 249.783 L 664.263 257.906 L 668.566 254.94 L 672.869 242.956 L 677.173 254.953 L 681.476 316.378 L 685.779 284.618 L 690.082 323.103 L 694.386 353.684 L 698.689 339.541 L 702.992 551.203 L 707.295 559.643 L 771.844 313.606 L 776.147 526.419 L 784.753 439.849 L 789.057 533.356 L 793.36 555.98 L 797.663 532.389 L 801.966 528.571 L 806.27 539.393 L 810.573 555.029 L 814.876 412.033 L 819.179 418.456 L 823.482 557.96 L 827.786 382.829 L 832.089 241.311 L 836.392 210.964 L 840.695 256.716 L 844.999 278.755 L 849.302 349.749 L 853.605 310.309 L 857.908 253.656 L 862.212 267.649 L 866.515 303.555 L 870.818 289.769 L 875.121 250.337 L 879.424 235.547 L 883.728 235.683 L 888.031 251.216 L 892.334 257.303 L 896.637 260.154 L 900.941 259.326 L 905.244 253.692 L 909.547 520.482 L 913.85 457.112 L 918.154 251.533 L 922.457 240.815 L 926.76 472.752 L 931.063 558.799 L 935.366 253.884 L 939.67 243.025 L 943.973 606.148 L 948.276 331.093" stroke-width="3" stroke-dasharray="" stroke="#146500" stroke-opacity="1" fill="none" />
</g>
<g id="Scatter_11" clip-path="url(#Scatter_11_clip)">
    <path d="M 109.603 376.512 L 113.95 369.079 L 118.297 362.081 L 122.645 356.423 L 126.992 350.048 L 135.686 337.561 L 140.033 331.502 L 144.38 325.515 L 148.727 318.894 L 153.074 313.405 L 157.421 307.902 L 161.768 302.884 L 170.462 290.958 L 174.809 285.782 L 179.156 280.208 L 187.851 273.57 L 192.198 269.923 L 196.545 264.994 L 200.892 259.853 L 205.239 257.714 L 209.586 256.891 L 213.933 251.296 L 218.28 246.363 L 222.627 246.428 L 226.974 249.365 L 231.321 246.988 L 235.668 266.879 L 240.015 265.512 L 244.363 255.021 L 248.71 248.585 L 253.057 261.719 L 257.404 246.39 L 261.751 242.156 L 266.098 243.907 L 270.445 238.195 L 274.792 244.458 L 279.139 251.967 L 283.486 245.887 L 287.833 237.904 L 292.18 235.233 L 296.527 228.516 L 300.874 229.399 L 305.222 230.387 L 309.569 226.267 L 313.916 243.773 L 318.263 249.513 L 322.61 258.807 L 320.004 319.873 L 324.308 369.908 L 328.611 375.024 L 332.914 376.171 L 337.217 320.647 L 341.521 282.267 L 345.824 260.042 L 350.127 248.998 L 354.43 250.024 L 358.734 237.698 L 363.037 234.154 L 367.34 237.264 L 371.643 230.896 L 375.946 229.706 L 380.25 228.452 L 384.553 234.706 L 388.856 234.062 L 397.463 235.053 L 401.766 310.133 L 406.069 451.047 L 410.372 405.819 L 414.676 408.05 L 418.979 345.151 L 423.282 288.88 L 427.585 248.694 L 431.888 242.221 L 436.192 213.898 L 440.495 210.907 L 444.798 218.431 L 449.101 208.956 L 453.405 222.528 L 457.708 216.429 L 462.011 217.661 L 466.314 244.956 L 470.618 223.375 L 479.224 220.544 L 483.527 233.585 L 487.83 245.484 L 492.134 264.956 L 496.437 302.807 L 500.74 346.82 L 505.043 379.28 L 509.347 392.321 L 517.953 700.55 L 535.166 534.869 L 543.772 603.07 L 548.076 576.479 L 552.379 572.22 L 556.682 292.793 L 560.985 286 L 565.289 312.468 L 569.592 298.215 L 578.198 285.83 L 582.502 279.209 L 586.805 267.173 L 591.108 257.361 L 599.714 275.433 L 604.018 267.004 L 608.321 260.337 L 612.624 262.138 L 616.927 251.802 L 621.231 248.93 L 625.534 241.15 L 629.837 235.16 L 634.14 244.002 L 638.444 241.779 L 642.747 228.509 L 647.05 228.442 L 651.353 230.709 L 655.656 227.718 L 659.96 246.838 L 664.263 251.648 L 668.566 242.926 L 672.869 242.317 L 677.173 254.027 L 681.476 274.722 L 685.779 312.96 L 690.082 355.841 L 694.386 377.735 L 698.689 384.575 L 702.992 636.072 L 707.295 644.512 L 771.844 614.341 L 776.147 611.288 L 784.753 456.62 L 789.057 366.232 L 793.36 328.622 L 797.663 322.942 L 801.966 347.388 L 806.27 624.262 L 810.573 639.898 L 814.876 373.824 L 819.179 340.412 L 823.482 334.782 L 827.786 319.93 L 832.089 629.859 L 836.392 636.324 L 840.695 273.487 L 844.999 292.503 L 849.302 298.421 L 853.605 294.806 L 857.908 297.143 L 862.212 292.968 L 866.515 280.491 L 870.818 264.013 L 875.121 330.166 L 879.424 340.131 L 883.728 302.64 L 888.031 306.387 L 892.334 274.073 L 896.637 305.188 L 900.941 314.497 L 905.244 368.563 L 909.547 429.319 L 913.85 610.079 L 918.154 313.45 L 922.457 339.415 L 926.76 467.6 L 931.063 535.735 L 935.366 496.872 L 939.67 490.285 L 943.973 475.15 L 948.276 724.008" stroke-width="3" stroke-dasharray="" stroke="#600078" stroke-opacity="1" fill="none" />
</g>
<g id="Scatter_12" clip-path="url(#Scatter_12_clip)">
    <path d="M 109.603 333.779 L 113.95 330.282 L 118.297 325.129 L 122.645 321.897 L 126.992 317.839 L 135.686 311.676 L 140.033 307.699 L 144.38 303.865 L 148.727 300.558 L 153.074 297.731 L 157.421 295.022 L 161.768 291.675 L 170.462 285.442 L 174.809 282.382 L 179.156 279.597 L 187.851 280.931 L 192.198 276.536 L 196.545 275.224 L 200.892 272.945 L 205.239 272.002 L 209.586 272.043 L 213.933 267.985 L 218.28 264.899 L 222.627 264.662 L 226.974 268.964 L 231.321 269.738 L 235.668 282.362 L 240.015 282.49 L 244.363 273.739 L 248.71 270.886 L 253.057 280.042 L 257.404 270.38 L 261.751 269.09 L 266.098 269.286 L 270.445 264.066 L 274.792 269.907 L 279.139 276.246 L 283.486 268.114 L 287.833 259.057 L 292.18 263.199 L 296.527 259.609 L 300.874 261.871 L 305.222 260.57 L 309.569 264.882 L 313.916 284.725 L 318.263 268.831 L 322.61 264.582 L 320.004 318.688 L 324.308 343.988 L 328.611 341.345 L 332.914 320.066 L 337.217 299.358 L 341.521 281.772 L 345.824 261.074 L 350.127 282.92 L 354.43 276.458 L 358.734 270.979 L 363.037 268.982 L 367.34 269.652 L 371.643 264.689 L 375.946 261.23 L 380.25 260.875 L 384.553 276.121 L 388.856 280.224 L 397.463 275.479 L 401.766 341.582 L 406.069 419.598 L 410.372 739.774 L 414.676 742.006 L 418.979 394.928 L 423.282 336.274 L 427.585 283.52 L 431.888 275.025 L 436.192 255.323 L 440.495 244.072 L 444.798 265.01 L 449.101 253.525 L 453.405 246.627 L 457.708 246.464 L 462.011 253.454 L 466.314 270.936 L 470.618 270.878 L 479.224 286.826 L 483.527 295.764 L 487.83 274.338 L 492.134 300.708 L 496.437 300.405 L 500.74 315.595 L 505.043 296.648 L 509.347 266.281 L 517.953 602.774 L 535.166 545.026 L 543.772 505.294 L 548.076 478.702 L 552.379 474.443 L 556.682 554.942 L 560.985 592.095 L 565.289 272.439 L 569.592 270.109 L 578.198 243.616 L 582.502 279.397 L 586.805 282.501 L 591.108 318.876 L 599.714 279.809 L 604.018 282.776 L 608.321 254.64 L 612.624 254.838 L 616.927 272.31 L 621.231 266.151 L 625.534 267.525 L 629.837 271.174 L 634.14 244.954 L 638.444 252.377 L 642.747 250.877 L 647.05 244.582 L 651.353 262.191 L 655.656 252.773 L 659.96 246.708 L 664.263 254.733 L 668.566 232.1 L 672.869 236.255 L 677.173 255.905 L 681.476 272.184 L 685.779 419.478 L 690.082 536.413 L 694.386 531.952 L 698.689 530.928 L 702.992 430.362 L 707.295 546.736 L 771.844 312.27 L 776.147 269.382 L 784.753 495.04 L 789.057 520.448 L 793.36 543.073 L 797.663 283.9 L 801.966 379.467 L 806.27 274.492 L 810.573 306.54 L 814.876 535.322 L 819.179 383.625 L 823.482 237.006 L 827.786 242.274 L 832.089 532.082 L 836.392 538.547 L 840.695 230.077 L 844.999 214.441 L 849.302 277.291 L 853.605 355.149 L 857.908 348.681 L 862.212 303.124 L 866.515 227.589 L 870.818 226.675 L 875.121 237.429 L 879.424 274.326 L 883.728 186.271 L 888.031 200.419 L 892.334 503.669 L 896.637 506.52 L 900.941 320.472 L 905.244 278.067 L 909.547 371.377 L 913.85 404.369 L 918.154 283.772 L 922.457 344.778 L 926.76 268.669 L 931.063 293.898 L 935.366 309.075 L 939.67 274.224 L 943.973 593.24 L 948.276 626.232" stroke-width="3" stroke-dasharray="" stroke="#006a0a" stroke-opacity="1" fill="none" />
</g>
<g id="Scatter_13" clip-path="url(#Scatter_13_clip)">
    <path d="M 109.603 378.137 L 113.95 375.019 L 118.297 372.993 L 122.645 368.848 L 126.992 364.607 L 135.686 355.386 L 140.033 350.179 L 144.38 346.625 L 148.727 340.254 L 153.074 336.6 L 157.421 331.713 L 161.768 326.287 L 170.462 317.881 L 174.809 313.003 L 179.156 310.287 L 187.851 305.3 L 192.198 302.117 L 196.545 298.318 L 200.892 293.208 L 205.239 293.168 L 209.586 290.103 L 213.933 287.005 L 218.28 283.904 L 222.627 284.782 L 226.974 287.157 L 231.321 289.403 L 235.668 306.771 L 240.015 307.193 L 244.363 300.002 L 248.71 292.737 L 253.057 305.022 L 257.404 290.174 L 261.751 287.713 L 266.098 287.032 L 270.445 281.74 L 274.792 289.368 L 279.139 291.268 L 283.486 288.539 L 287.833 280.617 L 292.18 278.048 L 296.527 274.095 L 300.874 277.893 L 305.222 275.969 L 309.569 277.391 L 313.916 284.985 L 318.263 297.457 L 322.61 298.853 L 320.004 345.489 L 324.308 365.117 L 328.611 369.61 L 332.914 364.302 L 337.217 329.709 L 341.521 290.886 L 345.824 274.016 L 350.127 274.76 L 354.43 269.71 L 358.734 254.225 L 363.037 249.402 L 367.34 253.886 L 371.643 251.602 L 375.946 254.266 L 380.25 254.868 L 384.553 260.505 L 388.856 263.552 L 397.463 274.123 L 401.766 411.568 L 406.069 823.465 L 410.372 464.206 L 414.676 478.009 L 418.979 360.33 L 423.282 295.084 L 427.585 270.22 L 431.888 269.691 L 436.192 232.169 L 440.495 231.368 L 444.798 229.803 L 449.101 224.949 L 453.405 241.991 L 457.708 241.224 L 462.011 230.646 L 466.314 252.389 L 470.618 234.915 L 479.224 230.935 L 483.527 234.911 L 487.83 255.489 L 492.134 280.404 L 496.437 292.54 L 500.74 325.538 L 505.043 685.37 L 509.347 525.148 L 517.953 413.216 L 535.166 621.52 L 543.772 581.788 L 548.076 555.197 L 552.379 550.938 L 556.682 631.437 L 560.985 311.216 L 565.289 297.964 L 569.592 291.172 L 578.198 262.25 L 582.502 280.328 L 586.805 269.508 L 591.108 248.921 L 599.714 246.059 L 604.018 246.178 L 608.321 247.562 L 612.624 245.991 L 616.927 241.785 L 621.231 241.399 L 625.534 238.123 L 629.837 238.164 L 634.14 235.839 L 638.444 231.192 L 642.747 224.885 L 647.05 227.422 L 651.353 230.158 L 655.656 237.538 L 659.96 246.843 L 664.263 242.858 L 668.566 231.477 L 672.869 229.813 L 677.173 262.824 L 681.476 300.295 L 685.779 280.106 L 690.082 328.943 L 694.386 372.865 L 698.689 355.43 L 702.992 311.11 L 707.295 295.858 L 771.844 417.028 L 776.147 590.006 L 784.753 571.534 L 789.057 293.264 L 793.36 270.272 L 797.663 329.924 L 801.966 434.039 L 806.27 358.851 L 810.573 374.486 L 814.876 259.754 L 819.179 239.981 L 823.482 284.175 L 827.786 328.132 L 832.089 319.301 L 836.392 287.67 L 840.695 265.323 L 844.999 252.321 L 849.302 305.403 L 853.605 323.71 L 857.908 282.201 L 862.212 274.709 L 866.515 255.988 L 870.818 277.394 L 875.121 279.4 L 879.424 271.994 L 883.728 273.494 L 888.031 273.06 L 892.334 242.792 L 896.637 259.216 L 900.941 277.462 L 905.244 290.317 L 909.547 357.851 L 913.85 588.797 L 918.154 345.122 L 922.457 360.455 L 926.76 368.856 L 931.063 333.11 L 935.366 385.569 L 939.67 469.003 L 943.973 669.735 L 948.276 702.726" stroke-width="3" stroke-dasharray="" stroke="#6d0062" stroke-opacity="1" fill="none" />
</g>
<g id="Scatter_14" clip-path="url(#Scatter_14_clip)">
    <path d="M 109.603 354.648 L 113.95 352.366 L 118.297 348.869 L 122.645 342.67 L 126.992 338.04 L 135.686 329.935 L 140.033 327.523 L 144.38 322.068 L 148.727 318.388 L 153.074 314.12 L 157.421 310.828 L 161.768 306.656 L 170.462 298.591 L 174.809 294.845 L 179.156 292.681 L 187.851 291.486 L 192.198 288.737 L 196.545 286.225 L 200.892 281.475 L 205.239 281.491 L 209.586 280.997 L 213.933 277.968 L 218.28 275.491 L 222.627 274.96 L 226.974 278.704 L 231.321 281.276 L 235.668 297.789 L 240.015 296.866 L 244.363 292.421 L 248.71 285.752 L 253.057 295.888 L 257.404 283.809 L 261.751 280.837 L 266.098 281.601 L 270.445 278.256 L 274.792 285.173 L 279.139 290.918 L 283.486 283.54 L 287.833 275.674 L 292.18 271.225 L 296.527 271.375 L 300.874 272.398 L 305.222 273.543 L 309.569 270.534 L 313.916 282.002 L 318.263 288.188 L 322.61 302.234 L 320.004 355.994 L 324.308 338.021 L 328.611 376.539 L 332.914 362.234 L 337.217 315.298 L 341.521 258.572 L 345.824 251.411 L 350.127 272.155 L 354.43 268.342 L 358.734 251.629 L 363.037 254.38 L 367.34 260.817 L 371.643 258.699 L 375.946 247.686 L 380.25 247.222 L 384.553 263.303 L 388.856 266.799 L 397.463 261.906 L 401.766 436.339 L 406.069 782.625 L 410.372 423.366 L 414.676 518.386 L 418.979 360.576 L 423.282 300.885 L 427.585 263.392 L 431.888 264.846 L 436.192 230.116 L 440.495 232.977 L 444.798 238.214 L 449.101 231.747 L 453.405 241.522 L 457.708 236.441 L 462.011 239.013 L 466.314 260.296 L 470.618 238.434 L 479.224 249.183 L 483.527 255.314 L 487.83 280.471 L 492.134 308.981 L 496.437 304.416 L 500.74 383.694 L 505.043 644.53 L 509.347 642.427 L 517.953 638.428 L 535.166 580.68 L 543.772 540.948 L 548.076 514.357 L 552.379 510.098 L 556.682 278.369 L 560.985 281.303 L 565.289 279.34 L 569.592 275.928 L 578.198 258.17 L 582.502 260.814 L 586.805 261.298 L 591.108 269.342 L 599.714 267.549 L 604.018 254.012 L 608.321 257.238 L 612.624 263.668 L 616.927 246.937 L 621.231 249.827 L 625.534 250.605 L 629.837 249.611 L 634.14 244.022 L 638.444 241.36 L 642.747 234.912 L 647.05 230.909 L 651.353 242.103 L 655.656 237.213 L 659.96 232.176 L 664.263 225.409 L 668.566 239.965 L 672.869 252.584 L 677.173 265.555 L 681.476 277.368 L 685.779 236.574 L 690.082 241.248 L 694.386 259.56 L 698.689 294.19 L 702.992 573.95 L 707.295 582.39 L 771.844 394.1 L 776.147 549.166 L 784.753 241.418 L 789.057 397.984 L 793.36 343.146 L 797.663 303.142 L 801.966 285.266 L 806.27 289.747 L 810.573 269.729 L 814.876 355.11 L 819.179 373.104 L 823.482 580.707 L 827.786 581.607 L 832.089 499.639 L 836.392 438.005 L 840.695 270.099 L 844.999 284.618 L 849.302 244.848 L 853.605 264.958 L 857.908 316.238 L 862.212 285.084 L 866.515 228.72 L 870.818 219.274 L 875.121 284.011 L 879.424 302.699 L 883.728 240.518 L 888.031 224.939 L 892.334 231.277 L 896.637 263.826 L 900.941 226.271 L 905.244 234.895 L 909.547 543.228 L 913.85 547.957 L 918.154 291.163 L 922.457 299.215 L 926.76 563.597 L 931.063 581.546 L 935.366 321.505 L 939.67 294.734 L 943.973 628.895 L 948.276 661.886" stroke-width="3" stroke-dasharray="" stroke="#00762f" stroke-opacity="1" fill="none" />
</g>
<g id="Scatter_15" clip-path="url(#Scatter_15_clip)">
    <path d="M 109.603 364.608 L 113.95 357.745 L 118.297 356.549 L 122.645 353.337 L 126.992 349.91 L 135.686 342.476 L 140.033 338.935 L 144.38 336.208 L 148.727 331.158 L 153.074 328.578 L 157.421 324.469 L 161.768 320.699 L 170.462 314.691 L 174.809 311.5 L 179.156 309.842 L 187.851 310.397 L 192.198 305.955 L 196.545 304.453 L 200.892 300.397 L 205.239 299.698 L 209.586 297.88 L 213.933 294.855 L 218.28 293.575 L 222.627 295.052 L 226.974 297.94 L 231.321 300.797 L 235.668 313.61 L 240.015 311.054 L 244.363 303.879 L 248.71 301.423 L 253.057 308.013 L 257.404 298.388 L 261.751 298.106 L 266.098 299.347 L 270.445 292.249 L 274.792 300.156 L 279.139 302.601 L 283.486 294.802 L 287.833 291.599 L 292.18 289.36 L 296.527 285.16 L 300.874 286.258 L 305.222 289.877 L 309.569 284.455 L 313.916 298.914 L 318.263 296.221 L 322.61 329.538 L 320.004 327.273 L 324.308 390.184 L 328.611 368.249 L 332.914 340.683 L 337.217 316.83 L 341.521 272.219 L 345.824 264.663 L 350.127 281.245 L 354.43 284.274 L 358.734 266.695 L 363.037 272.619 L 367.34 267.851 L 371.643 262.83 L 375.946 258.862 L 380.25 261.54 L 384.553 272.686 L 388.856 272.268 L 397.463 295.469 L 401.766 350.868 L 406.069 382.942 L 410.372 777.994 L 414.676 780.225 L 418.979 357.631 L 423.282 309.873 L 427.585 283.805 L 431.888 273.047 L 436.192 234.576 L 440.495 237.793 L 444.798 245.543 L 449.101 239.42 L 453.405 242.489 L 457.708 235.88 L 462.011 247.146 L 466.314 269.003 L 470.618 254.781 L 479.224 262.814 L 483.527 278.213 L 487.83 260.366 L 492.134 293.412 L 496.437 308.416 L 500.74 353.814 L 505.043 323.295 L 509.347 298.545 L 517.953 640.993 L 535.166 583.245 L 543.772 543.513 L 548.076 516.922 L 552.379 512.663 L 556.682 593.162 L 560.985 630.315 L 565.289 287.953 L 569.592 268.494 L 578.198 260.735 L 582.502 264.879 L 586.805 265.363 L 591.108 286.093 L 599.714 269.256 L 604.018 271.099 L 608.321 245.25 L 612.624 250.964 L 616.927 259.528 L 621.231 254.703 L 625.534 254.059 L 629.837 242.893 L 634.14 245.765 L 638.444 239.881 L 642.747 234.947 L 647.05 230.922 L 651.353 236.882 L 655.656 247.216 L 659.96 238.967 L 664.263 247.806 L 668.566 230.485 L 672.869 233.226 L 677.173 242.168 L 681.476 259.329 L 685.779 417.862 L 690.082 398.601 L 694.386 570.171 L 698.689 569.148 L 702.992 418.395 L 707.295 369.089 L 771.844 276.435 L 776.147 285.678 L 784.753 533.259 L 789.057 450.735 L 793.36 355.075 L 797.663 237.609 L 801.966 327.666 L 806.27 312.712 L 810.573 336.211 L 814.876 357.675 L 819.179 280.855 L 823.482 242.781 L 827.786 250.022 L 832.089 291.953 L 836.392 332.637 L 840.695 196.017 L 844.999 209.252 L 849.302 261.816 L 853.605 252.378 L 857.908 305.684 L 862.212 256.833 L 866.515 234.993 L 870.818 235.411 L 875.121 248.686 L 879.424 252.311 L 883.728 203.248 L 888.031 231.077 L 892.334 473.79 L 896.637 368.708 L 900.941 254.94 L 905.244 279.003 L 909.547 354.618 L 913.85 272.173 L 918.154 253.893 L 922.457 330.043 L 926.76 390.131 L 931.063 425.992 L 935.366 319.031 L 939.67 342.915 L 943.973 631.459 L 948.276 664.451" stroke-width="3" stroke-dasharray="" stroke="#bc0071" stroke-opacity="1" fill="none" />
</g>
<g id="Scatter_16" clip-path="url(#Scatter_16_clip)">
    <path d="M 109.603 394.141 L 113.95 388.886 L 118.297 380.352 L 122.645 374.261 L 126.992 367.727 L 135.686 354.493 L 140.033 347.691 L 144.38 341.142 L 148.727 334.31 L 153.074 328.332 L 157.421 323.23 L 161.768 316.645 L 170.462 303.895 L 174.809 298.787 L 179.156 291.806 L 187.851 280.905 L 192.198 276.051 L 196.545 271.849 L 200.892 266.199 L 205.239 263.545 L 209.586 262.094 L 213.933 254.479 L 218.28 250.366 L 222.627 248.803 L 226.974 251.689 L 231.321 244.561 L 235.668 262.885 L 240.015 258.707 L 244.363 245.196 L 248.71 238.854 L 253.057 253.968 L 257.404 237.057 L 261.751 233.872 L 266.098 233.668 L 270.445 228.329 L 274.792 237.079 L 279.139 242.484 L 283.486 235.714 L 287.833 225.527 L 292.18 221.406 L 296.527 217.39 L 300.874 218.131 L 305.222 217.147 L 309.569 213.622 L 313.916 229.667 L 318.263 239.645 L 322.61 242.643 L 320.004 303.3 L 324.308 374.693 L 328.611 393.879 L 332.914 363.121 L 337.217 314.271 L 341.521 265.778 L 345.824 250.163 L 350.127 246.175 L 354.43 241.006 L 358.734 232.199 L 363.037 224.751 L 367.34 222.589 L 371.643 219.02 L 375.946 215.219 L 380.25 215.318 L 384.553 222.191 L 388.856 219.449 L 397.463 226.208 L 401.766 305.27 L 406.069 469.541 L 410.372 377.834 L 414.676 381.333 L 418.979 341.579 L 423.282 282.254 L 427.585 241.295 L 431.888 241.626 L 436.192 208.653 L 440.495 211.331 L 444.798 209.757 L 449.101 202.413 L 453.405 218.529 L 457.708 214.553 L 462.011 207.703 L 466.314 235.576 L 470.618 218.472 L 479.224 221.828 L 483.527 235.643 L 487.83 241.869 L 492.134 266.772 L 496.437 319.701 L 500.74 403.986 L 505.043 419.258 L 509.347 456.99 L 517.953 736.956 L 535.166 452.991 L 543.772 639.476 L 548.076 612.885 L 552.379 608.625 L 556.682 437.131 L 560.985 422.599 L 565.289 331.876 L 569.592 319.477 L 578.198 302.785 L 582.502 310.504 L 586.805 303.999 L 591.108 288.108 L 599.714 281.368 L 604.018 277.914 L 608.321 270.654 L 612.624 272.001 L 616.927 264.34 L 621.231 265.439 L 625.534 249.186 L 629.837 248.513 L 634.14 245.06 L 638.444 247.743 L 642.747 243.59 L 647.05 244.002 L 651.353 244.143 L 655.656 245.311 L 659.96 248.203 L 664.263 252.209 L 668.566 250.486 L 672.869 262.504 L 677.173 269.16 L 681.476 288.53 L 685.779 307.505 L 690.082 346.796 L 694.386 666.134 L 698.689 665.111 L 702.992 323.183 L 707.295 326.164 L 771.844 650.747 L 776.147 471.662 L 784.753 629.222 L 789.057 346.584 L 793.36 317.329 L 797.663 375.315 L 801.966 491.727 L 806.27 401.394 L 810.573 372.624 L 814.876 317.442 L 819.179 326.632 L 823.482 338.743 L 827.786 322.761 L 832.089 292.28 L 836.392 294.472 L 840.695 282.245 L 844.999 284.233 L 849.302 284.641 L 853.605 290.076 L 857.908 333.549 L 862.212 342.068 L 866.515 343.001 L 870.818 324.353 L 875.121 317.373 L 879.424 316.987 L 883.728 313.902 L 888.031 320.019 L 892.334 314.052 L 896.637 332.656 L 900.941 346.722 L 905.244 360.563 L 909.547 357.792 L 913.85 394.492 L 918.154 367.768 L 922.457 391.787 L 926.76 554.192 L 931.063 611.975 L 935.366 709.309 L 939.67 742.557 L 943.973 428.313 L 948.276 429.594" stroke-width="3" stroke-dasharray="" stroke="#007d57" stroke-opacity="1" fill="none" />
</g>
<g id="Scatter_17" clip-path="url(#Scatter_17_clip)">
    <path d="M 109.603 370.712 L 113.95 365.633 L 118.297 359.871 L 122.645 356.098 L 126.992 352.068 L 135.686 341.416 L 140.033 336.663 L 144.38 331.854 L 148.727 326.667 L 153.074 321.752 L 157.421 317.448 L 161.768 313.187 L 170.462 303.896 L 174.809 300.277 L 179.156 296.666 L 187.851 294.709 L 192.198 290.519 L 196.545 287.408 L 200.892 284.093 L 205.239 281.459 L 209.586 281.897 L 213.933 277.067 L 218.28 274.296 L 222.627 274.121 L 226.974 278.671 L 231.321 279.601 L 235.668 299.112 L 240.015 300.73 L 244.363 298.862 L 248.71 287.582 L 253.057 297.968 L 257.404 284.381 L 261.751 281.724 L 266.098 281.661 L 270.445 276.776 L 274.792 283.743 L 279.139 288.705 L 283.486 282.858 L 287.833 276.92 L 292.18 274.435 L 296.527 271.154 L 300.874 272.981 L 305.222 273.867 L 309.569 268.661 L 313.916 279.968 L 318.263 294.538 L 322.61 305.222 L 320.004 346.356 L 324.308 380.569 L 328.611 370.725 L 332.914 364.406 L 337.217 338.312 L 341.521 307.709 L 345.824 292.098 L 350.127 277.92 L 354.43 277.372 L 358.734 258.717 L 363.037 256.846 L 367.34 259.256 L 371.643 259.807 L 375.946 255.083 L 380.25 252.467 L 384.553 264.016 L 388.856 270.468 L 397.463 273.154 L 401.766 389.64 L 406.069 812.265 L 410.372 406.151 L 414.676 387.139 L 418.979 370.587 L 423.282 314.144 L 427.585 274.164 L 431.888 269.264 L 436.192 241.271 L 440.495 236.768 L 444.798 246.047 L 449.101 239.621 L 453.405 248.095 L 457.708 245.852 L 462.011 243.692 L 466.314 266.243 L 470.618 243.612 L 479.224 250.307 L 483.527 262.181 L 487.83 260.98 L 492.134 274.588 L 496.437 315.907 L 500.74 390.56 L 505.043 674.17 L 509.347 672.067 L 517.953 599.97 L 535.166 610.32 L 543.772 570.588 L 548.076 543.997 L 552.379 539.737 L 556.682 321.128 L 560.985 300.015 L 565.289 299.217 L 569.592 296.631 L 578.198 277.624 L 582.502 284.673 L 586.805 288.73 L 591.108 271.756 L 599.714 270.227 L 604.018 269.045 L 608.321 262.831 L 612.624 261.627 L 616.927 254.362 L 621.231 242.988 L 625.534 242.497 L 629.837 251.654 L 634.14 250.264 L 638.444 247.602 L 642.747 238.448 L 647.05 238.282 L 651.353 234.995 L 655.656 237.066 L 659.96 244.769 L 664.263 243.125 L 668.566 246.831 L 672.869 257.533 L 677.173 243.198 L 681.476 247.458 L 685.779 277.454 L 690.082 366.126 L 694.386 597.246 L 698.689 596.223 L 702.992 272.77 L 707.295 268.516 L 771.844 390.683 L 776.147 442.609 L 784.753 560.334 L 789.057 341.613 L 793.36 319.091 L 797.663 325.502 L 801.966 422.839 L 806.27 279.552 L 810.573 270.044 L 814.876 306.301 L 819.179 340.986 L 823.482 316.031 L 827.786 338.855 L 832.089 324.984 L 836.392 304.733 L 840.695 238.578 L 844.999 272.715 L 849.302 294.202 L 853.605 284.247 L 857.908 288.913 L 862.212 291.772 L 866.515 278.48 L 870.818 278.239 L 875.121 268.2 L 879.424 254.241 L 883.728 270.158 L 888.031 297.987 L 892.334 274.648 L 896.637 287.85 L 900.941 324.009 L 905.244 317.006 L 909.547 306.816 L 913.85 351.38 L 918.154 341.202 L 922.457 365.667 L 926.76 333.963 L 931.063 367.056 L 935.366 449.245 L 939.67 605.571 L 943.973 658.534 L 948.276 375.288" stroke-width="3" stroke-dasharray="" stroke="#d60040" stroke-opacity="1" fill="none" />
</g>
<g id="Scatter_18" clip-path="url(#Scatter_18_clip)">
    <path d="M 109.603 317.29 L 113.95 313.583 L 118.297 313.008 L 122.645 311.712 L 126.992 305.91 L 135.686 299.829 L 140.033 296.715 L 144.38 293.518 L 148.727 291.804 L 153.074 287.8 L 157.421 284.914 L 161.768 281.696 L 170.462 276.016 L 174.809 272.341 L 179.156 269.54 L 187.851 270.422 L 192.198 268.141 L 196.545 265 L 200.892 263.632 L 205.239 260.292 L 209.586 262.408 L 213.933 259.032 L 218.28 256.101 L 222.627 257.542 L 226.974 260.6 L 231.321 260.772 L 235.668 273.049 L 240.015 274.553 L 244.363 267.063 L 248.71 263.848 L 253.057 271.427 L 257.404 263.296 L 261.751 259.509 L 266.098 259.364 L 270.445 252.269 L 274.792 262.838 L 279.139 267.773 L 283.486 261.506 L 287.833 255.087 L 292.18 249.74 L 296.527 251.716 L 300.874 253.352 L 305.222 251.869 L 309.569 249.373 L 313.916 259.265 L 318.263 270.287 L 322.61 365.059 L 320.004 306.817 L 324.308 386.835 L 328.611 350.257 L 332.914 378.899 L 337.217 352.213 L 341.521 283.933 L 345.824 277.178 L 350.127 307.145 L 354.43 299.287 L 358.734 248.191 L 363.037 248.17 L 367.34 260.201 L 371.643 268.787 L 375.946 245.863 L 380.25 249.531 L 384.553 276.505 L 388.856 282.052 L 397.463 285.316 L 401.766 310.491 L 406.069 349.629 L 410.372 319.314 L 414.676 359.808 L 418.979 369.01 L 423.282 300.564 L 427.585 278.63 L 431.888 289.765 L 436.192 222.809 L 440.495 224.094 L 444.798 228.868 L 449.101 224.539 L 453.405 247.48 L 457.708 236.666 L 462.011 246.931 L 466.314 264.929 L 470.618 240.669 L 479.224 261.059 L 483.527 260.723 L 487.83 297.177 L 492.134 357.389 L 496.437 317.689 L 500.74 300.605 L 505.043 593.885 L 509.347 591.782 L 517.953 587.783 L 535.166 530.036 L 543.772 490.304 L 548.076 463.712 L 552.379 459.453 L 556.682 432.019 L 560.985 341.524 L 565.289 292.49 L 569.592 284.444 L 578.198 239.433 L 582.502 282.838 L 586.805 278.752 L 591.108 294.522 L 599.714 292.151 L 604.018 273.742 L 608.321 266.005 L 612.624 249.441 L 616.927 253.309 L 621.231 247.358 L 625.534 288.662 L 629.837 304.28 L 634.14 236.145 L 638.444 221.487 L 642.747 270.107 L 647.05 261.235 L 651.353 238.652 L 655.656 250.656 L 659.96 254.941 L 664.263 246.084 L 668.566 253.237 L 672.869 248.115 L 677.173 312.036 L 681.476 560.873 L 685.779 232.638 L 690.082 232.147 L 694.386 516.962 L 698.689 515.938 L 702.992 523.305 L 707.295 531.745 L 771.844 501.575 L 776.147 498.521 L 784.753 264.184 L 789.057 216.182 L 793.36 220.036 L 797.663 504.491 L 801.966 500.673 L 806.27 375.299 L 810.573 291.55 L 814.876 241.983 L 819.179 206.663 L 823.482 530.062 L 827.786 530.963 L 832.089 517.092 L 836.392 332.381 L 840.695 239.169 L 844.999 244.901 L 849.302 361.686 L 853.605 498.278 L 857.908 348.836 L 862.212 387.519 L 866.515 266.294 L 870.818 329.969 L 875.121 443.617 L 879.424 335.297 L 883.728 250.108 L 888.031 285.8 L 892.334 297.503 L 896.637 247.401 L 900.941 401.844 L 905.244 515.07 L 909.547 492.584 L 913.85 497.312 L 918.154 354.792 L 922.457 413.03 L 926.76 512.953 L 931.063 530.901 L 935.366 247.909 L 939.67 334.111 L 943.973 326.257 L 948.276 611.241" stroke-width="3" stroke-dasharray="" stroke="#007777" stroke-opacity="1" fill="none" />
</g>
<g id="Scatter_19" clip-path="url(#Scatter_19_clip)">
    <path d="M 109.603 380.932 L 113.95 375.863 L 118.297 370.68 L 122.645 365.694 L 126.992 360.571 L 135.686 349.018 L 140.033 343.508 L 144.38 337.834 L 148.727 331.653 L 153.074 326.872 L 157.421 321.086 L 161.768 316.269 L 170.462 306.904 L 174.809 301.001 L 179.156 296.877 L 187.851 292.268 L 192.198 289.161 L 196.545 284.771 L 200.892 280.53 L 205.239 278.965 L 209.586 277.168 L 213.933 272.484 L 218.28 269.399 L 222.627 269.14 L 226.974 272.948 L 231.321 273.933 L 235.668 294.952 L 240.015 294.907 L 244.363 285.483 L 248.71 280.215 L 253.057 291.698 L 257.404 276.759 L 261.751 273.763 L 266.098 273.643 L 270.445 267.812 L 274.792 275.358 L 279.139 278.67 L 283.486 278.134 L 287.833 267.235 L 292.18 266.645 L 296.527 260.959 L 300.874 265.324 L 305.222 263.276 L 309.569 261.007 L 313.916 272.589 L 318.263 286.524 L 322.61 284.66 L 320.004 329.824 L 324.308 385.688 L 328.611 392.271 L 332.914 390.1 L 337.217 337.343 L 341.521 279.498 L 345.824 268.292 L 350.127 275.412 L 354.43 273.211 L 358.734 255.783 L 363.037 249.388 L 367.34 250.121 L 371.643 248.765 L 375.946 249.271 L 380.25 249.773 L 384.553 259.708 L 388.856 261.457 L 397.463 269.256 L 401.766 397.955 L 406.069 840.909 L 410.372 459.727 L 414.676 471.104 L 418.979 363.342 L 423.282 305.801 L 427.585 272.973 L 431.888 268.395 L 436.192 230.861 L 440.495 229.737 L 444.798 227.965 L 449.101 224.453 L 453.405 242.007 L 457.708 240.887 L 462.011 225.481 L 466.314 250.929 L 470.618 237.919 L 479.224 229.729 L 483.527 234.404 L 487.83 256.049 L 492.134 277.776 L 496.437 293.188 L 500.74 329.863 L 505.043 511.638 L 509.347 632.612 L 517.953 347.417 L 535.166 638.964 L 543.772 599.232 L 548.076 572.641 L 552.379 568.382 L 556.682 444.586 L 560.985 318.827 L 565.289 301.271 L 569.592 292.065 L 578.198 275.252 L 582.502 279.263 L 586.805 265.457 L 591.108 256.68 L 599.714 256.026 L 604.018 255.302 L 608.321 251.64 L 612.624 249.6 L 616.927 246.744 L 621.231 246.302 L 625.534 246.719 L 629.837 242.035 L 634.14 238.425 L 638.444 238.826 L 642.747 234.975 L 647.05 234.955 L 651.353 238.562 L 655.656 245.31 L 659.96 253.068 L 664.263 255.429 L 668.566 229.441 L 672.869 229.651 L 677.173 264.082 L 681.476 320.507 L 685.779 297.55 L 690.082 346.387 L 694.386 390.309 L 698.689 340.902 L 702.992 256.089 L 707.295 254.392 L 771.844 434.472 L 776.147 607.45 L 784.753 588.978 L 789.057 302.159 L 793.36 287.716 L 797.663 377.839 L 801.966 609.602 L 806.27 384.843 L 810.573 352.095 L 814.876 255.275 L 819.179 236.765 L 823.482 349.714 L 827.786 373.839 L 832.089 359.969 L 836.392 328.806 L 840.695 294.69 L 844.999 272.252 L 849.302 317.535 L 853.605 334.813 L 857.908 330.116 L 862.212 333.535 L 866.515 267.289 L 870.818 277.557 L 875.121 283.272 L 879.424 276.743 L 883.728 267.515 L 888.031 267.081 L 892.334 260.235 L 896.637 269.639 L 900.941 266.643 L 905.244 274.704 L 909.547 385.646 L 913.85 470.044 L 918.154 332.563 L 922.457 345.927 L 926.76 349.488 L 931.063 350.553 L 935.366 403.013 L 939.67 511.137 L 943.973 687.178 L 948.276 720.17" stroke-width="3" stroke-dasharray="" stroke="#cb0000" stroke-opacity="1" fill="none" />
</g>
<g id="frame_0">
    <rect id="frame_0_border" x="120" y="50" width="830" height="870" />
    <text id="frame_0_bottomlabel" font-size="30" transform="translate(535, 989.6)" text-anchor="middle" dominant-baseline="middle" stroke="none" fill="black">wavelength [nm]</text>
    <g id="frame_0_bottomticks">
        <path d="M 268.974 920 L 268.974 910" />
        <path d="M 609.487 920 L 609.487 910" />
        <path d="M 311.538 920 L 311.538 910" />
        <path d="M 694.615 920 L 694.615 910" />
        <path d="M 737.179 920 L 737.179 910" />
        <path d="M 354.103 920 L 354.103 900" />
        <text font-size="30" transform="translate(354.103, 950)" text-anchor="middle" dominant-baseline="middle" stroke="none" fill="black">1000</text>
        <path d="M 396.667 920 L 396.667 910" />
        <path d="M 141.282 920 L 141.282 900" />
        <text font-size="30" transform="translate(141.282, 950)" text-anchor="middle" dominant-baseline="middle" stroke="none" fill="black">500</text>
        <path d="M 566.923 920 L 566.923 900" />
        <text font-size="30" transform="translate(566.923, 950)" text-anchor="middle" dominant-baseline="middle" stroke="none" fill="black">1500</text>
        <path d="M 439.231 920 L 439.231 910" />
        <path d="M 524.359 920 L 524.359 910" />
        <path d="M 481.795 920 L 481.795 910" />
        <path d="M 907.436 920 L 907.436 910" />
        <path d="M 779.744 920 L 779.744 900" />
        <text font-size="30" transform="translate(779.744, 950)" text-anchor="middle" dominant-baseline="middle" stroke="none" fill="black">2000</text>
        <path d="M 183.846 920 L 183.846 910" />
        <path d="M 652.051 920 L 652.051 910" />
        <path d="M 864.872 920 L 864.872 910" />
        <path d="M 226.41 920 L 226.41 910" />
        <path d="M 950 920 L 950 910" />
        <path d="M 822.308 920 L 822.308 910" />
    </g>
    <text id="frame_0_leftlabel" font-size="30" transform="translate(37, 485) rotate(-90)" text-anchor="middle" dominant-baseline="middle" stroke="none" fill="black">log(normalized wake radiance / water radiance)</text>
    <g id="frame_0_leftticks">
        <path d="M 120 885.082 L 130 885.082" />
        <path d="M 120 786.837 L 130 786.837" />
        <path d="M 120 148.245 L 140 148.245" />
        <text font-size="30" transform="translate(110, 158.245)" text-anchor="end" dominant-baseline="middle" stroke="none" fill="black">2</text>
        <path d="M 120 50 L 140 50" />
        <text font-size="30" transform="translate(110, 60)" text-anchor="end" dominant-baseline="middle" stroke="none" fill="black">3</text>
        <path d="M 120 344.735 L 140 344.735" />
        <text font-size="30" transform="translate(110, 354.735)" text-anchor="end" dominant-baseline="middle" stroke="none" fill="black">0</text>
        <path d="M 120 246.49 L 140 246.49" />
        <text font-size="30" transform="translate(110, 256.49)" text-anchor="end" dominant-baseline="middle" stroke="none" fill="black">1</text>
        <path d="M 120 619.821 L 130 619.821" />
        <path d="M 120 256.314 L 130 256.314" />
        <path d="M 120 59.8245 L 130 59.8245" />
        <path d="M 120 688.592 L 130 688.592" />
        <path d="M 120 767.188 L 130 767.188" />
        <path d="M 120 570.698 L 130 570.698" />
        <path d="M 120 875.257 L 130 875.257" />
        <path d="M 120 433.155 L 130 433.155" />
        <path d="M 120 757.363 L 130 757.363" />
        <path d="M 120 266.139 L 130 266.139" />
        <path d="M 120 521.576 L 130 521.576" />
        <path d="M 120 217.016 L 130 217.016" />
        <path d="M 120 678.768 L 130 678.768" />
        <path d="M 120 590.347 L 130 590.347" />
        <path d="M 120 816.31 L 130 816.31" />
        <path d="M 120 580.523 L 130 580.523" />
        <path d="M 120 128.596 L 130 128.596" />
        <path d="M 120 334.91 L 130 334.91" />
        <path d="M 120 865.433 L 130 865.433" />
        <path d="M 120 167.894 L 130 167.894" />
        <path d="M 120 79.4735 L 130 79.4735" />
        <path d="M 120 708.241 L 130 708.241" />
        <path d="M 120 806.486 L 130 806.486" />
        <path d="M 120 374.208 L 130 374.208" />
        <path d="M 120 413.506 L 130 413.506" />
        <path d="M 120 462.629 L 130 462.629" />
        <path d="M 120 659.119 L 130 659.119" />
        <path d="M 120 315.261 L 130 315.261" />
        <path d="M 120 187.543 L 130 187.543" />
        <path d="M 120 236.665 L 130 236.665" />
        <path d="M 120 796.661 L 130 796.661" />
        <path d="M 120 531.4 L 130 531.4" />
        <path d="M 120 609.996 L 130 609.996" />
        <path d="M 120 472.453 L 130 472.453" />
        <path d="M 120 855.608 L 130 855.608" />
        <path d="M 120 393.857 L 130 393.857" />
        <path d="M 120 914.555 L 130 914.555" />
        <path d="M 120 325.086 L 130 325.086" />
        <path d="M 120 560.874 L 130 560.874" />
        <path d="M 120 727.89 L 130 727.89" />
        <path d="M 120 482.278 L 130 482.278" />
        <path d="M 120 275.963 L 130 275.963" />
        <path d="M 120 158.069 L 130 158.069" />
        <path d="M 120 501.927 L 130 501.927" />
        <path d="M 120 452.804 L 130 452.804" />
        <path d="M 120 354.559 L 130 354.559" />
        <path d="M 120 118.771 L 130 118.771" />
        <path d="M 120 492.102 L 130 492.102" />
        <path d="M 120 629.645 L 130 629.645" />
        <path d="M 120 845.784 L 130 845.784" />
        <path d="M 120 305.437 L 130 305.437" />
        <path d="M 120 69.649 L 130 69.649" />
        <path d="M 120 698.416 L 130 698.416" />
        <path d="M 120 511.751 L 130 511.751" />
        <path d="M 120 423.331 L 130 423.331" />
        <path d="M 120 649.294 L 130 649.294" />
        <path d="M 120 295.612 L 130 295.612" />
        <path d="M 120 226.841 L 130 226.841" />
        <path d="M 120 894.906 L 130 894.906" />
        <path d="M 120 108.947 L 130 108.947" />
        <path d="M 120 904.731 L 130 904.731" />
        <path d="M 120 600.172 L 130 600.172" />
        <path d="M 120 668.943 L 130 668.943" />
        <path d="M 120 177.718 L 130 177.718" />
        <path d="M 120 138.42 L 130 138.42" />
        <path d="M 120 747.539 L 130 747.539" />
        <path d="M 120 777.012 L 130 777.012" />
        <path d="M 120 551.049 L 130 551.049" />
        <path d="M 120 835.959 L 140 835.959" />
        <text font-size="30" transform="translate(110, 845.959)" text-anchor="end" dominant-baseline="middle" stroke="none" fill="black">5</text>
        <path d="M 120 384.033 L 130 384.033" />
        <path d="M 120 89.298 L 130 89.298" />
        <path d="M 120 718.065 L 130 718.065" />
        <path d="M 120 442.98 L 140 442.98" />
        <text font-size="30" transform="translate(110, 452.98)" text-anchor="end" dominant-baseline="middle" stroke="none" fill="black">1</text>
        <path d="M 120 364.384 L 130 364.384" />
        <path d="M 120 207.192 L 130 207.192" />
        <path d="M 120 285.788 L 130 285.788" />
        <path d="M 120 541.225 L 140 541.225" />
        <text font-size="30" transform="translate(110, 551.225)" text-anchor="end" dominant-baseline="middle" stroke="none" fill="black">2</text>
        <path d="M 120 403.682 L 130 403.682" />
        <path d="M 120 99.1225 L 130 99.1225" />
        <path d="M 120 737.714 L 140 737.714" />
        <text font-size="30" transform="translate(110, 747.714)" text-anchor="end" dominant-baseline="middle" stroke="none" fill="black">4</text>
        <path d="M 120 639.47 L 140 639.47" />
        <text font-size="30" transform="translate(110, 649.47)" text-anchor="end" dominant-baseline="middle" stroke="none" fill="black">3</text>
        <path d="M 120 826.135 L 130 826.135" />
        <path d="M 120 197.367 L 130 197.367" />
    </g>
    <g id="frame_0_topticks">
        <path d="M 268.974 50 L 268.974 60" />
        <path d="M 609.487 50 L 609.487 60" />
        <path d="M 311.538 50 L 311.538 60" />
        <path d="M 694.615 50 L 694.615 60" />
        <path d="M 737.179 50 L 737.179 60" />
        <path d="M 354.103 50 L 354.103 70" />
        <path d="M 396.667 50 L 396.667 60" />
        <path d="M 141.282 50 L 141.282 70" />
        <path d="M 566.923 50 L 566.923 70" />
        <path d="M 439.231 50 L 439.231 60" />
        <path d="M 524.359 50 L 524.359 60" />
        <path d="M 481.795 50 L 481.795 60" />
        <path d="M 907.436 50 L 907.436 60" />
        <path d="M 779.744 50 L 779.744 70" />
        <path d="M 183.846 50 L 183.846 60" />
        <path d="M 652.051 50 L 652.051 60" />
        <path d="M 864.872 50 L 864.872 60" />
        <path d="M 226.41 50 L 226.41 60" />
        <path d="M 950 50 L 950 60" />
        <path d="M 822.308 50 L 822.308 60" />
    </g>
    <g id="frame_0_rightticks">
        <path d="M 950 885.082 L 940 885.082" />
        <path d="M 950 786.837 L 940 786.837" />
        <path d="M 950 148.245 L 930 148.245" />
        <path d="M 950 50 L 930 50" />
        <path d="M 950 344.735 L 930 344.735" />
        <path d="M 950 246.49 L 930 246.49" />
        <path d="M 950 619.821 L 940 619.821" />
        <path d="M 950 256.314 L 940 256.314" />
        <path d="M 950 59.8245 L 940 59.8245" />
        <path d="M 950 688.592 L 940 688.592" />
        <path d="M 950 767.188 L 940 767.188" />
        <path d="M 950 570.698 L 940 570.698" />
        <path d="M 950 875.257 L 940 875.257" />
        <path d="M 950 433.155 L 940 433.155" />
        <path d="M 950 757.363 L 940 757.363" />
        <path d="M 950 266.139 L 940 266.139" />
        <path d="M 950 521.576 L 940 521.576" />
        <path d="M 950 217.016 L 940 217.016" />
        <path d="M 950 678.768 L 940 678.768" />
        <path d="M 950 590.347 L 940 590.347" />
        <path d="M 950 816.31 L 940 816.31" />
        <path d="M 950 580.523 L 940 580.523" />
        <path d="M 950 128.596 L 940 128.596" />
        <path d="M 950 334.91 L 940 334.91" />
        <path d="M 950 865.433 L 940 865.433" />
        <path d="M 950 167.894 L 940 167.894" />
        <path d="M 950 79.4735 L 940 79.4735" />
        <path d="M 950 708.241 L 940 708.241" />
        <path d="M 950 806.486 L 940 806.486" />
        <path d="M 950 374.208 L 940 374.208" />
        <path d="M 950 413.506 L 940 413.506" />
        <path d="M 950 462.629 L 940 462.629" />
        <path d="M 950 659.119 L 940 659.119" />
        <path d="M 950 315.261 L 940 315.261" />
        <path d="M 950 187.543 L 940 187.543" />
        <path d="M 950 236.665 L 940 236.665" />
        <path d="M 950 796.661 L 940 796.661" />
        <path d="M 950 531.4 L 940 531.4" />
        <path d="M 950 609.996 L 940 609.996" />
        <path d="M 950 472.453 L 940 472.453" />
        <path d="M 950 855.608 L 940 855.608" />
        <path d="M 950 393.857 L 940 393.857" />
        <path d="M 950 914.555 L 940 914.555" />
        <path d="M 950 325.086 L 940 325.086" />
        <path d="M 950 560.874 L 940 560.874" />
        <path d="M 950 727.89 L 940 727.89" />
        <path d="M 950 482.278 L 940 482.278" />
        <path d="M 950 275.963 L 940 275.963" />
        <path d="M 950 158.069 L 940 158.069" />
        <path d="M 950 501.927 L 940 501.927" />
        <path d="M 950 452.804 L 940 452.804" />
        <path d="M 950 354.559 L 940 354.559" />
        <path d="M 950 118.771 L 940 118.771" />
        <path d="M 950 492.102 L 940 492.102" />
        <path d="M 950 629.645 L 940 629.645" />
        <path d="M 950 845.784 L 940 845.784" />
        <path d="M 950 305.437 L 940 305.437" />
        <path d="M 950 69.649 L 940 69.649" />
        <path d="M 950 698.416 L 940 698.416" />
        <path d="M 950 511.751 L 940 511.751" />
        <path d="M 950 423.331 L 940 423.331" />
        <path d="M 950 649.294 L 940 649.294" />
        <path d="M 950 295.612 L 940 295.612" />
        <path d="M 950 226.841 L 940 226.841" />
        <path d="M 950 894.906 L 940 894.906" />
        <path d="M 950 108.947 L 940 108.947" />
        <path d="M 950 904.731 L 940 904.731" />
        <path d="M 950 600.172 L 940 600.172" />
        <path d="M 950 668.943 L 940 668.943" />
        <path d="M 950 177.718 L 940 177.718" />
        <path d="M 950 138.42 L 940 138.42" />
        <path d="M 950 747.539 L 940 747.539" />
        <path d="M 950 777.012 L 940 777.012" />
        <path d="M 950 551.049 L 940 551.049" />
        <path d="M 950 835.959 L 930 835.959" />
        <path d="M 950 384.033 L 940 384.033" />
        <path d="M 950 89.298 L 940 89.298" />
        <path d="M 950 718.065 L 940 718.065" />
        <path d="M 950 442.98 L 930 442.98" />
        <path d="M 950 364.384 L 940 364.384" />
        <path d="M 950 207.192 L 940 207.192" />
        <path d="M 950 285.788 L 940 285.788" />
        <path d="M 950 541.225 L 930 541.225" />
        <path d="M 950 403.682 L 940 403.682" />
        <path d="M 950 99.1225 L 940 99.1225" />
        <path d="M 950 737.714 L 930 737.714" />
        <path d="M 950 639.47 L 930 639.47" />
        <path d="M 950 826.135 L 940 826.135" />
        <path d="M 950 197.367 L 940 197.367" />
    </g>
</g>
<g id="Legend_0">
    <rect x="576.5" y="50" width="373.5" height="80" stroke-width="3" stroke-dasharray="" stroke="black" stroke-opacity="1" fill="white" fill-opacity="1" />
    <g id="Legend_0_content" clip-path="url(#Legend_0_clip)">
        <line x1="608.275" y1="74.5" x2="660.775" y2="74.5" stroke-width="3" stroke-dasharray="" stroke="red" stroke-opacity="1" />
        <text font-size="30" transform="translate(692.55, 85)" text-anchor="start" dominant-baseline="middle" stroke="none" fill="black">wake/water</text>
        <line x1="608.275" y1="109.5" x2="660.775" y2="109.5" stroke-width="3" stroke-dasharray="3.0 3.0" stroke="grey" stroke-opacity="1" />
        <text font-size="30" transform="translate(692.55, 120)" text-anchor="start" dominant-baseline="middle" stroke="none" fill="black">6 sample bands</text>
    </g>
</g>
</g>
</svg>
